<svg xmlns="http://www.w3.org/2000/svg" xmlns:xlink="http://www.w3.org/1999/xlink" viewBox="0 0 1000 1000"><defs><style>.a{fill:none;}.b{fill:#fff;}.c{clip-path:url(#a);}.d{clip-path:url(#b);}.e{fill:url(#c);}.f{clip-path:url(#d);}.g{fill:url(#e);}.h{clip-path:url(#f);}.i{fill:url(#g);}.j{clip-path:url(#h);}.k{fill:url(#i);}.l{clip-path:url(#j);}.m{fill:url(#k);}.n{clip-path:url(#l);}.o{fill:url(#m);}.p{clip-path:url(#n);}.q{fill:url(#o);}.r{clip-path:url(#p);}.s{fill:url(#q);}.t{clip-path:url(#r);}.u{fill:url(#s);}.v{clip-path:url(#t);}.w{fill:url(#u);}.x{clip-path:url(#v);}.y{fill:url(#w);}.z{clip-path:url(#x);}.aa{fill:url(#y);}.ab{clip-path:url(#z);}.ac{fill:url(#aa);}.ad{clip-path:url(#ab);}.ae{fill:url(#ac);}.af{clip-path:url(#ad);}.ag{fill:url(#ae);}.ah{clip-path:url(#af);}.ai{fill:url(#ag);}.aj{clip-path:url(#ah);}.ak{fill:url(#ai);}.al{clip-path:url(#aj);}.am{fill:url(#ak);}.an{clip-path:url(#al);}.ao{fill:url(#am);}.ap{clip-path:url(#an);}.aq{fill:url(#ao);}.ar{clip-path:url(#ap);}.as{fill:url(#aq);}.at{clip-path:url(#ar);}.au{fill:#ffb612;}</style><clipPath id="a"><rect class="a" x="40" y="40" width="920" height="920"/></clipPath><clipPath id="b"><path class="a" d="M85.31,699.335A462.008,462.008,0,0,0,289.016,908.866a456.945,456.945,0,0,0,155.526,47.822q5.231.635,10.516,1.141Q477.233,959.982,500,960c1.159,0,2.309,0,3.467-.018q10.628-.069,21.125-.635,6.816-.345,13.57-.9c2.795-.238,5.593-.486,8.372-.762,3.256-.332,6.5-.689,9.741-1.1a457.4,457.4,0,0,0,169.548-55.743A462.027,462.027,0,0,0,914.69,699.335q-5.039-4.854-10.194-9.585c-.855-.791-1.72-1.573-2.585-2.354s-1.72-1.573-2.594-2.347q-1.035-.939-2.07-1.849c-1.979-1.767-3.965-3.5-5.962-5.234-1.6-1.4-3.221-2.78-4.839-4.15q-4.334-3.674-8.741-7.268c-.781-.635-1.573-1.279-2.363-1.913q-4.086-3.3-8.234-6.533c-.919-.718-1.85-1.435-2.77-2.145s-1.858-1.415-2.787-2.124q-1.629-1.242-3.257-2.464c-1.711-1.289-3.433-2.559-5.161-3.829-.948-.69-1.886-1.38-2.834-2.06s-1.895-1.372-2.852-2.051q-5.7-4.072-11.508-8.023c-.838-.571-1.675-1.141-2.522-1.7-.772-.525-1.545-1.039-2.319-1.564-1.077-.718-2.153-1.426-3.238-2.135-2.18-1.435-4.379-2.852-6.578-4.26l-2.428-1.545c-.617-.385-1.233-.773-1.859-1.167-.809-.507-1.619-1.013-2.429-1.51q-2.417-1.5-4.857-2.982c-1.123-.68-2.253-1.361-3.386-2.032-.578-.35-1.167-.7-1.757-1.049-2.438-1.444-4.885-2.88-7.351-4.287q-1.532-.884-3.063-1.748c-1-.571-2.015-1.141-3.027-1.7q-1.31-.732-2.622-1.455l-.5-.275c-1.031-.57-2.061-1.131-3.1-1.693-2.06-1.121-4.14-2.235-6.219-3.33-1.039-.552-2.079-1.1-3.129-1.639q-3.119-1.626-6.282-3.219c-1-.506-2.007-1.012-3.009-1.508a2.81,2.81,0,0,0-.258-.128c-1.019-.507-2.042-1.013-3.063-1.51q-6.4-3.147-12.907-6.136c-1.031-.479-2.061-.957-3.092-1.417-1.49-.681-2.99-1.361-4.5-2.024-.654-.295-1.316-.58-1.978-.874q-5.121-2.25-10.305-4.416c-.919-.377-1.839-.764-2.759-1.141-1.095-.451-2.19-.9-3.295-1.342q-4.924-2-9.927-3.91c-.965-.378-1.922-.737-2.888-1.105-.855-.322-1.72-.653-2.585-.965q-2.042-.76-4.094-1.51c-1.362-.5-2.723-.994-4.094-1.472s-2.741-.975-4.121-1.454-2.751-.947-4.131-1.415c-1.113-.379-2.236-.756-3.358-1.134-1.859-.615-3.726-1.232-5.6-1.83q-1.752-.566-3.5-1.112-2.29-.718-4.582-1.427c-2.235-.681-4.471-1.352-6.725-2.015q-2.375-.69-4.747-1.371l-3.938-1.1c-.1-.026-.2-.054-.3-.081-.9-.249-1.795-.5-2.7-.736q-4.114-1.121-8.262-2.173c-.855-.229-1.72-.439-2.576-.652-1.306-.331-2.612-.653-3.919-.975-1.821-.443-3.652-.882-5.474-1.3-1.251-.3-2.493-.58-3.744-.858-.341-.082-.691-.165-1.041-.238q-1.764-.4-3.532-.782c-1.186-.258-2.364-.515-3.551-.763-1.611-.35-3.229-.682-4.848-1.013-1.785-.368-3.578-.716-5.373-1.066q-2.015-.389-4.03-.765-1.572-.3-3.146-.579c-1.363-.249-2.732-.488-4.094-.726q-2.735-.485-5.482-.93c-1.758-.295-3.516-.571-5.274-.848-1.526-.229-3.063-.468-4.6-.689q-1.325-.192-2.649-.386c-1.206-.175-2.42-.341-3.634-.506-.939-.128-1.886-.258-2.834-.377-.561-.074-1.132-.147-1.7-.221-.911-.12-1.831-.239-2.751-.35-1.674-.211-3.358-.414-5.032-.6-1.684-.2-3.367-.385-5.06-.57-.3-.028-.6-.064-.893-.092-1.527-.166-3.054-.313-4.59-.46-2.449-.239-4.9-.469-7.36-.672-1.6-.139-3.211-.276-4.821-.395-1.784-.138-3.579-.266-5.373-.388-.258-.017-.506-.035-.764-.054-1.435-.091-2.879-.184-4.325-.267-.781-.054-1.564-.1-2.345-.138-.276-.018-.561-.036-.837-.047-1.2-.063-2.4-.127-3.6-.183-1.968-.1-3.936-.183-5.915-.256-1.527-.066-3.063-.112-4.59-.158-.442-.018-.884-.027-1.334-.036-1.9-.065-3.8-.111-5.695-.148-.157,0-.313,0-.468-.008-1.648-.028-3.295-.057-4.942-.065-.3-.008-.6-.008-.9-.008-1.821-.02-3.633-.029-5.455-.029A596.009,596.009,0,0,0,85.31,699.335"/></clipPath><linearGradient id="c" x1="2.17" y1="-0.026" x2="3.09" y2="-0.026" gradientTransform="matrix(0, 465, 465, 0, 512, -477)" gradientUnits="userSpaceOnUse"><stop offset="0" stop-color="#1464cc"/><stop offset="1" stop-color="#001f59"/></linearGradient><clipPath id="d"><path class="a" d="M314.232,624.271c.44-.73,1.3-.731.934-.012a1.358,1.358,0,0,1-.677.617,1.565,1.565,0,0,1-.4.085c-.221,0-.16-.194.139-.69m14.7-5.953c-.6-.315-.47-1.337.287-2.262a2.347,2.347,0,0,0,.488-1.136,1.521,1.521,0,0,1,.606-.978c1.029-.744,1.165-.193.309,1.163a7.624,7.624,0,0,0-.985,2.411,6.863,6.863,0,0,0-.061,1.187,7.332,7.332,0,0,0-.644-.385m20.592-5.242c-.24-.07-.26-.3-.048-.5a.958.958,0,0,1,.819-.237c.239.071.263.29.052.493a1.026,1.026,0,0,1-.661.263.562.562,0,0,1-.162-.021m-13.686-.646c-1.135-.682-.728-1.343.828-1.439,1.042-.065,1.4.875.58,1.686a.476.476,0,0,1-.331.1,2.3,2.3,0,0,1-1.077-.342m29.55-1.685c-.8-.158-.878-.9-.136-1.087.7-.179,1.642.5,1.224.893a1.247,1.247,0,0,1-.78.223,1.649,1.649,0,0,1-.308-.029m18.3-8.676c.177-.274.405-.279.819-.017a9.31,9.31,0,0,0,1.939.737c.754.2,1.276.464,1.143.582a1.145,1.145,0,0,1-.741.188c-1.3,0-3.551-.887-3.16-1.49M400.8,594.53c-.215-.034-.237-.2-.048-.364a1.034,1.034,0,0,1,.731-.242c.211.033.232.2.047.365a1.076,1.076,0,0,1-.645.247.466.466,0,0,1-.085-.006m-7.331-9.246c.59-.648,1.326-.858,3.036-.807,1.54.046,1.59.4,0,.961a5.928,5.928,0,0,1-1.856.281c-.812,0-1.43-.16-1.18-.435m-5.536-3.245c-.107-.139.035-.377.31-.531s.582-.171.692-.036-.023.378-.3.536a.923.923,0,0,1-.443.128.316.316,0,0,1-.259-.1m-1.087-.545c-.022-.034.184-.183.458-.331s.513-.243.537-.209-.18.184-.454.334a1.793,1.793,0,0,1-.518.213.031.031,0,0,1-.023-.007m1.16-6.5c-.023-.048.125-.187.323-.307s.378-.182.4-.135-.113.184-.314.306a.954.954,0,0,1-.372.153c-.02,0-.035-.006-.039-.017m-3.94-1.273a1.82,1.82,0,0,1,.749-1.037c.4-.306.48-.335.526-.189.064.2-.52.907-.989,1.167a.654.654,0,0,1-.252.094c-.028,0-.041-.011-.034-.035m-6.4-9.483c-.434.12-1.285.343-1.9.5-1.08.278-1.174.278-1.341-.113-.187-.434-1.344-.554-2.591-.235a1.694,1.694,0,0,1-.9.059,1.942,1.942,0,0,0-.85-.085c-.372.025-.858.049-1.076.054a10.282,10.282,0,0,0-2.872.811c-.5.224-.628.412-.415.616.165.16.109.36-.128.45a26.037,26.037,0,0,1-3.507,1.065c-.231.014-.805.094-1.281.179a4.475,4.475,0,0,1-1.94-.211,3.948,3.948,0,0,0-2.065-.186,8.244,8.244,0,0,1-2.381.079c-.785-.1-1.676-.192-1.957-.188a10.148,10.148,0,0,0-3.177.311,9.847,9.847,0,0,0-3.531,2.266,4.468,4.468,0,0,1-1.361,1.1c-.64.374-1.133.739-1.087.809s-.232.251-.77.468c-1.313.531-2.289-.411-1.024-.973a2.359,2.359,0,0,0,1.129-.814c.109-.224.069-.369-.082-.318a7.653,7.653,0,0,0-2.171,1.191q.084.115-1.223.7c-1.623.726-2.59,1.365-2.455,1.6s-.411.688-1.179,1.024c-.331.145-.635.209-.676.14-.108-.179-1.928.655-2.93,1.331a10.788,10.788,0,0,0-2.236,2.048c-.094.152.159.086.919-.242,1.463-.632,1.737-.36.337.346-.851.428-.885.482-.174.293a1.788,1.788,0,0,1,1.2.02,1.571,1.571,0,0,0,1.133,0c.564-.172.624-.09.191.275-.343.286-.61.6-.59.692s-.4.375-1.047.678c-.6.281-.017.068-.69.42-.2.1-.076.148-.651.436a3.71,3.71,0,0,0-1.046.65,1.847,1.847,0,0,1-.718.454c-.392.179-.706.373-.7.433a5.185,5.185,0,0,1-1.912.866,7.8,7.8,0,0,0-1.251.411,25.962,25.962,0,0,0-3.309,1.574,28.924,28.924,0,0,1-2.615,1.247,29.552,29.552,0,0,1-3.49,1.4,15.122,15.122,0,0,0-2.385.953c-.837.392-1.73.76-2.776,1.139-.846.305-1.518.563-1.52.586a2.854,2.854,0,0,1-.524.323,5.818,5.818,0,0,1-1.61.55,6.274,6.274,0,0,0-2.275.859c.01.042-.217.164-.5.263s-.527.113-.552.033-.193-.148-.374-.154c-.371-.011-3.231.743-5.1,1.216a3.458,3.458,0,0,1-1.387.21c-.153-.061-.419-.008-1.15.163-1.028.243-1.145.352-.831.777.148.2.1.253-.216.246-.494-.012-.93.9-.8,1.065s1.019-.7,1.5-.89a2.42,2.42,0,0,1,.852-.172,1.3,1.3,0,0,1,.565.033c.051.078-.274.208-1.35.4-.561.1-.694.441-.664.914.049.763-.451,1.613-2.149,3.388a9.87,9.87,0,0,1-1.451,1.367,13.391,13.391,0,0,1,.9-1.754c1.155-2.048,1.053-3.273.022-2.53a4.711,4.711,0,0,0-1.088,1.024c-.678.848-1.139,1.186-1.54,1.152a1.784,1.784,0,0,0-1.02.543,16.577,16.577,0,0,1-1.572,1.147c-1.026.644-2.2,1.662-2.134,1.917.024.092-.228.393-.59.7-1.06.889-1.524,1.77-.887,1.732a1.941,1.941,0,0,1,.945.2c.242.144.783.012,1.39-.355,1.04-.629,1.943-1.517,1.858-1.777a11.578,11.578,0,0,1,1.84-2.493c.626-.611.51-.131-.218.845a4.2,4.2,0,0,0-.74,1.343c-.036.4-.073.474-2.012,2.317a20.449,20.449,0,0,1-4.8,3.662c-2.558,1.579-2.82,1.65-2.372,1.059.7-.926.477-1.338-.5-.892a1.776,1.776,0,0,1-1.187.19c-.305-.163-.542-.053-1.859.839-1.124.761-1.631,1.011-1.915.961-.457-.081-5.189,2.114-6.715,3.134a7.776,7.776,0,0,0-1.432,1.189c-.31.4-.757.658-2.842,1.491a17.208,17.208,0,0,0-5.107,2.783,16.01,16.01,0,0,0-3.366,2.828,10.028,10.028,0,0,1-1.8,1.678c-.569.395-.985.777-.925.849.126.15-2.1,1.573-4.718,3.033-2.187,1.221-3.59,2.263-3.912,2.883a10.834,10.834,0,0,1-3.165,2.7c-1.687,1.146-4.841,4.38-4.557,4.591.249.184-1.55,1.953-3.506,3.581a18.256,18.256,0,0,0-2.6,2.685c-.593.779-1.791,2.291-2.647,3.368-1.767,2.224-2.639,3.825-2.342,3.978.11.056-.041.442-.333.858s-.439.8-.329.856a5.431,5.431,0,0,1-1,1.881c-1.327,2.009-1.668,2.314-.091,1.623,1.837-.807,3.177-.381,2.177.688a9.213,9.213,0,0,0-2.326,3.884c-.1.7-.362,1.07-1.8,2.476-1.479,1.447-1.642,1.667-1.5,2.147.112.393.487.342,1.363-.2,1.4-.869,1.345-.335-.11,1.089-1.208,1.182-.754,1.525,1.033.824.649-.254,1.193-.3,1.194-.11,0,.4,2.7-1.248,3.956-2.471a7.975,7.975,0,0,1,2.462-1.4,14.352,14.352,0,0,0,3.352-1.878,22.05,22.05,0,0,1,4.707-2.439,29.258,29.258,0,0,0,3.538-1.489,9.987,9.987,0,0,1,2.416-.97,6.144,6.144,0,0,0,2.439-1.152,14.243,14.243,0,0,1,2.5-2.023c1.8-1.23,2.245-1.374,3.251-.975a7.862,7.862,0,0,0,2.816.368,5.206,5.206,0,0,1,1.829.1,12.87,12.87,0,0,0,2.756.014,7.894,7.894,0,0,1,2.8.185c.631.594,4.7-.624,5.506-1.708.313-.421.167-.856-.454-1.41-1.347-1.2-1.571-1.557-1.242-1.964.166-.206,1.072.414,2.128,1.509,2.51,2.612,3.221,2.782,3.966.431.823-2.594.876-2.6,1.967-1.21.856,1.087,1.326,1.231,3.4.789.946-.2,1.405-.316,2.3-.569,1.036.9,1.7,1.479,2.427,2.11.711.615,2.354-.359,3.23-.7l1.728-1.3c1.285-.964,3.138-3.9,4.712-4.224l.721-.241c1.11-.369,2.493-1.293,3.491-.914a1.11,1.11,0,0,0,.9-.022,2.354,2.354,0,0,1,2.5.249l1.576,1.227a2.467,2.467,0,0,0,1.344-1.226l.006-.012c.269-.574.609-.629,1.5-.236,1.038.459,1.258.4,1.559-.528.288-.885.358-.926.472-.246.173,1.03.438,1.122,1.217.43a2.772,2.772,0,0,1,1.821-.476,2.382,2.382,0,0,0,1.632-.313,2.261,2.261,0,0,1,1.5-.465A2.676,2.676,0,0,0,313,641.05a1.4,1.4,0,0,1,.876-.561c.951-.091,5.035-1.667,5.4-2.184.194-.276.711-.293,1.163-.029a1.108,1.108,0,0,0,1.311-.023,1.275,1.275,0,0,1,1.357-.178c.5.195,1.028.074,1.15-.257.167-.452-.672-.976-2.655-2.35-1.458-1.011-2.232-1.619-2.389-2.012-.56-1.4-2.391-3.352-3.47-3.621-.847-.21-1-.394-.766-.887a.945.945,0,0,1,1.169-.368c1.123.363,1.621-.116,2.362-2.128.709-1.922,1.575-2.8,2.2-2.358.64.452.483,2.8-.086,4.523a3.982,3.982,0,0,0,.214,3.186c.809,2.041,2.089,3.111,3.242,2.737.623-.2,1.007.021,1.918,1.025,1.8,1.99,2.866,1.341,3.62-1.7a9.315,9.315,0,0,1,1.151-2.24c.852-1.243,1.335-2,1.114-3.1a3.451,3.451,0,0,1,.17-2.011.733.733,0,0,0-.385-1.053,3.424,3.424,0,0,1-1.118-2.269,4.287,4.287,0,0,0-.745-2.169,1.366,1.366,0,0,1-.328-1.274c.131-.824.257-.908.806-.574a3.492,3.492,0,0,1,1.068,1.587,6.018,6.018,0,0,0,1.537,2.151c.98.825,1.366.785,2.815-.126.916-.575,2.346-1.386,3.174-1.81,2.7-1.385,3.029-2.914.928-3.7-1.135-.423-1.56-1.489-.96-2.142.343-.372,2.36.988,2.518,1.666.085.365,1.252.44,3.4.2,2.619-.3,3.734-.214,5.15.379,1.593.667,2.077.634,3.852-.113,2.243-.946,2.568-1.53,1.055-1.874-.584-.134-.727-.417-.348-.664.4-.259,2.421-.181,5.317.134a28.871,28.871,0,0,0,6.805.085l1.905-.4c-.259-.368-.385-.55-.63-.912a1.971,1.971,0,0,0-1.548-.851c-.527.029-.8-.108-.607-.3a3.317,3.317,0,0,0,.575-.941c.17-.432.546-.519,1.461-.35a6.94,6.94,0,0,0,5.882-1.6c.693-.659,1.061-1.273.815-1.389s-.1-.546.319-.945c.732-.7.539-.736-2.615-1.424-4.572-1-4.663-1.681-.952-1.871a28.5,28.5,0,0,1,7.666.541c3.007.667,3.609.945,2.61,1.487-1.078.585-1.569,2.825-.623,2.968.48.072,1.151-.353,2.126-1.3,1.311-1.271,1.6-1.378,3.524-1.543,1.662-.142,2.25-.353,2.923-1.01s.615-.895-.192-1.163c-.642-.213-.844-.613-.54-1.06.429-.63.159-.783-1.948-1.313a5.553,5.553,0,0,1-2.438-1c-.045-.213-.515-.466-1.044-.565-1.4-.262-.361-.751,2.78-1.407a10.629,10.629,0,0,1,4.464-.295,9.464,9.464,0,0,0,3.477-.087,9.335,9.335,0,0,1,2.488-.268c1.084.17,1.917-.264,1.429-.729-.39-.372-.31-.421,1.122-.9a4.674,4.674,0,0,1,3.513.009,8.1,8.1,0,0,0,4.613.028,10.763,10.763,0,0,0,2.8-.81.6.6,0,0,1,.335-.1,1.758,1.758,0,0,0,1.51-2.061l-.256-1.41a3.5,3.5,0,0,0-2.17-2.679c-1.066-.4-1.092-.743.006-.928,1.181-.2,1.875-1.014,1.245-1.417a2.647,2.647,0,0,0-2.969-.092c-.328.3-.367.581-.087.625,1.036.166-.222.708-1.69.72a16.491,16.491,0,0,0-2.974.35c-2.01.459-4.107.5-3.612.105a2.793,2.793,0,0,1,1.119-.432c.987-.151,2.8-1.739,2.655-2.29-.11-.421-.032-.473,1.151-.907a5.625,5.625,0,0,1,2.283-.317,2.152,2.152,0,0,0,1.355-.137c.736-.672-.722-1.533-3.419-2.295-1.686-.476-2.611-1.033-2.481-1.358.388-.979-1.553-1.966-3.537-2.524-1.134-.318-1.331-.7-1.074-.928.654-.592-3.53-3.089-4.249-2.845-.431.146-.469.084-.217-.249s.192-.376-.169-.242a.747.747,0,0,1-.679-.019c-.156-.155-.328-.106-.876.235a1.541,1.541,0,0,1-1.121.35c-.493-.1-.5-.873-.117-1.37s-1-2.107-1.457-1.919c-.106.044-.269-.048-.361-.2a.285.285,0,0,0-.4-.122c-.133.09-.213.236-.17.32s-.038.232-.19.33-.364-.01-.478-.265c-.183-.411-.47-.413-.881.048a2.251,2.251,0,0,1-.456.354c-.375.219-.572-.309-.228-.569a2.016,2.016,0,0,0,.216-2.024l-.292-.43c-.309.184-.48.285-.853.494-.842.475-1.011.534-1.079.328a1.127,1.127,0,0,1,.306-.695,1.776,1.776,0,0,0,.273-1.151c-.086-.7-.057-.72-.861-.464-1.021.324-1.019.24-.133-.263.282-.159.412-.235.651-.374-.718-.551-1.047-.79-1.658-1.22-1.083-.761-1.6-.96-2.071-.956a1.951,1.951,0,0,1-1.024-.262.632.632,0,0,0-.435-.187,2.814,2.814,0,0,0-.653.128"/></clipPath><linearGradient id="e" x1="-0.492" y1="2.443" x2="0.428" y2="2.443" gradientTransform="matrix(0, -400.136, -400.136, 0, 1292.617, 497.651)" gradientUnits="userSpaceOnUse"><stop offset="0" stop-color="#d3ebd9"/><stop offset="1" stop-color="#06782a"/></linearGradient><clipPath id="f"><path class="a" d="M386.461,607.942c-.571.575-.2.786,3,1.383,2.049.382,4.193.726,4.7.779,1.318.14,2.409-.694,1.145-.863-.58-.079-.927-.458-.775-.836.216-.529-.31-.759-2.24-1.048a19.689,19.689,0,0,0-2.857-.249,4.111,4.111,0,0,0-2.972.834"/></clipPath><linearGradient id="g" x1="4.981" y1="-1.729" x2="5.901" y2="-1.729" gradientTransform="matrix(0, 190.938, 190.938, 0, 721.302, -394.167)" gradientUnits="userSpaceOnUse"><stop offset="0" stop-color="#e4ffeb"/><stop offset="0.696" stop-color="#c9efd4"/><stop offset="1" stop-color="#06782a"/></linearGradient><clipPath id="h"><path class="a" d="M579.341,581.037c-1.1.219-1.179.353-.566,1.1.569.693.548.883-.141,1.037-1.257.281-2.7,1.618-2.393,2.232.15.3-.114.547-.594.554-1.156.021-.532.881,1.148,1.563a9.84,9.84,0,0,0,4.065.361,6.476,6.476,0,0,1,2.912.175c.11.2-.148.43-.574.5-.831.142-.7.684.419,1.6,1.1.9,5.338-.122,5.679-1.425.2-.763.785-1.081,2.526-1.456,1.669-.358,2.139-.663,1.925-1.146-.156-.357-.155-.682,0-.722s.03-.355-.279-.7a1.281,1.281,0,0,0-1.49-.4c-.8.2-1.058.106-1.685-.614s-.868-.81-1.668-.625c-1.13.259-1.205,2.387-.062,3.662.62.7.589.791-.246.68-.535-.073-1.5-.16-2.156-.2-1.154-.062-1.784-.424-1.785-1.03,0-.69-.743-1.044-2.269-1.067a4.119,4.119,0,0,1-1.894-.338c-.147-.171.149-.533.655-.808.806-.439.811-.6.079-1.3-.679-.654-.72-.824-.245-.919.322-.064.425-.31.234-.545a1.311,1.311,0,0,0-.921-.245,3.539,3.539,0,0,0-.674.067"/></clipPath><linearGradient id="i" x1="7.169" y1="-2.881" x2="8.089" y2="-2.881" gradientTransform="matrix(0, 130.23, 130.23, 0, 959.455, -365.51)" gradientUnits="userSpaceOnUse"><stop offset="0" stop-color="#e4ffeb"/><stop offset="0.522" stop-color="#c4ecd0"/><stop offset="1" stop-color="#06782a"/></linearGradient><clipPath id="j"><path class="a" d="M576.322,589.676c-1.265.192-1.569.662-.877,1.352.48.479.843.518,2,.2.782-.212,1.371-.538,1.3-.722-.178-.476-1.136-.862-2.022-.862a2.881,2.881,0,0,0-.408.029"/></clipPath><linearGradient id="k" x1="7.169" y1="-2.875" x2="8.089" y2="-2.875" gradientTransform="matrix(0, 130.23, 130.23, 0, 951.141, -362.567)" xlink:href="#i"/><clipPath id="l"><path class="a" d="M589.066,579.5c-1.17.016-.961.619.455,1.2,1.112.453,1.837.3,1.507-.316-.379-.7-.731-.884-1.812-.884l-.15,0"/></clipPath><linearGradient id="m" x1="7.169" y1="-2.885" x2="8.089" y2="-2.885" gradientTransform="matrix(-0.002, 130.23, 130.23, 0.002, 965.306, -367.795)" xlink:href="#i"/><clipPath id="n"><path class="a" d="M628.482,599.9c.227.557.128,1.155-.217,1.325a.636.636,0,0,0-.4.78c.43.878-1.481,2.494-4.256,3.3-1.878.548-2.66.9-2.512,1.286.119.309-.15.684-.594.825a.686.686,0,0,0-.466.967.664.664,0,0,1-.479.948.64.64,0,0,0-.474.924c.187.39.138.764-.109.829s-.33.547-.187,1.075.054,1-.2,1.06-.242.434.018.846c.3.479.194.822-.293.934-.79.183-.643.38,1.464,2.329a12.3,12.3,0,0,1,2.872,5.91,1.706,1.706,0,0,0,.817,1.643,2.825,2.825,0,0,0,1.061.627c.629-.058,1.237.936,1.15,1.878a3.271,3.271,0,0,0,.381,1.756c.26.407.346.749.2.757s-.135.321.032.7a3.877,3.877,0,0,0,1.491,1.579,3.82,3.82,0,0,1,1.721,2.068c.369.819.339,1.148-.086,1.061-1.4-.286-.081,1.761,2.534,4.178a8.422,8.422,0,0,0,2.118,1.618,2.455,2.455,0,0,1,1.127.776,2.354,2.354,0,0,0,1.137.769,6.111,6.111,0,0,1,1.765.817c1.059.628,1.323.654,1.053.158-.593-1.091.168-.8,1.1.4a2.9,2.9,0,0,0,2.045,1.339c.655.12,1.82.309,2.6.413,2.19.293,9.33-2.268,8.857-3.025a1.824,1.824,0,0,0-1.193-.709c-6.042-.686-11.9-4.5-15.205-7.782-1.854-1.838-1.963-1.971-2.35-3.019-.224-.6-.435-1.218-.466-1.368a16.047,16.047,0,0,0-.853-1.8,14.641,14.641,0,0,1-1.117-2.858,23.325,23.325,0,0,0-2.266-6.486c-.651-1.084-.725-1.51-.264-1.66a.675.675,0,0,0,.408-.863c-.121-.36-.037-.719.189-.8s.081-.827-.33-1.651-.593-1.553-.4-1.628.323-.507.288-.957a2.328,2.328,0,0,1,.666-1.553c.406-.41.628-.963.477-1.2s.05-.577.489-.807a6.273,6.273,0,0,0,1.716-1.816c.487-.762,1.174-1.832,1.547-2.389a5.641,5.641,0,0,0,.806-1.976,1.856,1.856,0,0,1,.725-1.274c.348-.18.36-.722.033-1.3-.644-1.133-.687-1.172-2.111-2.017a4.8,4.8,0,0,0-2.45-.661c-2.357,0-4.444,1.669-3.606,3.725"/></clipPath><linearGradient id="o" x1="7.169" y1="-2.879" x2="8.089" y2="-2.879" gradientTransform="matrix(0, 130.23, 130.23, 0, 1010.798, -381.568)" gradientUnits="userSpaceOnUse"><stop offset="0" stop-color="#c4ecd0"/><stop offset="0.369" stop-color="#c4ecd0"/><stop offset="1" stop-color="#06782a"/></linearGradient><clipPath id="p"><path class="a" d="M591.81,588.879c-.484.1-.712.366-.5.593a1.537,1.537,0,0,0,1.263.234c.484-.1.7-.37.494-.6a1.253,1.253,0,0,0-.866-.267,1.942,1.942,0,0,0-.388.039"/></clipPath><linearGradient id="q" x1="7.169" y1="-2.883" x2="8.089" y2="-2.883" gradientTransform="matrix(0.003, 130.23, 130.23, -0.003, 967.651, -368.129)" xlink:href="#i"/><clipPath id="r"><path class="a" d="M595.98,581.179a1.81,1.81,0,0,0-1.288.781,3.584,3.584,0,0,1-.789,1.081c-.636.557-.161,1.156,1.188,1.456a3.583,3.583,0,0,0,3.222-1.442c.121-.279-.092-.732-.574-1.238s-.759-.688-1.237-.688a3.4,3.4,0,0,0-.522.05"/></clipPath><linearGradient id="s" x1="7.169" y1="-2.887" x2="8.089" y2="-2.887" gradientTransform="matrix(0, 130.23, 130.23, 0, 971.851, -369.841)" xlink:href="#i"/><clipPath id="t"><path class="a" d="M572.993,591.674a2.166,2.166,0,0,1-.632.369c-.105.016-.013.2.207.411a1.778,1.778,0,0,0,1.278.259c.667-.095.725-.278.235-.753-.314-.305-.52-.445-.714-.445a.624.624,0,0,0-.374.159"/></clipPath><linearGradient id="u" x1="7.169" y1="-2.87" x2="8.089" y2="-2.87" gradientTransform="matrix(0, 130.23, 130.23, 0, 947.176, -361.268)" xlink:href="#i"/><clipPath id="v"><path class="a" d="M560.623,590.167c-1.74.62-1.888.829-1.327,1.273.471.371,2.157.192,3.213-.323.556-.273.645-.56.275-.951a.96.96,0,0,0-.753-.351,4.7,4.7,0,0,0-1.408.352"/></clipPath><linearGradient id="w" x1="7.169" y1="-2.864" x2="8.089" y2="-2.864" gradientTransform="matrix(0, 130.23, 130.23, 0, 933.89, -356.927)" xlink:href="#i"/><clipPath id="x"><path class="a" d="M566.374,588.03a1.466,1.466,0,0,0-1.138.861c-.128.475-.575.673-1.358.611-1.045-.083-1.087,0-.47.762.5.624.546.946.163,1.215-.793.557.191,1.33,2.12,1.621,1.289.2,3.124-.493,2.823-1.085a1.339,1.339,0,0,1,.949-1.768c.963-.155,1.843-.8,1.522-1.136a10.083,10.083,0,0,0-4.27-1.1,2.242,2.242,0,0,0-.341.022"/></clipPath><linearGradient id="y" x1="7.169" y1="-2.868" x2="8.089" y2="-2.868" gradientTransform="matrix(0, 130.23, 130.23, 0, 940.58, -359.103)" xlink:href="#i"/><clipPath id="z"><path class="a" d="M505.352,609.331a.558.558,0,0,1,.415-.411,1.319,1.319,0,0,0,.673-.49.634.634,0,0,1,.775-.22c.388.242.386.264.009.821a1.942,1.942,0,0,1-1.432.645c-.3,0-.51-.106-.44-.345m14.409-11.4c-.285.915-.415,1.025-.753.7a1.157,1.157,0,0,0-1.045-.205,1.209,1.209,0,0,1-.981-.091c-1.372-1.163-1.4-1.192-2.417-.04a3.88,3.88,0,0,1-1.45,1.147c-.383.032-.439.18-.357,1.088.089,1.014.084,1.024-.33.482a3.319,3.319,0,0,0-1.893-.729c-1.406-.161-1.538-.114-2.042.834a2.082,2.082,0,0,0-.334,1.814c.3,1.207-.149,1.077-.947-.295-.516-.887-.856-1.14-1.565-1.1-.5.029-1.007-.132-1.116-.356-.137-.282-.507-.266-1.187.052a8.868,8.868,0,0,1-2.677.549c-1.654.085-3.327.955-3.3,1.739a13.1,13.1,0,0,0,1.639,2.562,14.842,14.842,0,0,1,1.548,2.291c-.147.325-1.186-.343-1.578-1.014-.484-.827-1.868-.962-1.787-.171.056.538,1.224,1.594,2.063,1.879.292.1.794.282,1.114.405.453.176.569.088.532-.393-.06-.752-.069-.749.888-.093a2.89,2.89,0,0,0,1.523.483c.63-.039.737.066.688.665-.075.9.307,1.937.69,1.909.161-.01.312.3.34.693.049.725.909,1.875,1.379,1.841a2.039,2.039,0,0,1,.87.493,6.418,6.418,0,0,0,1.493.858,4.369,4.369,0,0,1,1.348.835,1.542,1.542,0,0,0,1.128.429c.594-.058.733-.332,1.183-2.309.44-1.936.6-2.254,1.245-2.479.624-.219.738-.431.723-1.332-.01-.695.133-1.157.4-1.309a1.733,1.733,0,0,0,.53-1.133c.084-.653.254-.912.648-.945a.917.917,0,0,0,.725-.5c.21-.536,1.394.308,2.612,1.7.866.993,1.092,1.625.644,2.179a.522.522,0,0,0,.025.8c.26.307.738.272,1.949-.137,1.521-.511,1.629-.5,2.145.2.646.872,1,.892,1.691.1a1.9,1.9,0,0,1,1.017-.627,1.071,1.071,0,0,0,.68-1.679c-.263-.431-.656-.576-1.427-.525-.906.06-1.142-.062-1.592-.83s-.675-.893-1.474-.837c-.725.051-1.278-.206-2.229-1.1a6.546,6.546,0,0,0-1.929-1.364,16.223,16.223,0,0,1-1.6-.53,10.249,10.249,0,0,0-1.626-.482c-.571-.1-.895-.383-1.216-1.205-.169-.434-.251-.653-.41-1.093.323-.026.482-.041.8-.067a1.062,1.062,0,0,1,1.042.537c.251.455.816.6,2.639.611a8.794,8.794,0,0,1,3.222.483c1.014.608,2.657.48,2.983-.242.172-.381.573-.524,1.247-.439.824.1,1.073-.037,1.35-.814a3.282,3.282,0,0,1,1.046-1.419.926.926,0,0,0,.466-1.233c-.2-.64-.452-.789-1.517-.93-.7-.093-1.957-.323-2.785-.513a2.217,2.217,0,0,0-2.808.9c-.1.12-.274-.183-.382-.7-.147-.692-.413-1.038-.7-1.038s-.586.349-.8,1.046"/></clipPath><linearGradient id="aa" x1="7.169" y1="-2.841" x2="8.089" y2="-2.841" gradientTransform="matrix(0, 130.23, 130.23, 0, 882.947, -338.84)" xlink:href="#i"/><clipPath id="ab"><path class="a" d="M538.265,596.958a3.956,3.956,0,0,1-1.465.562c-.314.038-.581.364-.488.591.206.489,3.333-.329,3.354-.892a.52.52,0,0,0-.559-.593,1.444,1.444,0,0,0-.842.332"/></clipPath><linearGradient id="ac" x1="7.169" y1="-2.848" x2="8.089" y2="-2.848" gradientTransform="matrix(0, 130.23, 130.23, 0, 908.808, -348.314)" xlink:href="#i"/><clipPath id="ad"><path class="a" d="M354.569,785.056c-2.4,1.9-2.534,2.048-2.125,2.76.419.734.4.787-.731,1.508-.883.565-1.743.626-3.548.214a9.65,9.65,0,0,0-3.695-.191c-1.221.343-1.347.5-2.223,2.746-.807,2.068-1.179,2.568-2.509,3.391-1.48.916-1.538.988-1.193,1.806.2.472.56.9.808.942s.65.521.889,1.065c.393.9.316,1.118-.971,2.357a13.337,13.337,0,0,1-3.26,2.179,9.517,9.517,0,0,0-2.887,2.006,4,4,0,0,1-2.812,1.369c-1.289.1-1.852.378-2.139,1.1a4.094,4.094,0,0,1-1.451,1.648c-1.224.754-1.976,3.846-1.322,5.6a1.436,1.436,0,0,0,1.236.984c.468-.028,2.34.128,4.159.306a10.831,10.831,0,0,0,5.084-.609,35.733,35.733,0,0,1,4.523-1.739,22.256,22.256,0,0,0,3.939-1.608,8.12,8.12,0,0,1,3.973-.447,9.924,9.924,0,0,0,3.372-.071,16.672,16.672,0,0,0,2.31-2.534,30.93,30.93,0,0,1,2.827-3.181c1.365-1.215,4.772-8.131,4.839-9.717.06-1.391,1.551-2.772,4.913-4.709a7.133,7.133,0,0,0,2.738-2.366,15.119,15.119,0,0,0,.047-4.472c-.139-1.367-.207-2.04-.341-3.372-.771.049-1.155.072-1.925.119a5.388,5.388,0,0,1-2.838-.536,2.023,2.023,0,0,0-1.163-.282c-2.086,0-5.837,1.6-8.524,3.726"/></clipPath><linearGradient id="ae" x1="2.899" y1="-1.057" x2="3.819" y2="-1.057" gradientTransform="matrix(0, 321.727, 321.727, 0, 687.097, -214.701)" gradientUnits="userSpaceOnUse"><stop offset="0" stop-color="#166927"/><stop offset="0.31" stop-color="#156e27"/><stop offset="0.426" stop-color="#20752b"/><stop offset="0.627" stop-color="#3c8935"/><stop offset="0.888" stop-color="#69a945"/><stop offset="1" stop-color="#7fb84d"/></linearGradient><clipPath id="af"><path class="a" d="M399.876,748.669a2.271,2.271,0,0,0-.2,1.994c.468,1.606.548,1.471-4.273,2.237-2.581.41-3.593.45-3.942-.013-.256-.34-.545-.615-.646-.613a57.676,57.676,0,0,0-5.376,5.581,3.422,3.422,0,0,1-1.839,1.111c-.994.181-1.37.533-2.571,2.475-1.427,2.307-2.521,3.126-1.616,1.208.278-.586.322-1.186.1-1.329-.5-.314-3.551,1.308-3.923,2.083-.32.667.437,2.431,1.033,2.434.233,0,.533.466.67,1.036.246,1.014.214,1.072-1.627,2.492a10.615,10.615,0,0,0-2.539,2.752c-.583,1.156-.492,1.316.778,1.441,1.759.173,1.583.782-.506,1.7a25.182,25.182,0,0,0-3.1,1.7c-1.252.825-1.518,1.173-1.521,2.012,0,1.466.966,1.263,3.109-.687,1.034-.94,1.8-1.479,1.713-1.2a9.649,9.649,0,0,1-1.891,3.331c-1,.973-.584,2.128.474,1.324a5.13,5.13,0,0,1,2.041-.745c1.09-.146,1.376-.4,1.848-1.654.612-1.619.911-1.813,1.269-.825.382,1.052-.21,2.064-2.749,4.587-2.317,2.3-2.4,2.422-2.1,3.491.2.7.654.994,1.224.8a1.042,1.042,0,0,1,1.259.379c.238.464.6.517,1.084.154a7.845,7.845,0,0,1,2.649-.85c1.872-.3,1.908-.272,1.181,1.077a4.575,4.575,0,0,0-.294,3.49c.257,1.164.721,2.149,1.022,2.165.419.02.187.658-1.063,2.831-2.572,4.474-2.769,4.6-6.79,3.97-1.964-.308-3.713-.309-3.971-.007a3.266,3.266,0,0,0-.407,1.873c.051,1.17-.123,1.475-1.472,2.428-2.1,1.484-2.116,3.055.014,1.716,1.97-1.238,2.324-.685,1.217,2.139a5.628,5.628,0,0,1-2.894,3.474,13.721,13.721,0,0,1-3.917,1.481c-2.5.4-3.509,1.157-4.649,3.551-1.258,2.641-.809,3.239,2.043,2.353,2.128-.663,2.392-.616,2.459.535a1.694,1.694,0,0,0,1.552,1.445,1.912,1.912,0,0,1,1.738,2.656c-.135.332-.922.542-1.74.462a7.283,7.283,0,0,0-3.282,1,15.214,15.214,0,0,1-2.814,1.231,4.454,4.454,0,0,0-1.968,1.371c-1.052,1.318-7.839,5.192-8.864,5.036a3.355,3.355,0,0,0-2.675,1.562c-.1.257.35.555.991.661a3.433,3.433,0,0,1,1.744.839c.407.459,1.319.234,3.125-.782,2.744-1.547,6.184-1.6,7.951-.079,1.143.988,4.014-.244,4.566-1.968.7-2.188,4.675-2.837,6.415-.982,1.15,1.225,4.962,1.688,6.052.707.709-.636,1.159-.581,2.748.377,1.788,1.074,2.068,1.094,3.51.009,1.329-1,2.38-.994,5.964-.713a18.413,18.413,0,0,0,9.32-1.262c1.816-.841,3.757-1.821,4.511-2.171a2.823,2.823,0,0,0,1.675-2.471c.289-1.662.151-1.957-1.08-2-2.11-.066-1.429-2.017,1.641-5.321,2.9-3.121,4.471-6.109,4.97-8.924.5-2.794-1.587-4.913-5.648-4.524-2.75.264-2.9.147-2.353-1.01.758-1.61.472-5.934-.55-7.663a2.379,2.379,0,0,1-.225-2.3c.75-1.2-2.259-5.738-3.238-5.831a1.449,1.449,0,0,1-.981-1.033,16.018,16.018,0,0,1,.017-6.474c.264-.928-.041-2.113-.882-3.689-1.012-1.9-1.537-2.351-3.033-2.536-1.9-.234-2.071-.955-.341-1.341a2.218,2.218,0,0,0,1.457-1.333,9.945,9.945,0,0,1,2.626-2.76,18.8,18.8,0,0,0,3.393-3.4,18.674,18.674,0,0,1,2.168-2.591c1.943-1.719,1.334-2.494-3.5-3.36-5.305-.954-5.436-1.446-.936-3.838,1.72-.915,2.768-1.719,3.07-2.383a11.76,11.76,0,0,1,2.181-2.61l1.712-1.591c-.123-.479-.182-.719-.3-1.2-.2-.825-.581-1.256-1.044-1.256a1.389,1.389,0,0,0-.964.545"/></clipPath><linearGradient id="ag" x1="2.899" y1="-1.055" x2="3.819" y2="-1.055" gradientTransform="matrix(0, 321.727, 321.727, 0, 714.817, -224.879)" xlink:href="#ae"/><clipPath id="ah"><path class="a" d="M701.526,872.353c.166-.655.929-1.116,2.078-1.272a3.416,3.416,0,0,0,2.329-1.241,2.264,2.264,0,0,1,1.379-1.113,1.945,1.945,0,0,0,1.252-.764c.239-.369,2.015-1.039,3.817-1.453a11.72,11.72,0,0,0,4.354-1.822c.735-.689,1.288-.874,1.544-.506.533.773-1.389,3.5-2.594,3.616a2.853,2.853,0,0,0-1.665,1.491c-.543,1.011-1.077,1.324-1.978,1.167-1.785-.312-1.527,1.179.486,3.147,1.538,1.5,2.163,3.119,1.317,3.182-.451.047-2.006,4.251-2.217,6.073-.111.957-.479,1.242-1.712,1.3-.875.038-3.117.148-5.106.286a30.234,30.234,0,0,0-6.016,1.077c-2.043.69-2.521.635-4.122-.635-3.726-2.944-5.612-5.732-3.366-5.345.661.119,1.948-.994,3.532-3.109,2.264-3.009,2.6-3.267,4.452-3.175.21.011.4.018.574.018,1.1,0,1.487-.243,1.662-.918m-20.36-310.9c.985.323,1.049,1.259.184,2.171-.68.728-.763,1.04-.4,1.693a4.351,4.351,0,0,1,.423,3.413c-.3.571-.4.543-1.169-.23-.8-.819-.846-.8-1.407.1-.321.525-.9,1.381-1.307,1.932-.92,1.252-.947,1.344.166,2.08,1.159.763,1.259,1.076.314,1.821a2.718,2.718,0,0,0-.866,1.335c-.064.4-.2,1.094-.313,1.545a2.787,2.787,0,0,0,.259,1.693,1.01,1.01,0,0,1-.3,1.462c-1.288.976.525,4.151,2.19,3.449.468-.192.828-.073,1.73.517,1.03.68,1.242.7,1.8.276a2.569,2.569,0,0,1,2.66.092c.265.166.194.506-.184.782a1.089,1.089,0,0,0-.516,1.031c.1.284-1.508,1.977-3.965,4.617a32.714,32.714,0,0,0-3.956,4.711,9.538,9.538,0,0,0,1.527,1.067,5.147,5.147,0,0,0,3.138.837,5.123,5.123,0,0,1,2.934.663,7.076,7.076,0,0,0,6.91-.286,5.056,5.056,0,0,1,3.6-.864,4.9,4.9,0,0,0,1.979.054c.146-.119.67.01,1.186.286,1.508.828-.672,2.042-4.021,2.329a20.222,20.222,0,0,0-9.108,3.173,3.428,3.428,0,0,1-2.936.69c-1.691-.425-2.657.386-1.894,1.61.837,1.352,1.886,2.033,2.392,1.535a1.545,1.545,0,0,1,1.445-.036c1.388.552,1.564.948.414.967-1.3.008-1.574.358-1.048,1.315,1.011,1.812,4.3,2.595,7.534,1.315a2.21,2.21,0,0,1,1.7-.073c.607.414-1.831,2.033-3.736,2.484-1.288.3-5.556-1.4-7.663-2.99-2.42-1.84-4.2-2.733-5.851-2.99-2.8-.441-2.245.506,1.15,1.923,2.714,1.131,3.615,1.933,3.6,3.284-.008.948.249,1.389,1.583,2.715,1.9,1.885,2.613,2.317,3.6,2.169a5.314,5.314,0,0,1,2.08.461,4.48,4.48,0,0,0,1.472.442c.23-.23,5.042.911,5.777,1.343a5.3,5.3,0,0,1,1.287,1.113c.728.911,3.773,2.291,6.551,2.779a27.441,27.441,0,0,1,3.469.818c1.113.4,1.362.332,2.834-.938.892-.782,1.573-1.73,1.435-2.052-.267-.653,2.557-2.539,3.358-2.254.267.1.156.736-.23,1.39-.773,1.324-.847,2.852-.267,3.293a9.3,9.3,0,0,0,4.3.948,20.236,20.236,0,0,1,5.935-.368,4.33,4.33,0,0,1,1.7,1.177c.654.736,1.315,1.048,3.01,1.426,2.1.471,2.179.562,2.5,2.115a2.438,2.438,0,0,0,1.6,2.044c1.224.441,1.1.579-1.389,2.567a10.441,10.441,0,0,1-3.772,2.17,4.7,4.7,0,0,0-1.794.653,2.445,2.445,0,0,1-2.383.332c-.166-.129.092-.579.57-1a3.381,3.381,0,0,1,2.567-.809c1.877-.028,2.935-.718,2.457-1.618-.368-.71-3.294-2.513-5.3-3.277a7.127,7.127,0,0,1-2.262-1.4c-.764-.819-.775-.811-2.982-1.058-2.151-.247-2.234-.294-3.083-1-1.2-1-2.593-1.067-4.626-.313a7.294,7.294,0,0,1-5.65.028c-2.429-.865-6.669-2.244-8.564-2.76a16.668,16.668,0,0,1-3.588-1.611,21.081,21.081,0,0,0-7.673-3.127l-2.161-.368c-1.326-1.076-1.979-1.6-3.267-2.658-4.6-3.791-6.928-5.273-8.012-5.042-2.393.506-3.617.552-3.976.249-.23-.176-.322-.4-.212-.49.479-.385-1.158-1.166-2.65-1.268-2.723-.175-2.943.635-.439,2.429,1.149.818,1.416,1.113,1.517,1.637a7.609,7.609,0,0,0,2.971,3.459c.58.35,2.078,1.482,3.358,2.521,2.622,2.144,3.119,2.715,3.9,5.126.468,1.434.653,1.72,2.226,2.944,1.555,1.2,1.813,1.269,2.622,1.038.847-.24,1.032-.1,3.57,1.426a18.6,18.6,0,0,1,3.064,2.015,6.361,6.361,0,0,0,2.133,1.288c1.62.735,1.84.727,2.632.155a3.671,3.671,0,0,1,3.386-.376,11.743,11.743,0,0,0,5.345.36c.949-.314.994-.286,2.87.653,2.54,1.269,2.816,1.536,1.39,1.5a11.51,11.51,0,0,0-1.988.118,6.655,6.655,0,0,1-1.6.065,48.542,48.542,0,0,0-7.82.737,67.09,67.09,0,0,1-7.112,1.195c-3.4.432-12.392,3.257-12.944,4.186-.194.323-.93.368-1.932.119a8.45,8.45,0,0,0-2.908-.174,14.942,14.942,0,0,1-4.176.046c-2.136-.368-3.155,0-3.588.736a1.09,1.09,0,0,0,.277,1.5c.983.756,5.546.894,7.1.791.644-.045,2.116-.45,2.835-.607,1.1-.239,3.531.082,9.613.736,1.536.167,1.932,1.334.57,2.024-.967.488-.984.672.009,1.279.893.552.966.773.305,1.1-.986.489-3.516.194-3.083-.366.147-.194-.009-.525-.35-.746-1.556-1.021-4.847.009-6.558,2.07a5.99,5.99,0,0,1-1.557,1.417c-.33.147-.441.69-.238,1.195.331.829.212.921-1.114.884-1.416-.037-2.548.515-5.537,2.318-.829.5-1,.874-.616,1.334.449.525.218.754-1.142,1.177-.652.212-.975.3-1.619.5-.8-.625-1.2-.946-2-1.6a9.454,9.454,0,0,0-2.631-1.777c-.35-.054-1.628,1.123-2.788,2.446a10.728,10.728,0,0,1-2.576,2.393c-.266.028-.607.581-.772,1.206a3.662,3.662,0,0,1-1.38,1.8c-.58.359-.957.855-.828,1.113s-.148.515-.625.57c-.9.092-.9.083,1.121,2.843.718.986.286,1.334-2.244,1.7a3.642,3.642,0,0,1-3.01-.552,8.219,8.219,0,0,0-2.345-.947,3.226,3.226,0,0,1-1.38-.506,1.193,1.193,0,0,1,.588-1.868c.332-.028.562-.221.525-.432s.313-.414.792-.452.736-.248.57-.5a6.583,6.583,0,0,0-2.217-1.72,7.065,7.065,0,0,1-1.629-.893c-1.288-.846-1.573-.938-3.919-.8a8.993,8.993,0,0,1-3.882-.368c-2.723-1.178-2.549-.111.248,1.261a10.2,10.2,0,0,1,2.457,1.582,11.965,11.965,0,0,1,2.014,3.873,2.682,2.682,0,0,0,2.42,2,3.8,3.8,0,0,1,3.238,3.708c-.018.717-.147.782-2.2.625a24.678,24.678,0,0,1-3.081-.395c-1.51-.377-2.173-.093-2.826,1.25a5.052,5.052,0,0,1-1.867,1.942c-1.224.644-4.306,3.873-4.324,4.6,0,.451,3.082,2.245,5,2.936,2.3.827,2.216,1.591-.359,1.885-3.817.442-11.151.506-13.809.009-3.284-.607-3.873-.414-5.363,1.618-.5.673-.746,1.013-1.242,1.694.662.267.993.4,1.656.672,2.778,1.13,4.866,1.335,6.329.7,1.508-.661,3.064-.119,3.441,1.159.276.93-1.785,2.6-2.788,2.228a11.222,11.222,0,0,0-3.339.109,9.248,9.248,0,0,1-3.533-.045,10.662,10.662,0,0,0-6.136-.58c-1.583.406-1.851.286-2.936-1.215a9.526,9.526,0,0,0-2.558-2.4c-1.406-.772-1.923-2-1.176-2.659.679-.606.2-2.291-.747-2.75a10.331,10.331,0,0,0-4.755-1.114,2.022,2.022,0,0,1-1.528-.385,4.336,4.336,0,0,0-1.775-.774c-.808-.138-.993-.351-.69-.774s1.048-.56,2.779-.522c1.307.026,3.367.009,4.581-.038a8.985,8.985,0,0,1,2.843.23,24.512,24.512,0,0,0,5.9-.5,43.267,43.267,0,0,1,7.4-.68c2.209.229,4.95-.544,9.559-2.457,3.008-1.26,3.79-1.9,4.747-3.864.81-1.656.469-2.5-1.279-3.873A6.18,6.18,0,0,1,623.51,668a5.232,5.232,0,0,0-3.2-1.408,8.918,8.918,0,0,1-2.07-.47,13.224,13.224,0,0,0-3.605-.45,7.088,7.088,0,0,1-2.677-.368,3.144,3.144,0,0,0-1.757-.276,4.3,4.3,0,0,1-2.163-.452,4.078,4.078,0,0,0-2.1-.459,6.52,6.52,0,0,1-2.513-.377,13.344,13.344,0,0,0-3.393-.562,5.445,5.445,0,0,1-2.467-.541c-.524-.36-2.778-.314-6.734-.02a32.112,32.112,0,0,1-6.873.009,4.55,4.55,0,0,0-1.767-.285c-.551.074-.818-.248-.919-1.122-.12-1.067-.387-1.261-1.94-1.371a6.547,6.547,0,0,1-2.642-.736c-.709-.506-.957-.405-1.637.662-.746,1.178-1,1.261-3.616.976a16.74,16.74,0,0,0-3.7-.092.915.915,0,0,1-1.123-.47c-.13-.4.1-.708.552-.736a1.715,1.715,0,0,0,1.2-.939,2.031,2.031,0,0,1,1.527-.956c3.083-.221.267-3.137-3.56-3.873a7.853,7.853,0,0,1-3.146-1.122,2.159,2.159,0,0,0-1.813-.368,1.987,1.987,0,0,1-2.226-1.057c-.719-1.059-1.27-1.27-2.88-1.077-2.281.266-2.623.689-2.779,3.265-.145,2.282-1.2,2.548-1.388.35-.23-2.668-.709-2.751-2.484-.331-2.089,2.842-3.147,3.091-1.445.358a6.342,6.342,0,0,0,1.113-2.695c-.165-.929-2.869-1.2-3.394-.322a2.243,2.243,0,0,1-1.676.727,2.658,2.658,0,0,0-2.179,1.637c-.746,1.316-1.123,1.518-2.171,1.225a3.845,3.845,0,0,1-1.713-.949c-.3-.394-1.076-.23-2.335.488a8.96,8.96,0,0,1-2.641,1.095.9.9,0,0,0-.791.91c-.009.617.515.911,1.766.994,3.036.2,1.639,1.343-1.49,1.224-2.8-.1-2.907-.045-3.321,1.463-.23.846-.618,1.536-.865,1.545s-.644.423-.883.9c-.561,1.122-1.077,1.139-1.113.036a.817.817,0,0,1,.717-.883c.874-.036.975-1.666.138-2.134-.359-.2-1.076.5-1.886,1.84-1.436,2.4-2.788,2.953-2.456,1.039.164-1.03.026-1.15-1.416-1.076a2.345,2.345,0,0,0-2.227,1.241c-.333.636-.884,1.16-1.224,1.179a1.6,1.6,0,0,0-1.039.864,2.1,2.1,0,0,1-1.638.828,4.661,4.661,0,0,0-2.283.763,1.928,1.928,0,0,0-.882,2.273c.2,1.215.359,1.354,1.417,1.252.966-.092,1.205.064,1.186.782a1.49,1.49,0,0,1-2.641.92,2.9,2.9,0,0,0-1.839-.873c-1.039-.02-1.077-.083-.984-1.5.129-1.859-.341-1.925-1.592-.278-.589.775-1.142,1.087-1.555.912-.368-.157-.625-.046-.615.257s-.423.856-.976,1.233c-1.168.828-1,1.647.414,1.675.562.009,1.049.239,1.068.5s-.506.451-1.159.433-1.225.193-1.309.451-.579.33-1.1.165a1.144,1.144,0,0,0-1.4,1.564c.249.617,3.22.212,4.269-.607,1.021-.782,4.13-.708,4.039.11a.7.7,0,0,1-.756.552,1.636,1.636,0,0,0-1.195.709,2.394,2.394,0,0,1-1.131.875c-.34.072-.644.662-.7,1.351-.156,1.747-1.15,3.855-1.8,3.855-1,0-3.928,3.018-4.085,4.159a13.576,13.576,0,0,1-2.41,5.289,8.868,8.868,0,0,0-1.279,2.475,1.749,1.749,0,0,1-1.306,1.4c-1.573.4-2.485,1.435-2.328,2.686.12.984.037,1.059-.855.773-1.767-.543-3.561.516-7.149,3.947-1.371,1.315-2.079,1.979-3.551,3.339-.589-.221-.883-.331-1.454-.543a2.319,2.319,0,0,0-2.76.333c-.993.633-1.3,1.011-1.085,1.379a1.166,1.166,0,0,1-.874,1.784,5.5,5.5,0,0,0-2.024.884,3.844,3.844,0,0,1-2.576.69,2.815,2.815,0,0,0-3.193,1.674c-.276.661-.792.966-2.024,1.178a5.807,5.807,0,0,0-2.474,1.076,3.622,3.622,0,0,1-1.692.874,6.987,6.987,0,0,0-2.421,1.225A7.539,7.539,0,0,1,456,718.132c-.542.055-.975.46-1.38,1.306a10.2,10.2,0,0,1-1.7,2.356c-.783.792-1.076,1.314-.975,1.757a1.6,1.6,0,0,1-.607,1.38c-1.1,1.095-3.395,7-2.99,8.306a4.41,4.41,0,0,1-.175,2.439c-.368.929-.267,1.38.368,1.537,1.15.3.442,3.864-1.076,5.178a3.975,3.975,0,0,0-1.233,2.531c-.166,1.482,0,1.584,1.979,1.39,1.683-.166,2.086,0,1.83.745a2.821,2.821,0,0,1-1.647,1.4c-1,.332-1.444.884-1.831,2.3-.414,1.527-.23,2.153,1.086,3.6a5.164,5.164,0,0,0,2.4,1.729,1.7,1.7,0,0,1,1.279.653c1.214,1.712,6.835,2.853,7.755,1.51a3.038,3.038,0,0,1,2.052-.626c1.536-.018,3.119-1.094,11.068-7.424a5.684,5.684,0,0,1,2.669-1.288c1.645.028,4.5-1.2,5-2.19,1.334-2.622,4.426,3.975,3.322,7.1a5.6,5.6,0,0,0,.23,2.945c2.272,6.735,2.622,8.188,2.484,8.786-.286,1.234.791,4.462,1.637,4.913a4.829,4.829,0,0,1,1.492,2.364c.265.773.394,1.159.652,1.932-.69.811-1.04,1.214-1.722,2.033a5.4,5.4,0,0,1-3.329,2.2c-4.49.478-5.4.792-6.219,1.8a2.612,2.612,0,0,1-1.822,1.021c-1.223-.109-1.812.792-1.15,1.767a4.99,4.99,0,0,1,.515,2.318,2.465,2.465,0,0,0,.828,2.007,3.547,3.547,0,0,1,1.279,1.573c.387.983.3,1.039-.855.506a1.928,1.928,0,0,0-2.4.4c-2.327,2.1-1.757,2.944,2.816,4.011,1.84.432,2.364.331,2.99-.635a3.138,3.138,0,0,0,.588-1.812c-.194-.791,1.353-3.249,2.448-3.837a2.283,2.283,0,0,0,.837-2.014c.037-1.3.23-1.555,1.122-1.454a1.155,1.155,0,0,0,1.316-.873c.129-.554.5-.847.819-.653s.4,1.141.156,2.133c-.534,2.217.515,2.861,5.253,3.036,4.067.146,5.539-.635,5.042-2.962-.433-2.043.331-2.944,2.318-2.659a3.8,3.8,0,0,0,2.309-.313c.413-.295,2.483-.3,4.675.009,3.909.562,4.065.551,5.565-1.306,1.673-2.087,2.861-2.328,2.41-.5-.4,1.6.654,2.411,1.426,1.133a16.7,16.7,0,0,1,1.471-1.97,4.71,4.71,0,0,0,1-1.61,6.229,6.229,0,0,1,1.786-1.941,5.585,5.585,0,0,0,1.877-2.384c.414-1.9-1.619-1.655-3.118.4-1.84,2.519-2.715,1.757-1.2-1.058a61.115,61.115,0,0,0,2.686-6.293c2.989-8.17,2.484-7.71,5.806-8.354a12.914,12.914,0,0,0,2.51-.883c1.124.23,4.39-2.972,4.214-4.076-.2-1.242.5-3.229,1.086-3.137.91.147.451-2.143-.837-4.94-1.481-3.239-2.768-5.529-3.551-5.795-1.159-.388-2.264-3.148-2.475-7.426-.119-2.4-.064-3.864.239-3.762.276.1.424-.626.313-1.592-.248-2.088.607-5.4,1.123-5.713a1.387,1.387,0,0,0,.257-1.124,1.379,1.379,0,0,1,.5-1.268,2.561,2.561,0,0,0,.69-1.776c.046-.929.321-1.435.874-1.564a1.161,1.161,0,0,0,.864-.947.636.636,0,0,1,.682-.655c.358.038.91-.394,1.231-.965a1.8,1.8,0,0,1,1.281-1c.809.037,1.536-1.206,1.959-3.313a4.54,4.54,0,0,1,.974-2.079c.728-.625.673-2.539-.074-2.53-.827,0-1.222-2.327-.5-3.671a6.617,6.617,0,0,0,.626-1.968c.175-.865.626-1.638.92-1.638.266-.009.561-.452.663-.983.165-.857.607-.968,3.9-1.216,2.576-.192,4.149-.127,4.951.3.634.339,1.647.818,2.244,1.076.92.375,1.094.689,1.159,2.088.064,1.177-.112,1.738-.6,1.932-.387.156-1.849,2.235-3.183,4.673s-2.66,4.481-3,4.516c-.753.066-2.585,3.7-2.447,4.842.064.6-.257.854-1.112.882-1.133.018-1.225.165-1.675,2.917-.562,3.376-.552,4.194.147,5.243a6.611,6.611,0,0,1,.644,2.622,9.928,9.928,0,0,0,.6,2.908c.644,1.344.882,5.851.385,7.653a5.339,5.339,0,0,0,.25,4.086c1.113,3.063,1.406,3.422,2.916,3.393a2.653,2.653,0,0,1,2.474,2.772,1.27,1.27,0,0,0,.637,1.259,14.532,14.532,0,0,1,1.82,1.2c.883.673,1.333.69,1.987.1a9.413,9.413,0,0,1,3.082-1.37,4.545,4.545,0,0,0,2.521-1.38,1.359,1.359,0,0,1,.92-.847,2.77,2.77,0,0,0,1.362-1.306,1.744,1.744,0,0,1,1.886-1,2,2,0,0,0,1.785-.608c.8-1.15,4.894-3.395,5.759-3.128a5.9,5.9,0,0,0,2.916-1.077c1.757-1.058,2.382-1.2,2.944-.608,1.555,1.6,5.014,2.734,6.173,2.016,1.224-.764,2.668-.681,2.917.175.083.294-.791.966-1.923,1.49s-2.6,1.27-3.275,1.666-1.83,1.068-2.558,1.491c-1.03.588-1.214,1.019-.828,1.857,1.141,2.457.451,2.917-4.186,2.862-2.4-.028-5.133-.2-6.136-.341-1.307-.193-1.951-.018-2.32.634a6.524,6.524,0,0,1-2.878,1.729,9.884,9.884,0,0,0-4.49,3.186,3.319,3.319,0,0,1-.993.753l-5,2.4c-1.142.5-1.3,1.262-.341,1.775a2.382,2.382,0,0,1,.763,1.592A1.338,1.338,0,0,1,550,762.55a1.832,1.832,0,0,0-.5,2.971,2.757,2.757,0,0,1,.535,1.546c.147,1.536,1.223,1.49,1.609-.083a1.523,1.523,0,0,1,1.436-1.288,1.823,1.823,0,0,0,1.509-1.012c.211-.524.615-.965.92-.994l1.131-.4a1.565,1.565,0,0,1,1.583.331c1.343,1.224,2.925,1.288,3.413.414.3-.535.662.929,1.4,5.392.377,2.28.562,3.423.92,5.7-.524.5-.791.745-1.315,1.233-1.629,1.509-3.625.874-4.554-1.4a6.257,6.257,0,0,0-2.144-2.42,13.426,13.426,0,0,1-2.291-1.785c-.671-.727-.966-.691-2.281.212-3.275,2.217-3.551,2.4-3.6,4.213a7.02,7.02,0,0,1-.911,3.082c-.764,1.149-.837,1.794-.479,5.65.221,2.391.6,5.666.847,7.275.348,2.374.294,3.028-.378,3.45a1.673,1.673,0,0,0-.818,1.188c.009.36.441.229.948-.293,1.068-1.125,1.6-.71,1.7,1.259.046,1.1-.22,1.4-1.269,1.362a1.956,1.956,0,0,1-1.693-1,.836.836,0,0,0-1.187-.589,9.01,9.01,0,0,1-2.723.359c-1.618-.009-1.923.212-2.208,1.7-.387,2.089-2.539,3.755-5.308,4-2.116.185-4.49-1.04-2.981-1.536,1.279-.433.929-1.269-.92-2.448-2.32-1.481-9.312-1.445-13.452-.2a15.612,15.612,0,0,1-3.605.782,4.415,4.415,0,0,0-2.226.974,4.834,4.834,0,0,1-2.926.912c-1.417-.175-5.824.36-11.2,1.61-3.487.81-5.106-.442-6.008-4.526-.736-3.34-2.383-4.389-3.459-2.2-.58,1.177-.939,1.279-2.65.764-1.591-.47-2.327-.313-3.836.809a9.6,9.6,0,0,1-3.424,1.656,4.182,4.182,0,0,0-2.262,1.113c-1,1.224-1.8-.285-1.372-2.613s-.219-3.063-1.526-1.821c-.892.856-1.159.837-2.419-.12-2.015-1.527-2.678-3.212-2.024-5.29.625-1.959,1.508-2.107,3.256-.514,1.529,1.388,2.034.974,2.622-2.054.617-3.2-.34-5.114-2.64-5.29-1.8-.147-2.015-.781-.616-1.939a3.855,3.855,0,0,0,1.1-1.887c.165-.874.579-1.141,1.674-1.058a2.324,2.324,0,0,0,2.272-1.141c1.049-1.6.911-3.036-.312-3.117-.525-.038-1.178-.793-1.463-1.667-.469-1.48-.423-1.729.745-3.55a15.964,15.964,0,0,0,1.8-4.316c.46-2.1.4-2.327-.589-2.014-.616.194-1.757.461-2.539.607a7.806,7.806,0,0,0-3.174,2,5.944,5.944,0,0,1-2.53,1.711,17.029,17.029,0,0,0-6.679,2.7,4.242,4.242,0,0,0-1.214,2.006,2.389,2.389,0,0,1-.727,1.435c-1.4.891-.975,4.968,1.067,5.722.074.4.055.3.12.7-.516.424-.782.635-1.307,1.058-1.637,1.334-1.693,3.22-.147,3.791.92.349,1.1.865.948,2.686-.157,1.932-.332,2.291-1.261,2.4-1.371.165-2.015,1.639-.754,1.73,1.076.074,2.447,3.487,1.545,3.809-.809.285-.966,2.336-.276,3.358.792,1.159.543,2.678-.414,2.595a4.118,4.118,0,0,0-2.171,1.48c-1.242,1.38-1.453,1.445-1.877.5-.311-.69-1.269-1.131-2.741-1.26-1.831-.157-4.14-1.123-5.235-.342-1,.71-.5,1.437-4.3,1.547-4.867.138-5.336,2.208-6.431,4.132-.56.983-.571,1.812-.037,3.521.662,2.081.644,2.32-.34,3.056-1.528,1.131-1.785.947-1.575-1.141a2.7,2.7,0,0,0-1.13-2.778c-1.895-1.326-2.761-.828-3.984,2.5-1.656,4.49-12.144,14.177-15.519,14.932a15.674,15.674,0,0,0-3.6,1.536,22.85,22.85,0,0,1-4.427,1.812c-3.108.92-3.761,1.62-4.148,4.518-.644,4.748-2.558,7.755-7.056,8.427-3.763.57-6.652,1.794-6.771,3.569-.149,2.19-1.16,2.42-5.41,1.38-3.284-.8-4.517-1.195-4.885-2.549-.341-1.27-.874-1.609-2.935-1.876-3.192-.395-4.214,1.087-2.539,3.929a5.63,5.63,0,0,1,.727,4.268c-.176.93-.258,1.4-.425,2.319-2-.286-2.99-.423-4.93-.69-3.919-.533-5.031-.911-6.035-2.007a5.481,5.481,0,0,0-6.136-.965,7.977,7.977,0,0,1-3.763.35c-3.984-.413-5.87.184-6.192,1.913a2.407,2.407,0,0,0,.249,1.886,2.494,2.494,0,0,1,.276,1.851c-.258,1.553,1.058,2.814,3.3,3.108,1.8.249,6.9,3.156,6.818,3.91-.037.3,1.076.708,2.5.912,1.693.238,2.576.625,2.53,1.131-.037.423.781,1.481,1.857,2.373,1.409,1.158,1.832,1.9,1.473,2.668-.644,1.343,2.926,6.044,5.373,6.946,2.6.957,2.9,2.99,1.721,9.421-1.38,7.572-6.183,20.672-16.321,18.768-7.351-1.38-11.252-2.051-11.914-2.769-.479-.525-1.684-.772-3.413-.681-5.106.275-10.867.11-11.372-.469-1-1.159-3.965-1.721-10.506-2-5.16-.22-6.733-.5-7.314-1.243-.874-1.112-4.361-1.553-6.32-.781a7.644,7.644,0,0,0-2.494,1.932,3.675,3.675,0,0,1-2.18,1.391c-2.723-.038-3.579.1-5.382.882a10.069,10.069,0,0,0-2.659,1.6c-.616.653-1.61,3.873-1.877,5.693a456.794,456.794,0,0,0,84.962,33.654,3.042,3.042,0,0,0,2.264-2.283c.46-1.636,1.268-1.949,4.379-2.288a45.536,45.536,0,0,1,6.182-.259,8.533,8.533,0,0,0,4.2-.92,29.747,29.747,0,0,1,5.17-2.124,19,19,0,0,0,4.379-1.86c1.776-1.444,3.5-5.344,3.229-7.533a11.971,11.971,0,0,1,.23-3.839c.516-1.894,3.027-4.387,4.324-4.176a6.843,6.843,0,0,0,2.825-.956c1.978-1.058,1.71-1.123,5.363.441a29.685,29.685,0,0,0,6.072,1.923,4.762,4.762,0,0,1,3.01,1.389,3.254,3.254,0,0,0,2.142,1.271,3.266,3.266,0,0,1,2.024.992c.368.506,1.767.782,3.736.709,2.438-.092,3.827-.682,6.366-2.752a17.117,17.117,0,0,1,3.717-2.612,2.257,2.257,0,0,0,1.371-.9,3.073,3.073,0,0,1,2.3-.82c1.186.083,2.254-.671,4.5-3.358,1.859-2.236,3.046-3.34,3.515-3.11a17.734,17.734,0,0,1,4.885,3.266,3.546,3.546,0,0,0,1.766,1.15c.957.009,1.739,1.27,1.638,2.705a13.853,13.853,0,0,0,.627,3.56,12.6,12.6,0,0,1,.5,4.048,5.134,5.134,0,0,0,2.54,4.821,2.219,2.219,0,0,1,1.1,1.721c.064.7.5,1.269.984,1.26s2.337,2.484,4.471,5.5a36.67,36.67,0,0,0,4.645,5.648,4.223,4.223,0,0,1,1.437,1.187,5.257,5.257,0,0,0,3.91,1.169c2.456-.046,3.128.285,5.162,2.594,1.3,1.463,2.9,2.686,3.467,2.677a2.663,2.663,0,0,1,1.859,1.417,4.288,4.288,0,0,0,3.312,1.656c2.208.193,2.576.506,2.99,2.732.285,1.517,1.039,2.714,1.885,2.99a8.522,8.522,0,0,1,1,.424q10.628-.069,21.125-.635c.763-1.813,1.986-3.312,3.174-3.663a8.283,8.283,0,0,1,4.388.9,14.835,14.835,0,0,0,4.3,1.389,4.376,4.376,0,0,1,1.712.468c2.795-.238,5.593-.486,8.372-.762-1.454-1.923-4.987-4.757-6.21-4.858a61.335,61.335,0,0,1-6.054-2.7,126.054,126.054,0,0,0-12.963-5.106c-10.147-3.3-10.23-3.652-7.72-5.06,1.17-.662,1.877-1.656,1.694-2.419-.285-1.169-1.187-1.3-6.743-1.1-6.083.22-6.174.184-9.78-2.346-2.015-1.409-4.241-2.9-5.06-3.312s-1.426-1.114-1.4-1.555a7.446,7.446,0,0,0-.755-2.513,16.515,16.515,0,0,1-1.1-3.541c-.479-2.741-2.476-5.851-3.643-5.879-.57-.01-2.567-1.343-4.333-2.952-3.653-3.322-4.608-6.33-3.424-9.173.553-1.308.507-1.794-.265-3.3-1.169-2.254-1.2-3.119-.083-3.128a10.394,10.394,0,0,0,3.266-1.564,9.87,9.87,0,0,1,4.131-1.564c1.683-.009,2.355.773,1.26,1.528-.994.689-.4,4.6,1.012,6.476,1.628,2.17,2.134,2.226,3.542.4.423-.561.644-.836,1.076-1.389.295.645.442.975.727,1.619,1.04,2.327,2.182,2.759,2.089.808-.065-1.323.174-1.581,1.426-1.426,1.223.157,1.527.526,1.435,1.906a5.29,5.29,0,0,0,1.582,3.579c3.625,3.956,7.894,7.387,8.932,7.387a3.121,3.121,0,0,1,2.035,1.269,4.145,4.145,0,0,0,3.44,1.281c2.235.017,2.641.276,2.944,2.087.267,1.6.81,2.124,2.5,2.309a7.12,7.12,0,0,0,3.513-.506c1.049-.589,1.306-.525,1.334.321a1.617,1.617,0,0,1-1.334,1.4c-2.852.708-1.132,1.49,3.321,1.591a27.793,27.793,0,0,1,10.165,2.29,33.081,33.081,0,0,1,5.889,2.761,20.789,20.789,0,0,0,4.086,2.163c1.977.882,3.788,2.17,4.066,2.851a6.466,6.466,0,0,0,2.759,2.337c.893.441,1.333.653,2.218,1.1.027,2.371.064,3.587.165,6.071.138,3.405.055,6.946-.294,7.728a3.767,3.767,0,0,0,.3,3.045,456.29,456.29,0,0,0,77-16.2,12.453,12.453,0,0,1-2.015-2.916,14.546,14.546,0,0,0-3.422-3.928c-2.576-1.959-2.8-2.722-1.334-3.984a2.957,2.957,0,0,0,.818-2.557c-.386-2.356.894-5.732,2.006-5.447,1.206.313,2.751-1.766,2.134-2.889a17.546,17.546,0,0,1-.33-5.116c.2-4.662,2.07-7.9,4.646-8.28,2.125-.3,2.871-1.885,2.75-5.7-.11-3.182.055-3.595,2.557-6.071a24.651,24.651,0,0,0,4.224-5.915c.836-1.785,2.153-3.542,2.925-3.9,1.509-.7,6.063-.092,7.6,1.012a3.21,3.21,0,0,0,2.254.395,4.724,4.724,0,0,1,2.861.643c1.251.764,2.088.737,4.618-.173,4.251-1.546,10.645-2.383,10.737-1.316.035.47-1.316,1.455-3,2.217-3.284,1.481-7.5,5.263-7.379,6.587.038.47,1.022.58,2.457.24a16.862,16.862,0,0,1,4.913-.294c1.38.156,3.258.238,4.1.238,1.214,0,1.527.562,1.647,2.788.257,4.986,5.814,4.967,10.358.378,1.61-1.621,3.312-2.77,4.389-2.954a5.053,5.053,0,0,0,2.981-2c1.1-1.555,1.618-1.748,4.838-1.85,2.328-.082,3.478-.322,3.662-.8.58-1.563,3.138-1.076,5.585,1.179,1.5,1.38,2.832,2.234,3.533,2.2a5.089,5.089,0,0,1,2.777,1.674,5.139,5.139,0,0,0,2.64,1.7,2.107,2.107,0,0,1,1.593.882,9.05,9.05,0,0,0,1.877,1.794,20.028,20.028,0,0,1,2.548,2.622A462.027,462.027,0,0,0,914.69,699.335q-5.039-4.854-10.194-9.585c-.855-.791-1.72-1.573-2.585-2.354s-1.72-1.573-2.594-2.347q-1.035-.939-2.07-1.849c-1.979-1.767-3.965-3.5-5.962-5.234-1.6-1.4-3.221-2.78-4.839-4.15q-4.334-3.674-8.741-7.268c-.781-.635-1.573-1.279-2.363-1.913q-4.086-3.3-8.234-6.533c-.919-.718-1.85-1.435-2.77-2.145s-1.858-1.415-2.787-2.124q-1.629-1.242-3.257-2.464c-1.711-1.289-3.433-2.559-5.161-3.829-.948-.69-1.886-1.38-2.834-2.06s-1.895-1.372-2.852-2.051q-5.7-4.072-11.508-8.023c-.838-.571-1.675-1.141-2.522-1.7-.772-.525-1.545-1.039-2.319-1.564-1.077-.718-2.153-1.426-3.238-2.135-2.18-1.435-4.379-2.852-6.578-4.26l-2.428-1.545c-.617-.385-1.233-.773-1.859-1.167-.809-.507-1.619-1.013-2.429-1.51q-2.417-1.5-4.857-2.982c-1.123-.68-2.253-1.361-3.386-2.032-.578-.35-1.167-.7-1.757-1.049-2.438-1.444-4.885-2.88-7.351-4.287q-1.532-.884-3.063-1.748c-1-.571-2.015-1.141-3.027-1.7q-1.31-.732-2.622-1.455l-.5-.275c-1.031-.57-2.061-1.131-3.1-1.693-2.06-1.121-4.14-2.235-6.219-3.33-1.039-.552-2.079-1.1-3.129-1.639q-3.119-1.626-6.282-3.219c-1-.506-2.007-1.012-3.009-1.508a2.81,2.81,0,0,0-.258-.128c-1.019-.507-2.042-1.013-3.063-1.51q-6.4-3.147-12.907-6.136c-1.031-.479-2.061-.957-3.092-1.417-1.49-.681-2.99-1.361-4.5-2.024-.654-.295-1.316-.58-1.978-.874q-5.121-2.25-10.305-4.416c-.919-.377-1.839-.764-2.759-1.141-1.095-.451-2.19-.9-3.295-1.342q-4.924-2-9.927-3.91c-.965-.378-1.922-.737-2.888-1.105-.855-.322-1.72-.653-2.585-.965q-2.042-.76-4.094-1.51c-1.362-.5-2.723-.994-4.094-1.472s-2.741-.975-4.121-1.454-2.751-.947-4.131-1.415c-1.113-.379-2.236-.756-3.358-1.134-1.859-.615-3.726-1.232-5.6-1.83q-1.752-.566-3.5-1.112c.386,1.019.855,1.581,1.361,1.747m82.34-81.466c.24-.018.48-.028.709-.037-.078,0-.157-.009-.233-.009a2.365,2.365,0,0,0-.476.046"/></clipPath><linearGradient id="ai" x1="2.354" y1="-0.917" x2="3.274" y2="-0.917" gradientTransform="matrix(0, 392.574, 392.574, 0, 961.772, -350.22)" gradientUnits="userSpaceOnUse"><stop offset="0" stop-color="#d2edd7"/><stop offset="0.05" stop-color="#d2edd7"/><stop offset="0.118" stop-color="#a6cfae"/><stop offset="0.299" stop-color="#338143"/><stop offset="0.339" stop-color="#287c39"/><stop offset="0.411" stop-color="#17752a"/><stop offset="0.5" stop-color="#1e742a"/><stop offset="0.835" stop-color="#5ea141"/><stop offset="1" stop-color="#7fb84d"/></linearGradient><clipPath id="aj"><path class="a" d="M456.015,926.391a5.962,5.962,0,0,1-2.6,2.623c-2.824,1.4-3.744,3.441-3.965,8.722-.147,3.395.176,4.609,1.03,5.115,1.537.929,1.086,2.585-1.481,5.419-1.866,2.07-2.475,2.4-3.936,2.006-1.631-.442-1.777-.368-2,1.683-.13,1.2.009,2.208.285,2.217.378.019.865,1.206,1.2,2.512q5.231.635,10.516,1.141c.331-6.983.129-9.375-1.417-11.473-1.352-1.84-1.343-1.895-.184-4.011a17.967,17.967,0,0,0,1.518-3.752,5.277,5.277,0,0,1,1.279-2.43c1.03-.948,1.546-2.769,1.067-3.726a13.589,13.589,0,0,1,.129-3.91c.282-2.281.085-3.556-.375-3.556-.275,0-.644.454-1.06,1.42"/></clipPath><linearGradient id="ak" x1="4.416" y1="-1.644" x2="5.336" y2="-1.644" gradientTransform="matrix(0, 209.567, 209.567, 0, 794.83, -151.722)" xlink:href="#ae"/><clipPath id="al"><path class="a" d="M711.757,542.33c-1.288,2.152-1.437,2.671-.982,3.585.3.593.594,1.042.65,1s.877-.8,1.843-1.725c2.5-2.4,3.416-4.376,2.537-5.278a1.453,1.453,0,0,0-1.039-.511c-.868,0-1.841.975-3.009,2.928"/></clipPath><linearGradient id="am" x1="2.899" y1="-1.173" x2="3.819" y2="-1.173" gradientTransform="matrix(0, 321.727, 321.727, 0, 1090.758, -357.179)" xlink:href="#ae"/><clipPath id="an"><path class="a" d="M337.084,660.731c-.293.412-.6.458-.75.118-.165-.377-.577-.119-1.229.74a12.507,12.507,0,0,1-1.6,1.768c-.969.755-.647,1.579,1.567,3.167a6.481,6.481,0,0,1,2.064,2.031c.172,1.955-2.214,1.931-4.411.4-.447-.313-.728-.224-.846.231-.141.545.083.951,1.284,2.119a4.792,4.792,0,0,1,1.922,3.526,10.192,10.192,0,0,1,.191,2.578,1.108,1.108,0,0,1-1.9.534c-.769-.619-1.517-.274-1.563.646-.019.353.89,1.462,2.38,2.859,2.094,1.963,2.9,2.92,3.419,4.543a8.048,8.048,0,0,0,1.423,2.726,6.176,6.176,0,0,1,1.164,1.577c.865,1.936,4.382,3.418,5.743,2.5a3.733,3.733,0,0,1,2.305.11,7.747,7.747,0,0,0,3.806-.2,10.6,10.6,0,0,1,4.071-.411,4.236,4.236,0,0,0,3.613-.9,5.219,5.219,0,0,1,2.038-1.053,5.272,5.272,0,0,0,2.043-1.1c1.53-1.123,1.685-1.327,1.909-3.042.2-1.571.049-2.064-1.063-3.425-1.352-1.656-2.021-3.971-1.367-4.857.288-.389-.008-.552-1.212-.71-1.391-.182-1.629-.391-2.166-1.767-.788-2.031-1.313-2.2-2.684-.791-1,1.024-1.253,1.071-2.229.3-.865-.681-1.161-.723-1.386-.15-.316.808-1.326.526-1.532-.437-.181-.851-1.671-1.589-2.163-1.078-.318.33-.47.24-.688-.4a2.687,2.687,0,0,0-.894-1.218c-.826-.527-2.57-.291-2.81.405-.138.4-.313.111-.592-1-.674-2.7-1.457-2.683-1.743.082-.136,1.321-.289,1.332-.943,0-.218-.443-.571-.463-.947-.059-.729.788-1.1-.4-.562-1.683a3.22,3.22,0,0,0-.033-3.057,5.143,5.143,0,0,1-.485-1.45,13.153,13.153,0,0,0-.817-2.543c-.593-1.518-1.059-2.224-1.532-2.224-.258,0-.517.209-.8.608"/></clipPath><linearGradient id="ao" x1="6.057" y1="-3.476" x2="6.977" y2="-3.476" gradientTransform="matrix(0, 142.837, 142.837, 0, 845.35, -212.331)" gradientUnits="userSpaceOnUse"><stop offset="0" stop-color="#136223"/><stop offset="1" stop-color="#c0edcc"/></linearGradient><clipPath id="ap"><path class="a" d="M40,500A458.247,458.247,0,0,0,85.31,699.335a598.025,598.025,0,0,1,829.38,0A458.261,458.261,0,0,0,960,500C960,245.951,754.049,40,500,40S40,245.951,40,500"/></clipPath><linearGradient id="aq" x1="1.468" y1="-0.017" x2="2.388" y2="-0.017" gradientTransform="matrix(0, 716.67, 716.67, 0, 512, -1012)" gradientUnits="userSpaceOnUse"><stop offset="0" stop-color="#142d6d"/><stop offset="1" stop-color="#2dc386"/></linearGradient><clipPath id="ar"><rect class="a" x="28.96" y="28.96" width="942.08" height="942.08"/></clipPath></defs><title>Logo - Favicon</title><circle class="b" cx="500" cy="500" r="500"/><g class="c"><g class="d"><rect class="e" x="85.31" y="532.2" width="829.38" height="427.8"/></g><g class="f"><rect class="g" x="244.526" y="510.919" width="141.046" height="210.785" transform="translate(-351.716 802.107) rotate(-78.495)"/></g><g class="h"><rect class="i" x="385.671" y="605.448" width="11.117" height="6.456" transform="translate(-177.581 161.46) rotate(-19.093)"/></g><g class="j"><rect class="k" x="573.333" y="577.841" width="21.786" height="16.355" transform="translate(-170.076 245.775) rotate(-20.809)"/></g><g class="l"><rect class="m" x="574.548" y="588.986" width="4.477" height="3.22" transform="translate(-172.189 243.434) rotate(-20.809)"/></g><g class="n"><rect class="o" x="587.715" y="578.937" width="3.824" height="2.775" transform="translate(-167.706 247.333) rotate(-20.81)"/></g><g class="p"><rect class="q" x="609.861" y="591.285" width="52.029" height="59.679" transform="translate(-179.18 266.416) rotate(-20.809)"/></g><g class="r"><rect class="s" x="590.998" y="588.485" width="2.377" height="1.675" transform="translate(-170.725 248.805) rotate(-20.808)"/></g><g class="t"><rect class="u" x="592.798" y="580.328" width="6.106" height="5.192" transform="translate(-168.219 249.704) rotate(-20.809)"/></g><g class="v"><rect class="w" x="572.106" y="591.145" width="2.613" height="2.006" transform="translate(-172.96 242.335) rotate(-20.809)"/></g><g class="x"><rect class="y" x="558.524" y="589.095" width="4.841" height="3.436" transform="translate(-173.298 237.816) rotate(-20.809)"/></g><g class="z"><rect class="aa" x="562.117" y="586.666" width="9.851" height="7.973" transform="translate(-172.843 239.973) rotate(-20.809)"/></g><g class="ab"><rect class="ac" x="494.532" y="591.898" width="36.97" height="30.315" transform="translate(-182.195 221.851) rotate(-20.809)"/></g><g class="ad"><rect class="ae" x="535.982" y="596.075" width="3.938" height="3.075" transform="translate(-177.214 230.092) rotate(-20.809)"/></g><g class="af"><rect class="ag" x="319.953" y="774.685" width="54.388" height="49" transform="translate(-254.941 169.346) rotate(-20.231)"/></g><g class="ah"><rect class="ai" x="329.692" y="739.676" width="91.392" height="105.645" transform="translate(-250.887 178.699) rotate(-20.231)"/></g><g class="aj"><rect class="ak" x="221.516" y="379.53" width="760.674" height="680.865" transform="translate(-227.425 280.791) rotate(-22.201)"/></g><g class="al"><rect class="am" x="437.709" y="923.414" width="25.313" height="35.972" transform="translate(-297.751 213.812) rotate(-20.231)"/></g><g class="an"><rect class="ao" x="709.21" y="538.535" width="8.584" height="9.29" transform="translate(-143.814 280.238) rotate(-20.231)"/></g><g class="ap"><rect class="aq" x="325.626" y="653.816" width="46.425" height="46.203" transform="translate(-292.216 265.876) rotate(-30.069)"/></g><g class="ar"><rect class="as" x="40" y="40" width="920" height="659.335"/></g><g class="at"><polygon class="au" points="143.069 432.645 124.349 418.191 105.705 432.747 113.666 410.477 94.062 397.244 117.702 397.933 124.229 375.199 130.879 397.895 154.518 397.077 134.988 410.416 143.069 432.645"/><polygon class="au" points="245.051 407.046 226.331 392.594 207.687 407.148 215.648 384.879 196.044 371.646 219.684 372.335 226.211 349.601 232.861 372.297 256.5 371.479 236.969 384.817 245.051 407.046"/><polygon class="au" points="314.149 426.423 295.429 411.971 276.785 426.525 284.746 404.256 265.14 391.022 288.782 391.711 295.309 368.977 301.959 391.674 325.597 390.856 306.067 404.194 314.149 426.423"/><polygon class="au" points="385.44 444.337 366.72 429.884 348.076 444.439 356.037 422.169 336.432 408.937 360.073 409.626 366.6 386.892 373.25 409.587 396.888 408.77 377.358 422.108 385.44 444.337"/><polygon class="au" points="420.902 514.166 402.182 499.712 383.538 514.268 391.499 491.998 371.894 478.765 395.535 479.454 402.062 456.72 408.712 479.416 432.35 478.599 412.821 491.937 420.902 514.166"/><polygon class="au" points="532.774 484.553 514.054 470.1 495.41 484.655 503.371 462.384 483.767 449.152 507.407 449.841 513.934 427.107 520.585 449.802 544.223 448.986 524.693 462.324 532.774 484.553"/><polygon class="au" points="534.968 409.606 516.247 395.153 497.604 409.708 505.564 387.438 485.96 374.205 509.601 374.894 516.127 352.16 522.778 374.856 546.416 374.038 526.886 387.376 534.968 409.606"/><polygon class="au" points="546.51 144.564 518.371 122.839 490.348 144.718 502.313 111.244 472.846 91.352 508.38 92.388 518.192 58.216 528.188 92.331 563.719 91.103 534.363 111.152 546.51 144.564"/></g></g></svg>