<svg xmlns="http://www.w3.org/2000/svg" viewBox="0 0 1024 1024"><defs><style>.a{fill:#fff;}</style></defs><title>Logo - Trui</title><rect width="1024" height="1024"/><path class="a" d="M511.87,12.01c-276.15,0-500,223.86-500,500s223.85,500,500,500,500-223.86,500-500S788.01,12.01,511.87,12.01ZM512,52c254.05,0,460,205.95,460,460a458.2,458.2,0,0,1-44.412,197.429c-3.208-3.085-6.479-6.162-9.734-9.148-.861-.8-1.731-1.583-2.585-2.355-.867-.8-1.743-1.593-2.608-2.358-.7-.632-1.395-1.255-2.082-1.861q-2.979-2.658-5.977-5.248-2.415-2.107-4.863-4.17c-2.7-2.284-5.564-4.669-8.772-7.294l-.5-.4c-.622-.506-1.249-1.015-1.871-1.514-2.661-2.147-5.441-4.352-8.261-6.554-.923-.718-1.855-1.438-2.786-2.156l-2.787-2.124c-1.061-.809-2.12-1.608-3.181-2.409l-.087-.065c-1.717-1.291-3.444-2.567-5.186-3.846l-.861-.628c-.661-.482-1.32-.964-1.973-1.433q-1.431-1.039-2.867-2.062c-3.875-2.768-7.76-5.476-11.546-8.048l-.1-.07c-.81-.552-1.619-1.1-2.421-1.634l-2.331-1.572c-1.081-.722-2.163-1.433-3.248-2.142q-3.282-2.158-6.605-4.276l-4.3-2.723c-.814-.509-1.628-1.017-2.431-1.51q-2.427-1.512-4.878-2.993c-1.129-.685-2.265-1.368-3.391-2.036q-.876-.528-1.769-1.057c-2.941-1.742-5.217-3.069-7.371-4.3-.937-.54-1.874-1.072-2.812-1.6l-.263-.149c-1.009-.575-2.027-1.148-3.041-1.711-.878-.49-1.757-.98-2.62-1.453l-.5-.28q-1.556-.86-3.113-1.7c-2.069-1.128-4.156-2.246-6.238-3.342q-1.569-.832-3.14-1.644c-2.088-1.09-4.2-2.172-6.308-3.232-1.006-.508-2.014-1.016-2.942-1.473-.131-.074-.277-.146-.338-.171l-.152-.076c-.974-.483-1.948-.965-2.917-1.436-4.416-2.17-8.774-4.242-13.021-6.19-1.015-.47-2.03-.941-3.029-1.387-1.5-.685-3.008-1.37-4.509-2.03q-.561-.252-1.129-.5l-.865-.38c-3.5-1.536-6.972-3.026-10.35-4.436l-2.757-1.139c-1.1-.454-2.2-.907-3.3-1.347-3.374-1.369-6.727-2.691-9.951-3.919-.713-.28-1.421-.547-2.13-.817l-1.48-.56c-.635-.24-1.275-.482-1.9-.706-1.366-.508-2.732-1.016-4.1-1.513s-2.741-1-4.109-1.476-2.753-.98-4.133-1.458c-1.253-.439-2.516-.869-3.778-1.3l-3.74-1.261c-1.866-.619-3.742-1.238-5.619-1.836-1.173-.378-2.345-.748-3.522-1.118q-2.3-.721-4.6-1.431c-2.243-.682-4.484-1.356-6.749-2.022q-2.379-.692-4.767-1.376l-4.558-1.275c-.8-.221-1.6-.442-2.393-.652-2.818-.767-5.61-1.5-8.266-2.173-.814-.219-1.638-.422-2.454-.623l-.151-.037q-1.914-.485-3.826-.953l-.114-.028c-1.828-.443-3.664-.885-5.488-1.31-1.259-.3-2.51-.583-3.733-.853-.358-.086-.726-.173-1.066-.245-1.182-.268-2.365-.527-3.55-.785l-.492-.107c-1.026-.223-2.047-.446-3.059-.657-1.618-.351-3.245-.685-4.869-1.017-1.792-.368-3.593-.72-5.476-1.086-1.322-.254-2.645-.508-3.95-.749-1.06-.205-2.12-.4-3.168-.584-1.205-.219-2.415-.432-3.621-.644l-.484-.085c-1.831-.323-3.673-.637-5.5-.932-1.764-.3-3.528-.572-5.3-.851l-1.282-.194c-1.108-.169-2.22-.339-3.328-.5l-2.651-.387c-1.1-.159-2.21-.311-3.319-.463l-.33-.045c-.946-.13-1.9-.259-2.847-.379l-1.7-.219c-.918-.121-1.847-.242-2.762-.352-1.685-.213-3.379-.417-5.044-.6-1.692-.2-3.383-.388-5.108-.576l-.869-.09c-1.535-.166-3.07-.314-4.611-.461-2.457-.241-4.915-.471-7.382-.673-1.608-.14-3.226-.279-4.839-.4-1.793-.138-3.593-.267-5.384-.386l-.779-.057c-1.44-.092-2.888-.184-4.309-.266-.8-.056-1.6-.1-2.355-.137-.3-.021-.608-.04-.863-.048-1.2-.065-2.411-.13-3.6-.185q-2.966-.152-5.932-.259c-1.514-.064-3.037-.11-4.591-.156-.456-.019-.913-.028-1.35-.037-1.9-.064-3.819-.11-5.763-.148-.114,0-.229,0-.441-.01-1.652-.028-3.305-.055-4.911-.064-.322-.009-.633-.007-.938-.009-1.83-.019-3.649-.028-5.477-.028-155.755,0-303.316,59.386-415.587,167.229A458.182,458.182,0,0,1,52,512C52,257.95,257.95,52,512,52Zm40.324,912.824a61.069,61.069,0,0,1-6.054-2.7,126.283,126.283,0,0,0-12.963-5.106c-10.147-3.3-10.23-3.652-7.719-5.06,1.169-.662,1.877-1.656,1.693-2.419-.285-1.169-1.187-1.3-6.743-1.1-6.082.22-6.174.184-9.78-2.346-2.015-1.408-4.241-2.9-5.06-3.312s-1.426-1.114-1.4-1.555a7.436,7.436,0,0,0-.755-2.512,16.485,16.485,0,0,1-1.1-3.542c-.478-2.741-2.475-5.851-3.643-5.879-.57-.009-2.567-1.343-4.333-2.953-3.653-3.321-4.609-6.329-3.423-9.172.552-1.307.506-1.794-.266-3.3-1.169-2.254-1.2-3.119-.083-3.128a10.37,10.37,0,0,0,3.266-1.564,9.875,9.875,0,0,1,4.131-1.564c1.683-.009,2.355.773,1.26,1.527-.994.69-.4,4.6,1.012,6.477,1.628,2.171,2.134,2.226,3.542.4.423-.561.644-.837,1.076-1.389.295.644.442.975.727,1.619,1.04,2.327,2.181,2.76,2.089.809-.065-1.324.174-1.582,1.426-1.426,1.223.157,1.527.525,1.435,1.905a5.29,5.29,0,0,0,1.582,3.579c3.625,3.956,7.894,7.387,8.933,7.387a3.119,3.119,0,0,1,2.034,1.27,4.146,4.146,0,0,0,3.44,1.279c2.236.018,2.641.276,2.944,2.088.267,1.6.81,2.125,2.494,2.309a7.122,7.122,0,0,0,3.514-.506c1.049-.589,1.306-.524,1.334.322a1.618,1.618,0,0,1-1.334,1.4c-2.852.708-1.132,1.49,3.321,1.591a27.825,27.825,0,0,1,10.166,2.291,33.046,33.046,0,0,1,5.888,2.76,20.8,20.8,0,0,0,4.085,2.162c1.978.883,3.79,2.171,4.066,2.852a6.469,6.469,0,0,0,2.76,2.337c.893.441,1.334.653,2.218,1.095.027,2.373.064,3.588.165,6.072.138,3.4.055,6.946-.294,7.728a3.757,3.757,0,0,0,.3,3.041q-4.86.594-9.748,1.09C557.07,967.751,553.545,964.925,552.324,964.824Zm3.923,5.066q-2.194.21-4.394.4Q554.055,970.1,556.247,969.89Zm-6.117.543q-8.677.713-17.443,1.1c1.3-.059,2.605-.117,3.9-.187.763-1.813,1.987-3.312,3.174-3.662a8.282,8.282,0,0,1,4.388.9,14.844,14.844,0,0,0,4.3,1.389A4.336,4.336,0,0,1,550.13,970.433Zm-19.372,1.186c-.953.039-1.908.071-2.863.1C528.85,971.69,529.8,971.658,530.758,971.619Zm-5.752.195q-1.395.039-2.794.067Q523.61,971.851,525.006,971.814Zm-5.346.116q-1.8.029-3.6.044Q517.859,971.961,519.66,971.93Zm123.6-22.461a14.546,14.546,0,0,0-3.422-3.928c-2.576-1.96-2.8-2.723-1.334-3.984a2.961,2.961,0,0,0,.819-2.557c-.387-2.356.892-5.732,2-5.447,1.206.313,2.751-1.766,2.135-2.889a17.489,17.489,0,0,1-.331-5.115c.2-4.664,2.07-7.9,4.646-8.28,2.125-.3,2.87-1.886,2.75-5.7-.11-3.183.056-3.6,2.558-6.072a24.654,24.654,0,0,0,4.223-5.915c.837-1.785,2.153-3.542,2.925-3.9,1.509-.7,6.063-.092,7.6,1.012a3.2,3.2,0,0,0,2.254.395,4.725,4.725,0,0,1,2.861.644c1.251.764,2.088.736,4.618-.174,4.251-1.546,10.645-2.383,10.737-1.316.036.469-1.316,1.454-3,2.217-3.284,1.481-7.5,5.263-7.378,6.587.037.47,1.021.58,2.456.24a16.9,16.9,0,0,1,4.913-.3c1.38.157,3.257.239,4.1.239,1.215,0,1.528.562,1.647,2.788.258,4.986,5.815,4.968,10.359.377,1.61-1.619,3.312-2.769,4.389-2.953a5.053,5.053,0,0,0,2.981-2c1.1-1.555,1.619-1.748,4.839-1.85,2.327-.082,3.477-.322,3.661-.8.58-1.564,3.138-1.076,5.585,1.178,1.5,1.38,2.833,2.235,3.533,2.2a5.087,5.087,0,0,1,2.778,1.675,5.129,5.129,0,0,0,2.64,1.7,2.111,2.111,0,0,1,1.592.883,9.05,9.05,0,0,0,1.877,1.794,20.021,20.021,0,0,1,2.545,2.618,456.993,456.993,0,0,1-120.8,47.111q14.3-3.342,28.252-7.565A12.533,12.533,0,0,1,643.256,949.469ZM724.529,885.6c1.537,1.5,2.162,3.119,1.316,3.183-.451.046-2.006,4.25-2.217,6.072-.111.957-.479,1.242-1.712,1.3-.874.037-3.118.147-5.106.285a30.22,30.22,0,0,0-6.016,1.077c-2.043.69-2.521.635-4.122-.635-3.726-2.944-5.612-5.732-3.367-5.345.662.119,1.95-.994,3.533-3.11,2.263-3.008,2.6-3.266,4.452-3.174,1.546.083,2.034-.119,2.236-.9.166-.654.929-1.114,2.079-1.27a3.42,3.42,0,0,0,2.328-1.242,2.26,2.26,0,0,1,1.38-1.113,1.945,1.945,0,0,0,1.251-.764c.239-.368,2.015-1.039,3.818-1.453a11.7,11.7,0,0,0,4.352-1.822c.736-.69,1.288-.874,1.545-.506.534.773-1.389,3.5-2.594,3.616a2.857,2.857,0,0,0-1.665,1.49c-.543,1.012-1.077,1.325-1.978,1.168C722.257,882.144,722.514,883.634,724.529,885.6Zm27.854,18.657q-6.908,4.242-13.974,8.246Q745.476,908.5,752.383,904.26Zm7.942-4.982q-3.38,2.17-6.8,4.28Q756.942,901.445,760.325,899.278Zm6.767-4.44q-3.222,2.151-6.48,4.253Q763.872,896.993,767.092,894.838Zm7.536-5.136q-3.231,2.25-6.5,4.446Q771.4,891.952,774.628,889.7Zm7.02-4.99q-3.015,2.186-6.066,4.32Q778.633,886.9,781.648,884.712Zm6.943-5.133q-3.138,2.365-6.315,4.681Q785.456,881.947,788.591,879.579ZM802.222,868.9q-6.137,5-12.446,9.784Q796.085,873.9,802.222,868.9Zm7.142-5.928q-2.957,2.506-5.958,4.963Q806.4,865.476,809.364,862.97Zm6.2-5.364q-2.676,2.353-5.389,4.665Q812.894,859.96,815.569,857.606Zm6.68-5.986q-2.833,2.59-5.71,5.135Q819.418,854.212,822.249,851.62Zm6.535-6.087q-2.671,2.538-5.385,5.03Q826.11,848.069,828.784,845.533Zm5.953-5.763q-2.75,2.708-5.539,5.373Q831.993,842.482,834.737,839.77Zm12.116-12.387q-2.4,2.553-4.846,5.07Q844.45,829.938,846.853,827.383Zm11.8-13.008q-2.21,2.531-4.455,5.027Q856.444,816.9,858.653,814.375Zm-5.555,6.253q-2.52,2.782-5.086,5.525Q850.577,823.411,853.1,820.628Zm11.281-12.938q-2.4,2.862-4.851,5.687Q861.978,810.555,864.379,807.69Zm5.978-7.257q-2.334,2.9-4.721,5.752Q868.018,803.326,870.357,800.433Zm4.857-6.143q-2.169,2.787-4.377,5.542Q873.048,797.079,875.214,794.29Zm5.695-7.465q-2.192,2.938-4.432,5.837Q878.715,789.761,880.909,786.825Zm4.711-6.437q-1.819,2.527-3.673,5.032Q883.8,782.917,885.62,780.388ZM890.9,772.9q-2.048,2.967-4.138,5.9Q888.853,775.871,890.9,772.9Zm9.5-14.334q-1.928,3.03-3.9,6.032Q898.474,761.6,900.4,758.568Zm-4.727,7.279q-1.736,2.616-3.506,5.208Q893.931,768.463,895.669,765.847Zm9.782-15.4q-1.845,3.038-3.739,6.039Q903.6,753.483,905.451,750.448Zm3.942-6.629q-1.463,2.5-2.955,4.982Q907.93,746.32,909.393,743.819Zm4.687-8.2q-1.686,3.024-3.416,6.02Q912.394,738.642,914.08,735.618Zm11.831-22.7h0q-1.2,2.469-2.43,4.922Q924.711,715.386,925.911,712.915Zm-3.74,7.52q-1.547,3.038-3.133,6.051Q920.628,723.476,922.171,720.435Zm-4.273,8.18q-1.275,2.383-2.576,4.75Q916.624,731,917.9,728.615ZM98.259,713.264C209.724,606.456,357.53,546.2,512,546.2c1.814,0,3.62.009,5.456.028.286,0,.56,0,.89.008,1.637.01,3.275.037,4.827.061.2.012.4.016.555.014,1.885.036,3.78.082,5.7.147.434.008.862.017,1.376.037,1.5.045,3.006.09,4.513.154,1.968.074,3.928.157,5.9.257,1.191.056,2.392.119,3.627.186.252.008.513.025.808.045.765.035,1.531.08,2.324.136,1.439.082,2.88.174,4.3.265l.774.057q2.68.177,5.358.384c1.6.12,3.2.256,4.805.395,2.455.2,4.892.43,7.332.669,1.529.146,3.048.293,4.591.46l.868.09c1.685.182,3.361.365,5.058.57q2.5.274,5.012.6,1.368.165,2.734.347l1.707.222c.94.118,1.881.246,2.812.374l.332.045c1.1.15,2.2.3,3.285.458l2.654.388c1.1.158,2.2.326,3.3.493l1.275.193c1.751.275,3.5.55,5.264.845q2.73.439,5.455.925l.486.086q1.8.315,3.608.64c1.038.183,2.075.373,3.13.578,1.313.242,2.626.494,4.009.759,1.787.349,3.575.7,5.356,1.064,1.611.329,3.221.659,4.839,1.011,1.017.211,2.028.432,3.043.652l.492.107c1.172.256,2.345.513,3.543.784.332.071.663.149,1.023.236,1.242.274,2.476.557,3.723.85,1.816.422,3.641.863,5.448,1.3l.105.027c1.267.312,2.535.625,3.815.949l.164.041c.788.194,1.583.389,2.4.609,2.663.675,5.431,1.4,8.24,2.165.791.211,1.575.428,2.365.646l4.535,1.267q2.368.678,4.733,1.368c2.247.66,4.476,1.33,6.7,2.007,1.522.468,3.046.945,4.567,1.421q1.367.431,2.737.869a1.932,1.932,0,0,1-.591,1.143c-.68.727-.763,1.04-.4,1.693a4.355,4.355,0,0,1,.423,3.413c-.3.571-.4.543-1.169-.23-.8-.819-.846-.8-1.407.1-.322.525-.9,1.38-1.307,1.932-.92,1.252-.947,1.344.166,2.08,1.159.763,1.26,1.076.313,1.821a2.725,2.725,0,0,0-.865,1.334c-.064.405-.2,1.1-.313,1.546a2.793,2.793,0,0,0,.258,1.693,1.01,1.01,0,0,1-.295,1.462c-1.288.976.525,4.15,2.19,3.45.469-.193.828-.073,1.73.516,1.03.68,1.242.7,1.8.276a2.567,2.567,0,0,1,2.659.092c.266.165.193.506-.184.782a1.089,1.089,0,0,0-.516,1.03c.1.285-1.508,1.978-3.965,4.618a32.714,32.714,0,0,0-3.956,4.711,9.538,9.538,0,0,0,1.527,1.067,5.154,5.154,0,0,0,3.138.837,5.123,5.123,0,0,1,2.934.663,7.076,7.076,0,0,0,6.91-.286,5.057,5.057,0,0,1,3.6-.864,4.922,4.922,0,0,0,1.978.055c.147-.12.671.009,1.187.285,1.508.828-.672,2.042-4.021,2.328a20.223,20.223,0,0,0-9.108,3.174,3.427,3.427,0,0,1-2.935.69c-1.692-.424-2.658.386-1.895,1.61.837,1.352,1.886,2.033,2.392,1.536a1.541,1.541,0,0,1,1.445-.037c1.389.552,1.564.948.414.966-1.3.009-1.574.359-1.049,1.316,1.012,1.812,4.305,2.594,7.535,1.315a2.21,2.21,0,0,1,1.7-.073c.607.414-1.831,2.033-3.736,2.484-1.288.3-5.556-1.4-7.663-2.99-2.42-1.84-4.2-2.733-5.851-2.99-2.8-.442-2.245.506,1.15,1.923,2.714,1.131,3.615,1.932,3.6,3.284-.009.948.248,1.389,1.582,2.714,1.9,1.886,2.613,2.318,3.6,2.171a5.287,5.287,0,0,1,2.08.46,4.487,4.487,0,0,0,1.472.442c.23-.23,5.041.911,5.777,1.343a5.369,5.369,0,0,1,1.288,1.113c.727.911,3.772,2.291,6.551,2.779a27.6,27.6,0,0,1,3.468.818c1.113.4,1.362.332,2.834-.938.892-.782,1.573-1.73,1.435-2.052-.267-.653,2.557-2.539,3.358-2.254.267.1.156.736-.23,1.39-.773,1.324-.847,2.852-.267,3.293a9.3,9.3,0,0,0,4.3.948,20.233,20.233,0,0,1,5.934-.368,4.316,4.316,0,0,1,1.7,1.177c.654.736,1.316,1.049,3.009,1.426,2.1.47,2.18.562,2.5,2.116a2.439,2.439,0,0,0,1.6,2.043c1.224.441,1.1.579-1.389,2.567a10.463,10.463,0,0,1-3.772,2.171,4.67,4.67,0,0,0-1.794.653,2.447,2.447,0,0,1-2.383.331c-.166-.129.092-.579.57-1a3.381,3.381,0,0,1,2.567-.809c1.877-.028,2.935-.718,2.457-1.619-.368-.709-3.294-2.512-5.3-3.276a7.144,7.144,0,0,1-2.263-1.4c-.763-.819-.773-.81-2.981-1.058-2.152-.248-2.235-.294-3.082-1-1.2-1-2.594-1.067-4.627-.313a7.292,7.292,0,0,1-5.649.028c-2.429-.865-6.67-2.245-8.565-2.76a16.731,16.731,0,0,1-3.588-1.61,21.074,21.074,0,0,0-7.673-3.128l-2.162-.368c-1.325-1.076-1.978-1.6-3.266-2.659-4.6-3.79-6.928-5.271-8.013-5.041-2.392.506-3.616.552-3.975.248-.23-.175-.322-.4-.211-.488.478-.386-1.159-1.168-2.65-1.269-2.723-.175-2.944.635-.441,2.429,1.15.818,1.416,1.113,1.518,1.637a7.614,7.614,0,0,0,2.971,3.459c.58.35,2.079,1.482,3.358,2.521,2.622,2.144,3.119,2.714,3.9,5.125.469,1.435.653,1.72,2.226,2.944,1.555,1.2,1.813,1.269,2.622,1.039.847-.239,1.031-.1,3.57,1.426a18.6,18.6,0,0,1,3.064,2.015,6.37,6.37,0,0,0,2.134,1.288c1.619.736,1.84.727,2.631.156a3.666,3.666,0,0,1,3.386-.377,11.728,11.728,0,0,0,5.345.359c.948-.313.994-.285,2.87.653,2.54,1.27,2.816,1.537,1.39,1.5a11.6,11.6,0,0,0-1.988.119,6.655,6.655,0,0,1-1.6.065,48.655,48.655,0,0,0-7.82.736,67.09,67.09,0,0,1-7.112,1.2c-3.395.432-12.392,3.257-12.944,4.186-.194.322-.93.368-1.932.119a8.425,8.425,0,0,0-2.908-.174,14.942,14.942,0,0,1-4.176.046c-2.135-.368-3.156,0-3.588.736a1.09,1.09,0,0,0,.276,1.5c.984.755,5.547.893,7.1.791.644-.046,2.116-.45,2.834-.607,1.1-.239,3.532.083,9.614.736,1.536.166,1.932,1.334.57,2.024-.966.488-.984.672.009,1.279.893.552.966.773.3,1.1-.985.488-3.515.193-3.082-.368.147-.193-.009-.524-.35-.745-1.555-1.021-4.848.009-6.559,2.07a5.972,5.972,0,0,1-1.555,1.417c-.331.147-.442.69-.239,1.2.331.828.211.92-1.114.883-1.416-.037-2.548.515-5.538,2.318-.828.5-.994.874-.616,1.334.45.525.22.755-1.141,1.178-.653.211-.975.3-1.619.5-.8-.626-1.2-.948-2-1.6a9.451,9.451,0,0,0-2.631-1.776c-.35-.055-1.628,1.123-2.788,2.447a10.761,10.761,0,0,1-2.576,2.392c-.266.028-.607.58-.772,1.206a3.652,3.652,0,0,1-1.38,1.8c-.58.359-.957.855-.828,1.113s-.148.515-.626.57c-.9.092-.9.083,1.122,2.843.718.985.286,1.334-2.244,1.7a3.645,3.645,0,0,1-3.009-.552,8.206,8.206,0,0,0-2.346-.947,3.221,3.221,0,0,1-1.38-.506,1.193,1.193,0,0,1,.589-1.868c.331-.028.561-.221.524-.432s.313-.414.792-.451.736-.249.57-.5a6.57,6.57,0,0,0-2.217-1.72,7.065,7.065,0,0,1-1.629-.893c-1.288-.846-1.573-.938-3.919-.8a8.977,8.977,0,0,1-3.882-.368c-2.723-1.178-2.549-.111.248,1.26a10.2,10.2,0,0,1,2.457,1.583,11.965,11.965,0,0,1,2.014,3.873,2.682,2.682,0,0,0,2.42,2,3.8,3.8,0,0,1,3.238,3.708c-.018.717-.147.782-2.2.625a24.921,24.921,0,0,1-3.082-.395c-1.509-.377-2.172-.092-2.825,1.251a5.056,5.056,0,0,1-1.867,1.941c-1.224.644-4.306,3.873-4.324,4.6,0,.451,3.082,2.245,5,2.935,2.3.828,2.217,1.592-.359,1.886-3.818.442-11.15.506-13.809.009-3.284-.607-3.873-.414-5.363,1.619-.5.672-.746,1.012-1.242,1.693.662.267.993.4,1.656.672,2.778,1.131,4.866,1.334,6.329.7,1.509-.662,3.064-.12,3.441,1.159.276.929-1.785,2.6-2.788,2.227a11.2,11.2,0,0,0-3.339.11,9.285,9.285,0,0,1-3.533-.046,10.661,10.661,0,0,0-6.136-.58c-1.583.4-1.85.286-2.935-1.214a9.544,9.544,0,0,0-2.558-2.4c-1.407-.773-1.923-2-1.177-2.659.68-.607.2-2.291-.746-2.751a10.347,10.347,0,0,0-4.756-1.113,2.015,2.015,0,0,1-1.527-.386,4.359,4.359,0,0,0-1.776-.773c-.809-.138-.993-.35-.69-.773s1.049-.561,2.779-.524c1.306.027,3.367.009,4.581-.037a8.985,8.985,0,0,1,2.843.23,24.512,24.512,0,0,0,5.9-.5,43.4,43.4,0,0,1,7.4-.681c2.208.23,4.95-.543,9.559-2.456,3.008-1.261,3.79-1.9,4.747-3.864.81-1.656.469-2.5-1.279-3.873A6.147,6.147,0,0,1,635.51,680a5.234,5.234,0,0,0-3.2-1.407,8.9,8.9,0,0,1-2.07-.47,13.236,13.236,0,0,0-3.606-.45,7.108,7.108,0,0,1-2.677-.368,3.152,3.152,0,0,0-1.757-.276,4.3,4.3,0,0,1-2.162-.451,4.075,4.075,0,0,0-2.1-.46,6.535,6.535,0,0,1-2.512-.377,13.337,13.337,0,0,0-3.394-.562,5.416,5.416,0,0,1-2.466-.542c-.524-.359-2.778-.313-6.734-.019a32.112,32.112,0,0,1-6.873.009,4.546,4.546,0,0,0-1.766-.285c-.552.074-.819-.248-.92-1.122-.12-1.067-.387-1.261-1.941-1.371a6.53,6.53,0,0,1-2.641-.736c-.708-.506-.957-.405-1.637.662-.746,1.178-1,1.261-3.616.976a16.8,16.8,0,0,0-3.7-.092.916.916,0,0,1-1.123-.47.54.54,0,0,1,.552-.736,1.716,1.716,0,0,0,1.2-.938,2.031,2.031,0,0,1,1.527-.957c3.082-.221.267-3.137-3.56-3.873a7.846,7.846,0,0,1-3.146-1.122,2.161,2.161,0,0,0-1.813-.368,1.987,1.987,0,0,1-2.226-1.058c-.718-1.058-1.27-1.27-2.88-1.077-2.281.267-2.622.69-2.778,3.266-.147,2.282-1.205,2.549-1.389.35-.23-2.668-.709-2.751-2.484-.331-2.089,2.842-3.147,3.091-1.445.358a6.328,6.328,0,0,0,1.113-2.695c-.165-.929-2.87-1.2-3.394-.322a2.242,2.242,0,0,1-1.675.727,2.656,2.656,0,0,0-2.18,1.637c-.745,1.316-1.123,1.518-2.171,1.224a3.825,3.825,0,0,1-1.712-.948c-.3-.395-1.076-.23-2.336.488a8.949,8.949,0,0,1-2.641,1.095.9.9,0,0,0-.791.91c-.009.617.515.911,1.766.994,3.036.2,1.638,1.343-1.49,1.224-2.806-.1-2.907-.046-3.321,1.462-.23.847-.617,1.537-.865,1.546s-.644.423-.883.9c-.561,1.122-1.077,1.14-1.113.036a.817.817,0,0,1,.717-.883c.874-.037.975-1.665.138-2.134-.359-.2-1.076.5-1.886,1.84-1.435,2.4-2.787,2.953-2.456,1.039.165-1.03.027-1.15-1.417-1.076a2.343,2.343,0,0,0-2.226,1.242c-.332.635-.884,1.159-1.224,1.178a1.6,1.6,0,0,0-1.04.864,2.1,2.1,0,0,1-1.637.828,4.631,4.631,0,0,0-2.282.764,1.926,1.926,0,0,0-.883,2.272c.2,1.215.359,1.353,1.417,1.252.966-.092,1.205.064,1.187.782a1.49,1.49,0,0,1-2.641.92,2.906,2.906,0,0,0-1.84-.874c-1.039-.019-1.076-.083-.984-1.5.129-1.858-.341-1.923-1.592-.276-.589.773-1.141,1.086-1.555.911-.368-.157-.625-.046-.616.257s-.423.856-.975,1.233c-1.169.828-1,1.647.414,1.675.561.009,1.049.239,1.067.5s-.506.451-1.159.433-1.224.193-1.307.451-.579.331-1.1.165a1.143,1.143,0,0,0-1.4,1.564c.248.617,3.22.212,4.269-.607,1.021-.782,4.131-.708,4.039.11a.7.7,0,0,1-.755.552,1.638,1.638,0,0,0-1.2.709,2.385,2.385,0,0,1-1.131.874c-.341.073-.644.662-.7,1.352-.156,1.748-1.15,3.855-1.8,3.855-1,0-3.928,3.018-4.085,4.158a13.58,13.58,0,0,1-2.41,5.29,8.868,8.868,0,0,0-1.279,2.475,1.749,1.749,0,0,1-1.306,1.4c-1.573.4-2.484,1.435-2.328,2.686.12.984.037,1.058-.855.773-1.767-.543-3.561.515-7.149,3.947-1.371,1.315-2.079,1.978-3.551,3.339-.589-.221-.883-.331-1.454-.543a2.32,2.32,0,0,0-2.76.332c-.993.634-1.3,1.012-1.085,1.38a1.166,1.166,0,0,1-.874,1.784,5.521,5.521,0,0,0-2.024.884,3.844,3.844,0,0,1-2.576.69,2.815,2.815,0,0,0-3.193,1.674c-.276.662-.791.966-2.024,1.178a5.807,5.807,0,0,0-2.474,1.076,3.621,3.621,0,0,1-1.693.874,7,7,0,0,0-2.42,1.224,7.525,7.525,0,0,1-2.383,1.26c-.542.055-.975.46-1.38,1.306a10.222,10.222,0,0,1-1.7,2.356c-.782.791-1.076,1.315-.975,1.757a1.6,1.6,0,0,1-.607,1.38c-1.1,1.095-3.395,7-2.99,8.307a4.408,4.408,0,0,1-.175,2.438c-.368.93-.267,1.38.368,1.537,1.15.3.442,3.864-1.076,5.179a3.97,3.97,0,0,0-1.233,2.53c-.166,1.482,0,1.583,1.978,1.39,1.684-.166,2.088,0,1.831.745a2.829,2.829,0,0,1-1.647,1.4c-1,.331-1.444.883-1.831,2.3-.414,1.527-.23,2.153,1.086,3.6a5.168,5.168,0,0,0,2.4,1.73,1.688,1.688,0,0,1,1.279.653c1.214,1.711,6.835,2.852,7.755,1.509a3.038,3.038,0,0,1,2.052-.626c1.536-.018,3.119-1.094,11.068-7.424a5.685,5.685,0,0,1,2.668-1.288c1.646.028,4.5-1.2,5-2.19,1.334-2.622,4.426,3.975,3.322,7.1a5.611,5.611,0,0,0,.23,2.944c2.272,6.734,2.622,8.188,2.484,8.786-.286,1.233.791,4.462,1.637,4.913a4.812,4.812,0,0,1,1.491,2.364c.266.773.395,1.159.653,1.932-.69.81-1.04,1.214-1.721,2.033a5.411,5.411,0,0,1-3.33,2.2c-4.49.478-5.4.791-6.219,1.8a2.612,2.612,0,0,1-1.822,1.021c-1.223-.11-1.812.792-1.15,1.767a4.99,4.99,0,0,1,.515,2.318,2.461,2.461,0,0,0,.828,2.006,3.558,3.558,0,0,1,1.279,1.573c.387.984.3,1.04-.855.506a1.928,1.928,0,0,0-2.4.4c-2.327,2.1-1.757,2.944,2.816,4.011,1.84.432,2.364.331,2.99-.635a3.14,3.14,0,0,0,.588-1.812c-.193-.791,1.353-3.248,2.448-3.837a2.283,2.283,0,0,0,.837-2.014c.037-1.3.23-1.555,1.122-1.454a1.155,1.155,0,0,0,1.316-.874c.129-.552.5-.846.819-.653s.4,1.141.156,2.134c-.534,2.217.515,2.861,5.253,3.036,4.067.147,5.539-.635,5.042-2.962-.433-2.043.331-2.944,2.318-2.659a3.8,3.8,0,0,0,2.309-.313c.414-.294,2.484-.3,4.674.009,3.91.562,4.066.552,5.566-1.306,1.674-2.088,2.861-2.328,2.41-.5-.4,1.6.654,2.411,1.426,1.132a16.585,16.585,0,0,1,1.472-1.969,4.751,4.751,0,0,0,1-1.61,6.209,6.209,0,0,1,1.785-1.941,5.6,5.6,0,0,0,1.877-2.383c.414-1.9-1.619-1.656-3.119.4-1.84,2.52-2.714,1.757-1.2-1.058a61.115,61.115,0,0,0,2.686-6.293c2.99-8.17,2.484-7.71,5.806-8.354a12.973,12.973,0,0,0,2.511-.883c1.123.23,4.389-2.972,4.214-4.076-.2-1.242.5-3.229,1.085-3.137.911.147.451-2.143-.837-4.94-1.481-3.239-2.769-5.529-3.551-5.8-1.159-.387-2.263-3.147-2.475-7.425-.119-2.4-.064-3.864.239-3.762.276.1.424-.626.313-1.592-.248-2.088.607-5.4,1.123-5.713a1.378,1.378,0,0,0,.257-1.123,1.384,1.384,0,0,1,.5-1.269,2.559,2.559,0,0,0,.69-1.776c.046-.929.322-1.435.874-1.564a1.165,1.165,0,0,0,.865-.947.634.634,0,0,1,.681-.654c.358.037.91-.395,1.232-.966a1.794,1.794,0,0,1,1.279-1c.81.036,1.537-1.206,1.96-3.312a4.519,4.519,0,0,1,.975-2.08c.727-.625.672-2.539-.074-2.53-.828,0-1.223-2.327-.506-3.67a6.641,6.641,0,0,0,.626-1.969c.175-.865.626-1.638.92-1.638.267-.009.561-.451.662-.984.166-.856.608-.966,3.9-1.215,2.576-.193,4.149-.128,4.95.295.635.34,1.647.819,2.245,1.076.92.377,1.094.69,1.159,2.089.064,1.177-.111,1.738-.6,1.932-.387.156-1.849,2.235-3.183,4.673s-2.659,4.481-3,4.517c-.754.065-2.585,3.7-2.447,4.84.065.6-.257.855-1.113.883-1.132.018-1.224.165-1.674,2.916-.562,3.377-.552,4.195.147,5.244a6.611,6.611,0,0,1,.644,2.622,9.946,9.946,0,0,0,.6,2.907c.644,1.344.883,5.852.386,7.655a5.331,5.331,0,0,0,.249,4.085c1.113,3.063,1.407,3.422,2.916,3.394a2.652,2.652,0,0,1,2.475,2.77,1.27,1.27,0,0,0,.635,1.26,14.458,14.458,0,0,1,1.821,1.2c.883.672,1.334.69,1.987.1a9.4,9.4,0,0,1,3.082-1.37,4.545,4.545,0,0,0,2.521-1.38,1.359,1.359,0,0,1,.92-.847,2.767,2.767,0,0,0,1.362-1.306,1.749,1.749,0,0,1,1.886-1,2,2,0,0,0,1.785-.607c.8-1.15,4.894-3.395,5.759-3.128a5.9,5.9,0,0,0,2.916-1.077c1.757-1.058,2.383-1.2,2.944-.607,1.555,1.6,5.014,2.733,6.173,2.015,1.224-.764,2.668-.681,2.917.175.083.294-.791.966-1.923,1.49s-2.594,1.27-3.275,1.665-1.831,1.068-2.558,1.491c-1.03.589-1.214,1.021-.828,1.858,1.141,2.457.451,2.917-4.186,2.861-2.4-.027-5.133-.2-6.136-.34-1.307-.193-1.951-.018-2.319.635a6.545,6.545,0,0,1-2.879,1.729,9.879,9.879,0,0,0-4.49,3.184,3.318,3.318,0,0,1-.993.754l-5,2.4c-1.141.5-1.3,1.261-.34,1.776a2.381,2.381,0,0,1,.763,1.591A1.337,1.337,0,0,1,562,774.55a1.831,1.831,0,0,0-.5,2.971,2.765,2.765,0,0,1,.534,1.546c.147,1.536,1.223,1.49,1.61-.083a1.521,1.521,0,0,1,1.435-1.288,1.819,1.819,0,0,0,1.509-1.012c.211-.524.616-.966.92-.994l1.131-.4a1.568,1.568,0,0,1,1.583.331c1.343,1.224,2.925,1.288,3.413.414.3-.534.662.929,1.4,5.391.378,2.282.562,3.423.92,5.7-.524.5-.791.745-1.315,1.233-1.629,1.509-3.625.874-4.554-1.4a6.249,6.249,0,0,0-2.144-2.42,13.376,13.376,0,0,1-2.291-1.785c-.671-.727-.966-.69-2.281.212-3.275,2.217-3.551,2.4-3.6,4.213a7.024,7.024,0,0,1-.911,3.082c-.764,1.15-.837,1.794-.479,5.649.221,2.392.6,5.667.847,7.277.349,2.374.294,3.027-.377,3.45a1.668,1.668,0,0,0-.819,1.187c.009.359.441.23.947-.294,1.068-1.123,1.6-.709,1.7,1.26.046,1.1-.22,1.4-1.269,1.362a1.956,1.956,0,0,1-1.693-1,.836.836,0,0,0-1.187-.589,9.02,9.02,0,0,1-2.723.359c-1.619-.009-1.923.212-2.208,1.7-.386,2.088-2.539,3.754-5.308,4-2.116.184-4.49-1.04-2.981-1.536,1.279-.433.929-1.27-.92-2.448-2.319-1.481-9.311-1.444-13.451-.2a15.581,15.581,0,0,1-3.606.782,4.4,4.4,0,0,0-2.226.975,4.841,4.841,0,0,1-2.926.911c-1.417-.175-5.824.359-11.2,1.61-3.487.81-5.106-.442-6.008-4.526-.736-3.34-2.383-4.389-3.459-2.2-.58,1.177-.939,1.279-2.65.763-1.591-.469-2.327-.312-3.836.81a9.6,9.6,0,0,1-3.423,1.656,4.181,4.181,0,0,0-2.263,1.113c-1,1.224-1.794-.285-1.371-2.613s-.22-3.063-1.527-1.821c-.892.855-1.159.837-2.419-.12-2.015-1.527-2.678-3.211-2.024-5.29.625-1.959,1.508-2.107,3.256-.515,1.528,1.389,2.034.975,2.622-2.052.617-3.2-.34-5.115-2.64-5.29-1.8-.147-2.015-.782-.616-1.941a3.847,3.847,0,0,0,1.1-1.886c.165-.874.579-1.141,1.674-1.058a2.324,2.324,0,0,0,2.272-1.141c1.049-1.6.911-3.036-.312-3.118-.525-.037-1.178-.792-1.463-1.666-.469-1.481-.423-1.729.745-3.551a15.958,15.958,0,0,0,1.8-4.315c.46-2.1.4-2.327-.589-2.014-.616.193-1.757.46-2.539.607a7.817,7.817,0,0,0-3.174,2,5.934,5.934,0,0,1-2.53,1.711,17.044,17.044,0,0,0-6.679,2.7,4.238,4.238,0,0,0-1.214,2.006,2.389,2.389,0,0,1-.727,1.435c-1.4.892-.975,4.968,1.067,5.722.074.4.055.3.12.7-.516.424-.782.635-1.307,1.058-1.637,1.334-1.693,3.22-.147,3.791.92.349,1.1.865.948,2.686-.157,1.932-.332,2.291-1.261,2.4-1.371.166-2.015,1.638-.754,1.73,1.076.074,2.447,3.487,1.545,3.809-.809.285-.966,2.337-.276,3.358.792,1.159.543,2.677-.414,2.594a4.127,4.127,0,0,0-2.171,1.481c-1.242,1.38-1.453,1.445-1.877.5-.312-.69-1.269-1.131-2.741-1.26-1.831-.157-4.14-1.123-5.235-.341-1,.709-.5,1.436-4.3,1.546-4.867.138-5.336,2.208-6.431,4.131-.561.984-.571,1.812-.037,3.523.662,2.08.644,2.319-.34,3.055-1.528,1.131-1.785.947-1.574-1.141a2.7,2.7,0,0,0-1.131-2.778c-1.895-1.325-2.76-.828-3.984,2.5-1.656,4.49-12.144,14.177-15.52,14.932a15.624,15.624,0,0,0-3.6,1.536,22.867,22.867,0,0,1-4.426,1.812c-3.109.92-3.762,1.62-4.149,4.518-.644,4.747-2.557,7.755-7.056,8.427-3.763.57-6.652,1.794-6.771,3.569-.148,2.19-1.16,2.42-5.41,1.38-3.284-.8-4.517-1.2-4.885-2.548-.341-1.27-.874-1.61-2.935-1.877-3.192-.395-4.214,1.086-2.539,3.929a5.629,5.629,0,0,1,.727,4.268c-.175.93-.258,1.4-.424,2.319-2-.285-2.99-.423-4.931-.69-3.919-.534-5.032-.911-6.035-2.006a5.478,5.478,0,0,0-6.136-.966,7.977,7.977,0,0,1-3.763.35c-3.984-.414-5.87.184-6.192,1.913a2.407,2.407,0,0,0,.249,1.886,2.491,2.491,0,0,1,.276,1.85c-.258,1.554,1.058,2.815,3.3,3.109,1.8.249,6.9,3.156,6.818,3.91-.037.3,1.076.709,2.5.911,1.693.239,2.576.626,2.53,1.132-.037.423.782,1.481,1.858,2.373,1.408,1.159,1.831,1.9,1.472,2.668-.644,1.343,2.926,6.045,5.373,6.946,2.6.957,2.9,2.99,1.721,9.421-1.38,7.572-6.183,20.672-16.321,18.768-7.351-1.38-11.252-2.052-11.914-2.769-.479-.525-1.684-.773-3.413-.681-5.106.276-10.866.11-11.372-.469-1-1.159-3.965-1.721-10.506-2-5.161-.22-6.734-.5-7.314-1.242-.874-1.113-4.361-1.554-6.32-.782a7.641,7.641,0,0,0-2.494,1.932,3.668,3.668,0,0,1-2.18,1.39c-2.723-.037-3.579.1-5.382.883a10.071,10.071,0,0,0-2.659,1.6c-.616.652-1.608,3.867-1.876,5.689A461.959,461.959,0,0,1,98.259,713.264ZM616.932,959.972q-4.543,1.061-9.123,2.027Q612.387,961.028,616.932,959.972Zm-9.988,2.21q-4.5.945-9.034,1.8Q602.443,963.129,606.944,962.182Zm-9.635,1.915q-9.3,1.745-18.734,3.112Q588.006,965.843,597.309,964.1Zm-19.429,3.214q-4.636.664-9.3,1.236Q573.243,967.976,577.88,967.311ZM358,945.583q-2.367-.84-4.723-1.7Q355.635,944.745,358,945.583Zm-5.66-2.053q-2.19-.811-4.37-1.639Q350.153,942.722,352.343,943.53Zm-5.567-2.1q-2.043-.786-4.076-1.587Q344.733,940.644,346.776,941.427Zm-5.473-2.148q-1.929-.771-3.852-1.556Q339.371,938.512,341.3,939.279Zm-5.37-2.187q-1.854-.769-3.7-1.55Q334.078,936.327,335.933,937.092Zm-5.306-2.24q-1.8-.771-3.584-1.553Q328.829,934.085,330.627,934.852Zm-5.253-2.295q-1.746-.776-3.486-1.562Q323.627,931.786,325.374,932.557Zm-5.2-2.35q-1.71-.786-3.416-1.583Q318.461,929.425,320.173,930.207Zm-5.132-2.4q-1.695-.8-3.383-1.618Q313.346,927.009,315.041,927.81Zm-5.1-2.457q-1.679-.822-3.35-1.654Q308.264,924.535,309.944,925.353Zm-5.051-2.512q-1.672-.846-3.34-1.7Q303.218,922,304.893,922.841ZM457.534,968.8q1.554.184,3.113.357Q459.089,968.985,457.534,968.8Zm5.624.628q1.612.17,3.229.33Q464.772,969.6,463.158,969.43Zm3.9.394c.331-6.979.128-9.371-1.417-11.468-1.352-1.84-1.343-1.895-.184-4.011a17.9,17.9,0,0,0,1.518-3.753,5.278,5.278,0,0,1,1.279-2.429c1.03-.948,1.546-2.769,1.067-3.726a13.589,13.589,0,0,1,.129-3.91c.451-3.643-.322-4.72-1.435-2.135a5.96,5.96,0,0,1-2.6,2.622c-2.824,1.4-3.744,3.441-3.965,8.722-.147,3.395.175,4.609,1.03,5.115,1.537.929,1.086,2.585-1.481,5.419-1.867,2.07-2.475,2.4-3.937,2.006-1.629-.442-1.776-.368-2,1.683-.129,1.2.009,2.208.285,2.217.377.019.864,1.2,1.195,2.506a457.249,457.249,0,0,1-92.557-21.018q10.877,3.694,21.994,6.856a3.044,3.044,0,0,0,2.264-2.282c.46-1.637,1.269-1.95,4.379-2.29a45.688,45.688,0,0,1,6.182-.258,8.533,8.533,0,0,0,4.2-.92,29.9,29.9,0,0,1,5.17-2.125,18.966,18.966,0,0,0,4.379-1.859c1.776-1.444,3.5-5.345,3.229-7.534a11.955,11.955,0,0,1,.23-3.837c.516-1.895,3.027-4.388,4.324-4.177a6.843,6.843,0,0,0,2.825-.956c1.978-1.058,1.711-1.123,5.363.441a29.685,29.685,0,0,0,6.072,1.923,4.751,4.751,0,0,1,3.009,1.389,3.253,3.253,0,0,0,2.143,1.27,3.276,3.276,0,0,1,2.024.993c.368.506,1.767.782,3.736.709,2.438-.092,3.827-.681,6.366-2.751a17.06,17.06,0,0,1,3.717-2.613,2.257,2.257,0,0,0,1.371-.9,3.077,3.077,0,0,1,2.3-.819c1.186.083,2.254-.672,4.5-3.358,1.859-2.236,3.046-3.34,3.515-3.11a17.734,17.734,0,0,1,4.885,3.266,3.542,3.542,0,0,0,1.766,1.15c.957.009,1.739,1.27,1.638,2.705a13.894,13.894,0,0,0,.626,3.56,12.6,12.6,0,0,1,.506,4.048,5.131,5.131,0,0,0,2.539,4.821,2.217,2.217,0,0,1,1.1,1.721c.064.7.5,1.269.984,1.26s2.337,2.484,4.471,5.5a36.637,36.637,0,0,0,4.646,5.648,4.21,4.21,0,0,1,1.436,1.187,5.257,5.257,0,0,0,3.91,1.169c2.456-.046,3.128.285,5.161,2.594,1.3,1.463,2.9,2.686,3.468,2.677a2.666,2.666,0,0,1,1.859,1.417,4.288,4.288,0,0,0,3.312,1.656c2.208.193,2.576.506,2.99,2.732.285,1.518,1.039,2.714,1.886,2.99a8.771,8.771,0,0,1,1,.42c-1.154.009-2.306.022-3.461.022Q489.254,972,467.058,969.824ZM358.62,945.805q2.626.929,5.266,1.826Q361.246,946.734,358.62,945.805ZM835.982,838.54q2.718-2.7,5.393-5.433Q838.7,835.848,835.982,838.54Z"/><path class="a" d="M302.24,657.36l.722-.241c1.109-.369,2.492-1.292,3.49-.914a1.117,1.117,0,0,0,.9-.021,2.352,2.352,0,0,1,2.5.248l1.575,1.227a2.467,2.467,0,0,0,1.344-1.226l.006-.013c.269-.573.609-.628,1.5-.235,1.038.459,1.258.4,1.559-.528.287-.886.358-.927.472-.247.173,1.031.437,1.124,1.218.431a2.768,2.768,0,0,1,1.821-.476,2.388,2.388,0,0,0,1.631-.313,2.26,2.26,0,0,1,1.5-.465A2.676,2.676,0,0,0,325,653.049a1.4,1.4,0,0,1,.876-.56c.951-.092,5.035-1.667,5.4-2.184.193-.276.711-.293,1.163-.029a1.108,1.108,0,0,0,1.311-.023,1.278,1.278,0,0,1,1.357-.179c.5.2,1.028.075,1.151-.257.166-.451-.673-.975-2.656-2.349-1.458-1.011-2.232-1.62-2.389-2.012-.56-1.4-2.391-3.353-3.47-3.621-.846-.211-1-.394-.766-.887a.947.947,0,0,1,1.17-.369c1.122.364,1.62-.115,2.361-2.126.709-1.923,1.575-2.8,2.2-2.359.64.452.483,2.8-.087,4.523a3.985,3.985,0,0,0,.215,3.185c.809,2.043,2.089,3.112,3.242,2.738.623-.2,1.007.021,1.918,1.025,1.8,1.989,2.866,1.342,3.62-1.7a9.255,9.255,0,0,1,1.152-2.241c.851-1.242,1.334-2,1.113-3.1a3.458,3.458,0,0,1,.169-2.01.734.734,0,0,0-.384-1.054,3.422,3.422,0,0,1-1.118-2.269,4.286,4.286,0,0,0-.745-2.168,1.368,1.368,0,0,1-.329-1.274c.131-.824.258-.908.807-.574a3.5,3.5,0,0,1,1.069,1.587,6,6,0,0,0,1.536,2.152c.98.824,1.366.784,2.815-.127.915-.575,2.347-1.386,3.174-1.81,2.7-1.385,3.029-2.914.928-3.7-1.134-.424-1.56-1.488-.959-2.141.342-.372,2.36.987,2.517,1.665.085.365,1.253.44,3.405.2,2.618-.3,3.733-.215,5.15.379,1.592.668,2.076.635,3.851-.113,2.244-.946,2.568-1.53,1.056-1.874-.586-.134-.728-.417-.348-.664.4-.259,2.42-.182,5.316.133a28.706,28.706,0,0,0,6.805.085c.761-.159,1.142-.239,1.9-.4-.259-.368-.385-.551-.628-.914a1.979,1.979,0,0,0-1.549-.85c-.527.029-.8-.108-.608-.3a3.307,3.307,0,0,0,.576-.939c.17-.433.546-.52,1.461-.352a6.936,6.936,0,0,0,5.881-1.6c.694-.658,1.062-1.273.817-1.389s-.1-.546.319-.945c.731-.7.537-.737-2.616-1.424-4.571-1-4.662-1.682-.952-1.87a28.411,28.411,0,0,1,7.665.54c3.009.667,3.61.945,2.611,1.487-1.079.585-1.569,2.825-.622,2.968.48.073,1.15-.353,2.125-1.3,1.311-1.272,1.6-1.378,3.524-1.543,1.662-.142,2.251-.353,2.923-1.01s.615-.894-.191-1.162c-.643-.214-.844-.613-.54-1.061.428-.63.159-.783-1.949-1.313a5.573,5.573,0,0,1-2.438-1c-.046-.213-.516-.466-1.043-.565-1.406-.263-.362-.751,2.778-1.407a10.634,10.634,0,0,1,4.465-.295,9.47,9.47,0,0,0,3.478-.088,9.318,9.318,0,0,1,2.487-.267c1.084.17,1.917-.264,1.428-.73-.389-.371-.31-.419,1.123-.9a4.682,4.682,0,0,1,3.512.01,8.11,8.11,0,0,0,4.614.028,10.763,10.763,0,0,0,2.8-.81.607.607,0,0,1,.334-.1,1.757,1.757,0,0,0,1.511-2.061l-.256-1.41a3.5,3.5,0,0,0-2.169-2.677c-1.067-.4-1.092-.745.005-.928,1.182-.2,1.876-1.015,1.245-1.418a2.646,2.646,0,0,0-2.969-.092c-.328.3-.367.581-.087.626,1.037.165-.222.708-1.69.719a16.764,16.764,0,0,0-2.974.349c-2.01.46-4.107.5-3.612.106a2.823,2.823,0,0,1,1.119-.433c.987-.151,2.8-1.739,2.655-2.289-.11-.421-.032-.473,1.151-.907a5.612,5.612,0,0,1,2.283-.317,2.164,2.164,0,0,0,1.356-.137c.735-.671-.723-1.534-3.42-2.295-1.686-.476-2.611-1.032-2.482-1.358.389-.979-1.552-1.966-3.536-2.524-1.135-.318-1.331-.694-1.074-.927.654-.592-3.53-3.09-4.249-2.846-.431.146-.47.083-.217-.249s.191-.376-.168-.241a.754.754,0,0,1-.68-.02c-.156-.156-.328-.106-.876.235a1.538,1.538,0,0,1-1.121.349c-.493-.1-.494-.871-.117-1.369s-1-2.107-1.457-1.919c-.105.043-.269-.048-.362-.2a.285.285,0,0,0-.4-.123c-.133.091-.213.237-.169.322s-.04.231-.191.329-.364-.009-.478-.265c-.183-.411-.47-.412-.88.048a2.28,2.28,0,0,1-.457.353c-.375.219-.573-.308-.229-.569a2.012,2.012,0,0,0,.217-2.023l-.291-.43c-.31.185-.481.284-.853.494-.843.475-1.012.534-1.08.329a1.124,1.124,0,0,1,.3-.7,1.764,1.764,0,0,0,.273-1.15c-.085-.7-.056-.72-.861-.465-1.02.324-1.018.24-.132-.263.282-.16.413-.235.651-.375-.718-.551-1.046-.789-1.658-1.219-1.083-.76-1.6-.96-2.07-.956a1.95,1.95,0,0,1-1.025-.262c-.287-.233-.407-.245-1.088-.059-.434.119-1.285.342-1.9.5-1.08.279-1.173.28-1.341-.111-.186-.434-1.344-.556-2.591-.235a1.716,1.716,0,0,1-.9.059,1.91,1.91,0,0,0-.85-.086c-.372.024-.858.049-1.077.054a10.271,10.271,0,0,0-2.87.811c-.5.224-.628.413-.416.616.166.159.11.36-.128.451a26.007,26.007,0,0,1-3.507,1.063c-.231.015-.806.1-1.281.181a4.525,4.525,0,0,1-1.941-.211,3.931,3.931,0,0,0-2.063-.187,8.212,8.212,0,0,1-2.381.078c-.786-.1-1.677-.192-1.958-.187a10.148,10.148,0,0,0-3.177.311,9.82,9.82,0,0,0-3.531,2.266,4.46,4.46,0,0,1-1.36,1.1c-.641.376-1.134.741-1.088.809s-.233.251-.771.469c-1.312.532-2.288-.41-1.023-.973a2.359,2.359,0,0,0,1.129-.815c.109-.223.068-.368-.083-.317a7.648,7.648,0,0,0-2.17,1.191q.084.115-1.223.7c-1.624.727-2.59,1.364-2.455,1.6s-.412.688-1.179,1.024c-.331.145-.634.209-.676.14-.108-.18-1.927.655-2.93,1.331a10.762,10.762,0,0,0-2.236,2.048c-.095.153.159.085.919-.243,1.463-.63,1.737-.358.337.347-.851.429-.884.482-.175.293a1.788,1.788,0,0,1,1.2.021,1.575,1.575,0,0,0,1.132,0c.565-.172.626-.09.192.274-.343.288-.609.6-.589.693s-.4.375-1.048.679c-.6.279-.017.067-.69.419-.2.1-.076.148-.651.436a3.761,3.761,0,0,0-1.046.65,1.826,1.826,0,0,1-.718.454c-.393.178-.706.373-.7.432a5.144,5.144,0,0,1-1.911.867,7.7,7.7,0,0,0-1.251.411,26.069,26.069,0,0,0-3.31,1.574c-.127.107-1.314.674-2.615,1.247a29.6,29.6,0,0,1-3.49,1.4,15.346,15.346,0,0,0-2.385.952c-.837.393-1.73.761-2.777,1.139-.845.306-1.517.563-1.519.587a2.813,2.813,0,0,1-.524.323,5.867,5.867,0,0,1-1.609.55,6.247,6.247,0,0,0-2.276.86c.01.042-.217.162-.5.262s-.527.113-.552.033-.193-.148-.375-.154c-.37-.012-3.23.743-5.1,1.216a3.443,3.443,0,0,1-1.387.209c-.153-.059-.419-.007-1.15.165-1.028.243-1.146.35-.831.775.147.2.1.254-.216.246-.494-.012-.929.9-.795,1.066s1.017-.7,1.5-.891a2.445,2.445,0,0,1,.852-.171,1.268,1.268,0,0,1,.565.033c.051.078-.275.209-1.35.4-.56.1-.695.442-.665.914.05.764-.45,1.612-2.148,3.389a9.759,9.759,0,0,1-1.451,1.366,13.312,13.312,0,0,1,.9-1.754c1.156-2.048,1.054-3.273.023-2.53a4.706,4.706,0,0,0-1.087,1.024c-.679.848-1.14,1.186-1.541,1.151a1.8,1.8,0,0,0-1.021.544,16.154,16.154,0,0,1-1.572,1.146c-1.025.645-2.2,1.664-2.133,1.919.025.091-.228.392-.589.7-1.06.89-1.524,1.769-.888,1.732a1.959,1.959,0,0,1,.946.2c.241.143.782.012,1.389-.355,1.04-.629,1.942-1.518,1.858-1.777a11.6,11.6,0,0,1,1.84-2.494c.627-.609.511-.131-.218.846a4.232,4.232,0,0,0-.741,1.342c-.034.4-.072.476-2.011,2.318a20.435,20.435,0,0,1-4.8,3.662c-2.556,1.579-2.819,1.65-2.371,1.059.7-.926.478-1.338-.5-.892a1.784,1.784,0,0,1-1.188.19c-.3-.164-.541-.052-1.858.839-1.124.76-1.63,1.011-1.915.961-.457-.081-5.189,2.114-6.715,3.134a7.763,7.763,0,0,0-1.431,1.189c-.311.4-.758.659-2.843,1.49a17.264,17.264,0,0,0-5.106,2.784,15.972,15.972,0,0,0-3.367,2.828,10,10,0,0,1-1.8,1.678c-.568.395-.983.777-.924.848.126.151-2.1,1.574-4.719,3.034-2.186,1.221-3.59,2.263-3.912,2.882a10.805,10.805,0,0,1-3.164,2.7c-1.688,1.145-4.841,4.38-4.557,4.59.25.184-1.549,1.952-3.506,3.582a18.109,18.109,0,0,0-2.6,2.685c-.593.779-1.791,2.289-2.647,3.367-1.767,2.223-2.639,3.826-2.342,3.978.111.057-.041.441-.333.858s-.439.8-.329.856a5.42,5.42,0,0,1-1,1.881c-1.329,2.009-1.668,2.315-.092,1.623,1.837-.807,3.177-.382,2.177.687a9.2,9.2,0,0,0-2.326,3.885c-.1.7-.362,1.069-1.8,2.476-1.479,1.447-1.643,1.668-1.5,2.147.113.392.488.342,1.364-.2,1.4-.87,1.345-.337-.111,1.088-1.207,1.182-.753,1.525,1.034.825.65-.255,1.193-.3,1.194-.111,0,.4,2.7-1.248,3.955-2.472a8.025,8.025,0,0,1,2.463-1.4,14.363,14.363,0,0,0,3.352-1.877,22,22,0,0,1,4.707-2.44,29.17,29.17,0,0,0,3.538-1.49,10.081,10.081,0,0,1,2.417-.969,6.145,6.145,0,0,0,2.438-1.152,14.223,14.223,0,0,1,2.5-2.023c1.8-1.231,2.246-1.374,3.252-.975a7.856,7.856,0,0,0,2.816.368,5.23,5.23,0,0,1,1.828.094,12.769,12.769,0,0,0,2.756.015,7.9,7.9,0,0,1,2.8.185c.631.594,4.7-.624,5.506-1.708.313-.421.168-.856-.453-1.409-1.348-1.2-1.572-1.558-1.244-1.964.168-.207,1.073.412,2.127,1.508,2.512,2.612,3.223,2.782,3.968.432.823-2.6.877-2.6,1.967-1.212.857,1.088,1.326,1.231,3.4.79.948-.2,1.407-.316,2.3-.57,1.036.9,1.7,1.48,2.427,2.111.712.615,2.354-.358,3.23-.7l1.728-1.3C298.814,660.62,300.666,657.684,302.24,657.36Zm93.446-43.292c.177-.273.405-.277.818-.016a9.3,9.3,0,0,0,1.94.736c.754.2,1.276.465,1.143.583C398.85,616.023,395.2,614.823,395.686,614.068Zm17.067-7.9a1.034,1.034,0,0,1,.73-.243c.212.034.233.2.047.366a1.023,1.023,0,0,1-.73.241C412.585,606.5,412.564,606.332,412.753,606.166Zm-7.282-8.881c.589-.649,1.325-.859,3.036-.808,1.539.047,1.589.4,0,.961C407.225,597.893,405.036,597.763,405.471,597.285Zm-5.141-10.6c.2-.12.377-.181.4-.134s-.114.184-.315.306-.389.184-.412.136S400.131,586.8,400.33,586.683Zm-.086,6.825c.274-.154.583-.171.692-.036s-.024.377-.3.536-.6.171-.7.031S399.969,593.662,400.244,593.508Zm-.94-.345c.273-.148.514-.242.537-.209s-.179.184-.453.333-.518.241-.541.207S399.031,593.311,399.3,593.163Zm-2.488-8.482c.4-.306.48-.334.526-.189.064.2-.521.908-.989,1.166-.176.1-.306.125-.286.06A1.824,1.824,0,0,1,396.816,584.681Zm-19.564,36.977c.7-.179,1.642.5,1.224.893a1.434,1.434,0,0,1-1.088.194C376.587,622.587,376.509,621.849,377.252,621.658Zm-15.776,2.92a.952.952,0,0,1,.819-.237c.239.07.263.29.052.493a.955.955,0,0,1-.822.242C361.284,625.006,361.263,624.78,361.476,624.578Zm-12.809-1.587c1.042-.064,1.394.876.579,1.686-.194.192-.849.087-1.408-.248C346.7,623.748,347.11,623.088,348.667,622.991Zm-7.449,5.065a2.336,2.336,0,0,0,.489-1.136,1.524,1.524,0,0,1,.606-.978c1.029-.744,1.165-.194.309,1.163a7.591,7.591,0,0,0-.984,2.412,6.737,6.737,0,0,0-.062,1.185c-.294-.187-.42-.266-.644-.384C340.332,630,340.462,628.98,341.218,628.056Zm-14.987,8.215c.442-.731,1.3-.732.935-.013a1.351,1.351,0,0,1-.677.618C325.861,637.068,325.814,636.962,326.231,636.271Z"/><path class="a" d="M404.29,619.357c-3.08-.459-4.957-.294-5.83.585-.57.575-.2.787,3,1.383,2.049.382,4.193.726,4.7.779,1.319.14,2.41-.694,1.146-.864-.579-.078-.928-.457-.775-.834C406.746,619.877,406.221,619.646,404.29,619.357Z"/><path class="a" d="M588.8,599.522a9.813,9.813,0,0,0,4.063.361,6.51,6.51,0,0,1,2.914.174c.109.2-.148.431-.575.5-.832.142-.7.685.419,1.6,1.1.9,5.338-.121,5.68-1.423.2-.764.784-1.082,2.526-1.457,1.668-.358,2.137-.663,1.924-1.146-.157-.357-.156-.682,0-.722s.03-.354-.279-.7a1.283,1.283,0,0,0-1.492-.4c-.8.2-1.057.105-1.683-.614s-.869-.81-1.669-.626c-1.13.26-1.2,2.387-.063,3.664.621.693.589.791-.244.679-.536-.073-1.506-.16-2.157-.2-1.153-.063-1.784-.424-1.785-1.032,0-.689-.744-1.043-2.269-1.067a4.082,4.082,0,0,1-1.893-.338c-.148-.17.148-.532.654-.807.806-.439.81-.6.08-1.3-.68-.654-.721-.825-.245-.919.321-.064.425-.309.233-.544a2.011,2.011,0,0,0-1.6-.178c-1.1.218-1.179.352-.566,1.1.569.694.548.883-.14,1.037-1.258.281-2.7,1.617-2.393,2.233.15.3-.115.546-.595.554C586.491,597.98,587.116,598.84,588.8,599.522Z"/><path class="a" d="M588.322,601.676c-1.265.192-1.569.663-.877,1.353.48.478.844.517,2,.2.782-.211,1.37-.538,1.3-.722C590.546,601.958,589.3,601.528,588.322,601.676Z"/><path class="a" d="M601.522,592.7c1.111.455,1.836.3,1.5-.314-.4-.732-.761-.9-1.96-.884C599.9,591.515,600.105,592.119,601.522,592.7Z"/><path class="a" d="M631.782,629.332a12.289,12.289,0,0,1,2.87,5.91,1.712,1.712,0,0,0,.818,1.644,2.848,2.848,0,0,0,1.062.626c.627-.058,1.236.936,1.15,1.878a3.264,3.264,0,0,0,.381,1.756c.258.407.345.749.2.757s-.135.321.032.7a3.894,3.894,0,0,0,1.49,1.579,3.814,3.814,0,0,1,1.722,2.068c.369.819.339,1.148-.085,1.061-1.4-.286-.082,1.76,2.533,4.178a8.422,8.422,0,0,0,2.118,1.618,2.446,2.446,0,0,1,1.127.776,2.359,2.359,0,0,0,1.137.769,6.127,6.127,0,0,1,1.764.817c1.06.628,1.324.655,1.054.158-.593-1.092.169-.8,1.1.4a2.9,2.9,0,0,0,2.047,1.34c.653.12,1.819.308,2.6.413,2.19.294,9.33-2.269,8.857-3.025a1.823,1.823,0,0,0-1.193-.709c-6.043-.686-11.9-4.5-15.2-7.782-1.855-1.839-1.964-1.971-2.351-3.018-.224-.6-.435-1.219-.466-1.369a16.025,16.025,0,0,0-.854-1.8,14.7,14.7,0,0,1-1.116-2.858,23.37,23.37,0,0,0-2.266-6.486c-.652-1.084-.725-1.51-.264-1.66a.676.676,0,0,0,.408-.863c-.121-.36-.037-.718.19-.8s.08-.827-.331-1.65-.594-1.553-.4-1.629.323-.507.287-.957a2.332,2.332,0,0,1,.666-1.554c.406-.41.628-.962.477-1.2s.05-.579.49-.808a6.246,6.246,0,0,0,1.715-1.816c.487-.762,1.174-1.832,1.548-2.388a5.7,5.7,0,0,0,.806-1.977,1.849,1.849,0,0,1,.725-1.274c.347-.18.358-.722.031-1.3-.643-1.133-.687-1.172-2.109-2.016-3-1.779-7.186.291-6.057,3.063.226.558.128,1.155-.217,1.324a.636.636,0,0,0-.4.781c.428.878-1.482,2.494-4.257,3.3-1.878.547-2.66.9-2.512,1.285.119.309-.15.685-.6.825a.685.685,0,0,0-.465.966.663.663,0,0,1-.479.948.642.642,0,0,0-.474.925c.187.39.138.764-.108.829s-.331.547-.189,1.074.055,1-.2,1.06-.241.435.019.848c.3.479.194.82-.294.933C629.527,627.185,629.674,627.383,631.782,629.332Z"/><path class="a" d="M603.809,600.879c-.483.1-.711.366-.5.593a1.533,1.533,0,0,0,1.264.233c.483-.1.7-.37.493-.6A1.508,1.508,0,0,0,603.809,600.879Z"/><path class="a" d="M607.091,596.5a3.58,3.58,0,0,0,3.221-1.442c.122-.279-.091-.731-.573-1.239a1.575,1.575,0,0,0-1.758-.638,1.811,1.811,0,0,0-1.289.782,3.615,3.615,0,0,1-.788,1.08C605.267,595.6,605.743,596.2,607.091,596.5Z"/><path class="a" d="M585.846,604.713c.667-.095.725-.277.236-.752-.512-.5-.738-.557-1.089-.287a2.13,2.13,0,0,1-.632.369c-.105.016-.013.2.207.412A1.778,1.778,0,0,0,585.846,604.713Z"/><path class="a" d="M571.3,603.44c.47.372,2.157.193,3.213-.324.556-.272.645-.559.274-.95-.444-.467-.84-.469-2.159,0C570.882,602.787,570.736,603,571.3,603.44Z"/><path class="a" d="M575.571,603.479c-.792.556.192,1.329,2.12,1.622,1.289.2,3.124-.5,2.824-1.087a1.337,1.337,0,0,1,.948-1.767c.964-.155,1.843-.8,1.522-1.136a9.845,9.845,0,0,0-4.611-1.08,1.458,1.458,0,0,0-1.137.86c-.129.474-.575.672-1.358.611-1.045-.083-1.088,0-.471.763C575.91,602.887,575.954,603.211,575.571,603.479Z"/><path class="a" d="M511.251,621.064c.292.1.794.282,1.114.405.454.175.569.088.531-.393-.059-.752-.068-.748.89-.093a2.9,2.9,0,0,0,1.522.483c.629-.039.738.067.688.665-.075.9.308,1.937.69,1.91.161-.012.313.3.34.692.05.725.909,1.875,1.38,1.841a2.025,2.025,0,0,1,.869.493,6.451,6.451,0,0,0,1.493.857,4.377,4.377,0,0,1,1.348.836,1.532,1.532,0,0,0,1.128.428c.594-.058.734-.332,1.183-2.308.441-1.936.6-2.254,1.245-2.479.624-.219.738-.43.724-1.333-.011-.694.132-1.156.4-1.308a1.738,1.738,0,0,0,.529-1.134c.084-.651.254-.91.648-.944a.92.92,0,0,0,.726-.5c.209-.537,1.393.308,2.611,1.7.867.993,1.091,1.626.644,2.179a.522.522,0,0,0,.024.8c.261.307.739.272,1.95-.136,1.521-.512,1.629-.5,2.144.194.648.873,1,.893,1.693.1a1.891,1.891,0,0,1,1.016-.627,1.072,1.072,0,0,0,.681-1.679c-.264-.431-.658-.575-1.428-.525-.906.06-1.142-.061-1.592-.831s-.675-.892-1.474-.836c-.726.051-1.278-.207-2.23-1.1a6.544,6.544,0,0,0-1.928-1.363,16.4,16.4,0,0,1-1.6-.53,10.218,10.218,0,0,0-1.626-.482c-.571-.1-.9-.384-1.216-1.206-.169-.434-.25-.652-.408-1.092.321-.027.481-.04.8-.068a1.062,1.062,0,0,1,1.042.537c.252.455.816.6,2.639.612a8.769,8.769,0,0,1,3.222.483c1.013.609,2.657.479,2.983-.241.173-.382.573-.526,1.247-.44.825.1,1.073-.037,1.349-.814a3.292,3.292,0,0,1,1.047-1.419.925.925,0,0,0,.466-1.233c-.2-.641-.451-.789-1.516-.931-.7-.093-1.958-.322-2.786-.512a2.219,2.219,0,0,0-2.809.9c-.1.119-.273-.183-.382-.7-.292-1.386-1.065-1.385-1.5.008-.283.914-.415,1.026-.752.7a1.157,1.157,0,0,0-1.045-.205,1.2,1.2,0,0,1-.981-.091c-1.373-1.164-1.4-1.192-2.417-.04a3.9,3.9,0,0,1-1.45,1.147c-.382.032-.439.18-.358,1.088.091,1.013.085,1.025-.329.482a3.326,3.326,0,0,0-1.893-.729c-1.4-.161-1.538-.114-2.042.835a2.077,2.077,0,0,0-.334,1.813c.3,1.207-.149,1.077-.947-.295-.516-.888-.856-1.14-1.565-1.1-.5.028-1.007-.133-1.116-.358-.137-.281-.507-.265-1.187.052a8.865,8.865,0,0,1-2.677.55c-1.654.085-3.327.954-3.3,1.738a13.127,13.127,0,0,0,1.639,2.562,14.986,14.986,0,0,1,1.548,2.292c-.147.325-1.186-.342-1.578-1.013-.483-.828-1.868-.962-1.787-.173C509.244,619.723,510.412,620.78,511.251,621.064Zm6.515-.144a1.316,1.316,0,0,0,.674-.49.635.635,0,0,1,.775-.22c.388.242.386.264.009.821-.441.651-2.05.909-1.873.3A.562.562,0,0,1,517.766,620.92Z"/><path class="a" d="M551.666,609.219c.027-.684-.715-.784-1.4-.262a3.962,3.962,0,0,1-1.464.563c-.313.038-.58.365-.487.59C548.517,610.6,551.644,609.781,551.666,609.219Z"/><path class="a" d="M360.314,824.451a9.889,9.889,0,0,0,3.372-.072,16.647,16.647,0,0,0,2.31-2.533,31.038,31.038,0,0,1,2.827-3.181c1.366-1.215,4.772-8.132,4.84-9.717.059-1.391,1.55-2.773,4.912-4.709a7.142,7.142,0,0,0,2.738-2.366,15.126,15.126,0,0,0,.046-4.472c-.138-1.366-.206-2.04-.341-3.371-.77.048-1.155.072-1.924.118a5.407,5.407,0,0,1-2.838-.536c-1.417-1.006-6.366.813-9.687,3.444-2.4,1.9-2.533,2.048-2.125,2.761.419.733.4.787-.731,1.508-.883.564-1.743.625-3.548.212a9.624,9.624,0,0,0-3.695-.189c-1.221.341-1.348.5-2.223,2.745-.807,2.068-1.179,2.568-2.509,3.391-1.479.916-1.538.987-1.193,1.806.2.471.56.9.808.942s.65.522.888,1.066c.394.9.316,1.117-.97,2.356a13.286,13.286,0,0,1-3.26,2.178,9.519,9.519,0,0,0-2.887,2.007,3.993,3.993,0,0,1-2.813,1.369c-1.288.1-1.852.378-2.138,1.1a4.1,4.1,0,0,1-1.45,1.648c-1.225.755-1.977,3.847-1.323,5.6a1.44,1.44,0,0,0,1.236.985c.468-.029,2.34.127,4.159.305a10.838,10.838,0,0,0,5.085-.608,35.353,35.353,0,0,1,4.522-1.739,22.329,22.329,0,0,0,3.938-1.608A8.124,8.124,0,0,1,360.314,824.451Z"/><path class="a" d="M413.592,818.315c-2.751.264-2.9.147-2.354-1.01.758-1.611.472-5.934-.55-7.664a2.372,2.372,0,0,1-.225-2.3c.751-1.2-2.259-5.74-3.238-5.833a1.439,1.439,0,0,1-.98-1.032,16,16,0,0,1,.016-6.474c.263-.928-.04-2.113-.882-3.69-1.012-1.9-1.537-2.35-3.032-2.535-1.9-.235-2.073-.954-.343-1.341a2.22,2.22,0,0,0,1.458-1.333,9.929,9.929,0,0,1,2.626-2.76,18.8,18.8,0,0,0,3.393-3.4,18.537,18.537,0,0,1,2.168-2.59c1.943-1.719,1.334-2.5-3.5-3.362-5.3-.953-5.435-1.445-.936-3.837,1.72-.915,2.767-1.719,3.07-2.382a11.738,11.738,0,0,1,2.181-2.611l1.712-1.591c-.123-.479-.182-.718-.3-1.2-.324-1.355-1.15-1.649-2.008-.712a2.275,2.275,0,0,0-.2,2c.467,1.605.548,1.47-4.273,2.236-2.581.41-3.593.449-3.942-.014-.256-.339-.545-.614-.646-.612a57.556,57.556,0,0,0-5.376,5.581,3.429,3.429,0,0,1-1.838,1.111c-1,.18-1.371.533-2.572,2.475-1.427,2.308-2.521,3.126-1.615,1.208.277-.586.322-1.186.094-1.329-.5-.315-3.552,1.308-3.923,2.083-.319.668.437,2.431,1.032,2.434.234,0,.533.466.671,1.036.246,1.014.214,1.073-1.627,2.492a10.577,10.577,0,0,0-2.539,2.751c-.582,1.158-.493,1.318.778,1.442,1.759.173,1.583.782-.506,1.7a25.1,25.1,0,0,0-3.1,1.7c-1.252.825-1.52,1.173-1.521,2.012,0,1.466.965,1.263,3.108-.687,1.033-.94,1.8-1.479,1.714-1.2a9.662,9.662,0,0,1-1.892,3.332c-1,.973-.584,2.128.474,1.323a5.145,5.145,0,0,1,2.041-.744c1.09-.146,1.376-.4,1.848-1.654.612-1.618.91-1.812,1.269-.825.382,1.052-.209,2.064-2.748,4.587-2.318,2.3-2.4,2.422-2.1,3.491.2.695.654,1,1.224.8a1.042,1.042,0,0,1,1.259.378c.238.465.6.518,1.084.155a7.864,7.864,0,0,1,2.649-.851c1.872-.3,1.908-.271,1.181,1.077a4.587,4.587,0,0,0-.294,3.491c.256,1.165.721,2.15,1.022,2.164.419.021.187.659-1.062,2.831-2.573,4.474-2.769,4.6-6.792,3.97-1.964-.306-3.712-.308-3.97-.006a3.273,3.273,0,0,0-.407,1.872c.051,1.171-.122,1.476-1.472,2.429-2.1,1.484-2.116,3.056.014,1.716,1.97-1.239,2.324-.686,1.218,2.139a5.633,5.633,0,0,1-2.9,3.474,13.784,13.784,0,0,1-3.917,1.482c-2.5.4-3.51,1.157-4.649,3.55-1.257,2.64-.809,3.238,2.043,2.352,2.128-.662,2.392-.616,2.458.535a1.7,1.7,0,0,0,1.553,1.447,1.911,1.911,0,0,1,1.739,2.654c-.136.333-.924.544-1.742.463a7.287,7.287,0,0,0-3.281,1,15.282,15.282,0,0,1-2.814,1.231,4.46,4.46,0,0,0-1.968,1.371c-1.051,1.318-7.839,5.192-8.864,5.036a3.361,3.361,0,0,0-2.675,1.562c-.1.257.35.555.992.66a3.431,3.431,0,0,1,1.742.84c.408.459,1.32.234,3.126-.783,2.744-1.546,6.185-1.6,7.951-.077,1.143.986,4.015-.245,4.565-1.969.7-2.188,4.676-2.836,6.416-.982,1.151,1.226,4.962,1.688,6.052.707.709-.637,1.159-.581,2.748.376,1.788,1.075,2.068,1.094,3.51.01,1.329-1,2.38-.994,5.963-.714a18.409,18.409,0,0,0,9.322-1.261c1.815-.841,3.757-1.821,4.509-2.172a2.819,2.819,0,0,0,1.676-2.469c.29-1.663.151-1.958-1.08-2-2.109-.066-1.428-2.016,1.642-5.32,2.9-3.121,4.47-6.11,4.969-8.923C419.735,820.044,417.652,817.926,413.592,818.315Z"/><path class="a" d="M345.381,689.943c-.769-.619-1.517-.275-1.564.647-.018.352.891,1.462,2.381,2.858,2.094,1.963,2.9,2.92,3.419,4.543a8.06,8.06,0,0,0,1.423,2.725,6.221,6.221,0,0,1,1.164,1.578c.865,1.935,4.382,3.418,5.742,2.5a3.742,3.742,0,0,1,2.306.109,7.723,7.723,0,0,0,3.806-.2,10.6,10.6,0,0,1,4.07-.411,4.234,4.234,0,0,0,3.614-.9,5.219,5.219,0,0,1,2.038-1.053,5.3,5.3,0,0,0,2.043-1.1c1.53-1.124,1.686-1.326,1.909-3.042.2-1.571.05-2.064-1.062-3.425-1.354-1.656-2.022-3.971-1.368-4.857.287-.389-.009-.552-1.212-.709-1.391-.182-1.63-.391-2.165-1.769-.789-2.031-1.314-2.2-2.685-.79-1,1.023-1.253,1.071-2.229.3-.865-.68-1.161-.722-1.385-.149-.317.809-1.327.526-1.533-.436-.181-.851-1.671-1.59-2.164-1.078-.316.328-.468.239-.687-.407a2.691,2.691,0,0,0-.893-1.216c-.827-.528-2.571-.293-2.812.4-.138.4-.312.112-.591-1-.675-2.7-1.457-2.683-1.742.082-.137,1.32-.29,1.331-.945,0-.218-.443-.57-.463-.946-.058-.728.787-1.1-.4-.562-1.683a3.225,3.225,0,0,0-.033-3.058,5.123,5.123,0,0,1-.485-1.45,13.228,13.228,0,0,0-.817-2.542c-.916-2.344-1.528-2.75-2.333-1.615-.291.411-.6.456-.749.117-.164-.377-.577-.119-1.229.74a12.431,12.431,0,0,1-1.6,1.767c-.969.756-.647,1.58,1.566,3.167a6.517,6.517,0,0,1,2.066,2.032c.171,1.955-2.214,1.93-4.412.4-.447-.312-.728-.225-.846.231-.14.545.083.95,1.285,2.119a4.793,4.793,0,0,1,1.921,3.527,10.183,10.183,0,0,1,.191,2.577A1.108,1.108,0,0,1,345.381,689.943Z"/><polygon class="a" points="125.666 422.477 117.705 444.747 136.349 430.192 155.069 444.645 146.988 422.416 166.518 409.078 142.88 409.895 136.23 387.199 129.702 409.933 106.062 409.244 125.666 422.477"/><polygon class="a" points="219.687 419.149 238.331 404.593 257.051 419.046 248.969 396.817 268.5 383.48 244.861 384.296 238.212 361.6 231.684 384.334 208.044 383.645 227.648 396.879 219.687 419.149"/><polygon class="a" points="288.785 438.525 307.428 423.97 326.149 438.423 318.067 416.194 337.597 402.856 313.959 403.673 307.309 380.977 300.781 403.711 277.141 403.022 296.745 416.255 288.785 438.525"/><polygon class="a" points="360.076 456.44 378.72 441.884 397.44 456.337 389.358 434.108 408.888 420.77 385.25 421.587 378.6 398.891 372.072 421.625 348.432 420.936 368.036 434.169 360.076 456.44"/><polygon class="a" points="383.895 490.765 403.499 503.998 395.538 526.268 414.182 511.713 432.902 526.166 424.82 503.937 444.351 490.599 420.712 491.416 414.063 468.72 407.535 491.454 383.895 490.765"/><polygon class="a" points="525.935 439.106 519.407 461.841 495.767 461.152 515.371 474.385 507.41 496.655 526.054 482.1 544.774 496.553 536.693 474.324 556.223 460.986 532.585 461.803 525.935 439.106"/><polygon class="a" points="528.128 364.159 521.6 386.894 497.96 386.205 517.564 399.438 509.604 421.708 528.248 407.153 546.968 421.606 538.886 399.377 558.416 386.039 534.778 386.856 528.128 364.159"/><polygon class="a" points="502.348 156.718 530.372 134.84 558.51 156.564 546.362 123.151 575.719 103.103 540.188 104.331 530.192 70.216 520.38 104.388 484.846 103.352 514.313 123.243 502.348 156.718"/></svg>