<?xml version="1.0" encoding="UTF-8"?>
<svg width="1e3" height="600" version="1.1" xmlns="http://www.w3.org/2000/svg">
 <path d="m0 0h1e3v600h-1e3z" fill="#f00"/>
 <path d="m455 259c-11.2-6.94-23-12.7-35.2-17.4-10.5 15.6-16.6 34.2-16.6 54.4 0 9.99 1.52 19.6 4.4 28.8 5.08-11.7 11.5-23 19.3-33.9 8.3-11.9 17.8-22.5 28.1-31.8zm-29.8-24.6c13.2 4.57 25.9 10.5 38.1 17.4 2.71-2.37 5.59-4.4 8.3-6.44-12.9-7.11-26.6-12.9-40.6-17.3-2.03 2.03-4.06 4.06-5.76 6.27zm11.9-12c15.2 4.06 29.8 9.65 43.5 16.9 3.22-2.03 6.44-3.9 9.48-5.76-14.6-7.45-30-12.9-45.9-16.8-2.54 1.69-4.91 3.56-7.11 5.59zm14.4-10.2c16.8 3.39 33 8.81 48.3 16.3 15.4-7.45 31.7-12.9 48.3-16.3-14.1-8.3-30.7-13-48.3-13s-34 4.74-48.3 13zm104 4.74c-15.9 3.73-31.3 9.31-45.9 16.6 3.22 1.86 6.27 3.73 9.48 5.76 13.9-7.28 28.5-12.9 43.5-16.9-2.2-2.03-4.57-3.9-7.11-5.42zm13.2 11.3c-14.1 4.23-27.6 9.99-40.6 17.1 2.88 2.03 5.76 4.23 8.47 6.44 12-6.94 24.7-12.9 37.9-17.4-1.69-2.2-3.56-4.23-5.76-6.1zm11.2 13.4c-12.2 4.57-23.9 10.3-35.1 17.3 10.3 9.31 19.6 20 28.1 31.8 7.62 10.8 14.1 22.2 19.3 33.9 2.71-9.31 4.23-18.8 4.23-28.8 0-20.2-6.1-38.8-16.6-54.2zm-8.3 66.4c-10.2-16.4-22.4-31-35.9-43.4-3.05 2.2-6.27 4.4-9.14 6.6 22.9 21.3 41.3 48.1 53 79.3 2.71-4.06 5.25-8.3 7.28-12.5-4.23-10.2-9.31-20.2-15.2-30zm-53.7-44c3.05-2.2 6.1-4.4 9.31-6.44-2.71-2.37-5.59-4.57-8.47-6.77-3.22 2.03-6.44 4.06-9.65 6.27h0.169c2.88 2.2 5.76 4.57 8.64 6.94zm-18-13.5c3.22-2.03 6.6-4.06 9.65-5.93-3.22-2.03-6.44-4.06-9.65-5.93-3.22 1.86-6.27 3.9-9.48 5.93 3.22 1.86 6.27 3.9 9.48 5.93zm-9.14 6.6c-3.22-2.2-6.27-4.23-9.48-6.27-2.88 2.2-5.76 4.4-8.64 6.6 3.22 2.2 6.27 4.23 9.31 6.44 2.88-2.37 5.76-4.57 8.81-6.77zm9.14 6.77c-2.88 2.2-5.76 4.57-8.81 7.11 3.05 2.37 5.93 4.91 8.81 7.45 2.88-2.54 5.76-5.08 8.81-7.45-2.88-2.37-5.76-4.91-8.81-7.11zm0 31.7c-12.9 13.9-24.2 29.8-33.4 47.6-6.27 11.9-11.2 24.2-14.9 36.6 14.2 7.96 30.7 12.7 48.3 12.7s34-4.74 48.3-12.7c-3.73-12.4-8.64-24.7-14.9-36.6-9.14-17.8-20.3-33.7-33.4-47.6zm-55.9 64.2c11-28.1 27.3-52.7 47.2-73-2.88-2.71-5.76-5.25-8.81-7.96-23.2 22.5-41.8 50.5-53.2 82.8 3.22 3.56 6.6 6.77 10.3 9.82 1.35-3.9 2.88-7.79 4.4-11.7zm64.5-73c20 20.3 36.2 44.9 47.4 73 1.52 3.9 2.88 7.79 4.23 11.7 3.73-3.05 7.28-6.27 10.5-9.82-11.5-32.3-30.1-60.3-53.3-82.8-3.05 2.71-5.93 5.25-8.81 7.96zm-88.2 63.8c11.7-31.2 30.1-57.7 53.2-79.1-3.05-2.37-6.1-4.57-9.31-6.77-13.5 12.5-25.7 27.1-35.9 43.5-5.93 9.65-11 19.6-15.2 29.8 2.03 4.4 4.57 8.47 7.28 12.5zm80.1-159c59.6 0 108 48.6 108 108 0 59.6-48.6 108-108 108-59.6 0-108-48.6-108-108 0-59.6 48.6-108 108-108zm47.8-23.7c-3.05 3.56-6.44 8.13-9.82 15.4-0.847-1.86-0.847-4.06-0.339-6.44 0.847-7.79 3.05-12.5 7.11-19.1 1.35-2.37 2.71-4.4 3.39-6.94 2.54-7.62 2.03-17.8-3.56-25.7 0.847 8.98-1.86 16.4-4.91 21-0.508 0.847-1.02 1.35-1.69 2.03-3.22 3.22-6.77 6.44-11.3 13.9-2.54 4.06-5.08 8.98-7.45 16.8-1.02-1.69-1.35-3.73-1.19-6.1-0.339-7.96 1.02-12.9 3.9-20.2 1.02-2.54 2.03-4.74 2.37-7.45 1.19-7.79-0.847-17.8-7.62-24.7 2.2 8.64 0.847 16.4-1.52 21.5-0.508 0.847-0.847 1.52-1.35 2.2-2.71 3.73-5.59 7.45-9.14 15.4-1.69 4.57-3.56 9.82-4.57 17.8-1.35-1.52-2.03-3.56-2.2-5.93-1.52-7.79-1.02-12.9 0.677-20.5 0.677-2.54 1.35-4.91 1.19-7.62 0-7.96-3.56-17.4-11.3-23.4 3.56 8.3 3.39 16.3 1.86 21.7-0.339 0.677-0.677 1.52-1.02 2.2-2.03 4.23-4.4 8.3-6.6 16.8-1.02 4.74-2.03 10.3-1.86 18.3-1.35-1.35-2.37-3.22-3.05-5.42-2.71-7.62-3.05-12.5-2.37-20.5 0.169-2.71 0.339-5.08 0-7.62-1.35-7.96-6.44-16.8-14.9-21.3 4.74 7.62 5.76 15.6 5.08 21-0.169 0.847-0.339 1.69-0.508 2.54-1.35 4.4-3.05 8.81-3.9 17.6-0.339 4.74-0.508 10.3 1.02 18.3-1.69-1.19-2.88-2.88-3.9-4.91-3.9-7.11-4.91-12-5.59-19.8-0.169-2.71-0.339-5.08-1.35-7.62-2.37-7.62-8.81-15.6-18-18.6 5.93 6.6 8.3 14.2 8.3 19.8 0 0.847 0 1.69-0.169 2.54-0.677 4.57-1.52 9.31-1.02 18 0.508 4.74 1.19 10.3 3.9 18-1.86-0.847-3.39-2.37-4.74-4.23-4.91-6.27-6.6-11-8.47-18.6-0.677-2.71-1.19-4.91-2.54-7.45-3.56-6.94-11.2-13.9-20.7-15.6 6.77 5.76 10.3 13 11.3 18.5 0.169 0.847 0.169 1.69 0.169 2.54 0.169 4.57 0 9.31 1.86 18 1.19 4.57 2.71 9.99 6.6 16.9-1.86-0.508-3.56-1.69-5.25-3.39-5.93-5.42-8.47-9.82-11.3-17.1-1.02-2.54-2.03-4.74-3.56-6.94-4.74-6.27-13.2-11.9-23-12 7.79 4.57 12.4 11 14.2 16.3 0.169 0.847 0.339 1.69 0.508 2.54 0.847 4.57 1.35 9.31 4.57 17.4 1.86 4.4 4.4 9.48 9.31 15.7-2.03-0.169-3.9-1.19-5.76-2.54-6.6-4.4-9.82-8.47-14.1-15.1-1.35-2.37-2.54-4.4-4.57-6.27-5.59-5.59-14.9-9.82-24.6-8.47 8.3 3.39 13.9 9.14 16.6 14.1 0.339 0.677 0.677 1.52 1.02 2.37 1.52 4.23 2.71 8.81 7.11 16.4 2.54 4.06 5.76 8.64 11.7 14.2-2.03 0-4.06-0.677-6.1-1.69-7.28-3.39-11-6.77-16.1-12.7-1.86-2.03-3.39-3.9-5.59-5.59-6.44-4.57-16.3-7.28-25.6-4.4 8.81 2.03 15.2 6.77 18.5 11.2 0.677 0.677 1.02 1.35 1.35 2.2 2.2 4.06 4.23 8.47 9.82 15.1 3.05 3.73 6.94 7.79 13.5 12.4-1.86 0.339-3.9 0-6.27-0.847-7.62-2.03-11.9-4.91-17.8-9.99-2.03-1.69-3.9-3.22-6.27-4.57-7.11-3.56-17.3-4.57-26.1-0.339 8.98 0.508 16.1 4.4 20.2 8.13 0.508 0.677 1.02 1.19 1.52 2.03 2.88 3.56 5.42 7.62 12 13.4 3.56 3.05 8.13 6.44 15.4 9.99-1.86 0.677-4.06 0.677-6.27 0.169-7.96-0.847-12.5-3.05-19.3-7.11-2.37-1.35-4.4-2.71-6.94-3.39-7.62-2.54-17.6-2.03-25.6 3.56 8.81-0.847 16.4 1.86 21 4.91 0.677 0.508 1.35 1.02 1.86 1.69 3.39 3.22 6.6 6.77 13.9 11.3 4.06 2.54 9.14 5.25 16.8 7.45-1.69 1.02-3.73 1.35-6.1 1.35-7.96 0.169-12.9-1.19-20.2-4.06-2.54-1.02-4.74-2.03-7.45-2.37-7.79-1.19-17.8 0.847-24.7 7.62 8.64-2.2 16.6-0.847 21.5 1.52 0.847 0.508 1.52 0.847 2.2 1.35 3.73 2.71 7.45 5.59 15.6 9.14 4.4 1.69 9.65 3.56 17.6 4.57-1.52 1.35-3.56 2.03-5.76 2.2-7.96 1.69-12.9 1.02-20.7-0.677-2.54-0.677-4.91-1.19-7.62-1.19-7.96 0-17.4 3.56-23.2 11.3 8.13-3.56 16.1-3.39 21.5-1.86 0.847 0.339 1.52 0.677 2.37 1.02 4.06 2.03 8.3 4.4 16.8 6.6 4.57 1.02 10.2 2.03 18.1 1.86-1.35 1.35-3.22 2.37-5.42 3.05-7.45 2.71-12.5 3.05-20.3 2.37-2.71-0.169-5.08-0.339-7.79 0-7.79 1.35-16.6 6.44-21.2 15.1 7.45-4.91 15.4-5.93 21-5.25 0.847 0.169 1.52 0.339 2.37 0.508 4.4 1.52 8.81 3.05 17.6 3.9 4.74 0.339 10.3 0.508 18.3-1.02-1.19 1.69-2.88 2.88-4.91 3.9-6.94 3.9-12 4.91-19.8 5.59-2.71 0.339-5.08 0.508-7.62 1.35-7.62 2.37-15.4 8.81-18.6 18 6.77-5.93 14.4-8.13 20-8.3 0.847 0 1.69 0 2.54 0.169 4.4 0.677 9.14 1.52 18 1.02 4.74-0.339 10.3-1.19 17.8-3.9-0.677 1.86-2.2 3.39-4.23 4.74-6.27 4.91-11 6.6-18.6 8.47-2.54 0.677-4.91 1.19-7.28 2.54-7.11 3.56-13.9 11.2-15.6 20.7 5.59-6.77 12.9-10.3 18.3-11.3 0.847-0.169 1.69-0.169 2.54-0.169 4.57-0.169 9.48 0 18-1.86 4.57-1.19 9.99-2.71 17.1-6.6-0.508 1.86-1.86 3.73-3.56 5.25-5.42 5.93-9.82 8.47-17.1 11.3-2.37 1.19-4.57 2.03-6.77 3.56-6.44 4.74-12 13.2-12.2 23 4.57-7.79 11.2-12.4 16.4-14.2 0.847-0.169 1.52-0.339 2.37-0.508 4.57-0.847 9.31-1.35 17.4-4.57 4.4-1.86 9.48-4.4 15.9-9.14-0.339 1.86-1.19 3.73-2.71 5.59-4.4 6.6-8.3 9.82-15.1 14.1-2.2 1.35-4.23 2.54-6.27 4.57-5.59 5.59-9.65 14.9-8.3 24.6 3.22-8.3 8.98-13.9 13.9-16.6 0.847-0.339 1.52-0.677 2.37-1.02 4.4-1.35 8.98-2.71 16.4-7.11 4.06-2.54 8.64-5.76 14.2-11.7 0.169 2.03-0.508 4.06-1.69 6.1-3.39 7.28-6.77 11-12.7 16.1-2.03 1.86-3.9 3.39-5.42 5.59-4.57 6.44-7.28 16.3-4.4 25.6 1.86-8.81 6.6-15.2 11.2-18.5 0.677-0.508 1.35-1.02 2.03-1.35 4.06-2.2 8.47-4.23 15.2-9.82 3.56-3.05 7.62-6.94 12.2-13.5 0.339 1.86 0 4.06-0.677 6.27-2.2 7.62-4.91 11.9-10.2 17.8-1.69 2.03-3.22 3.9-4.4 6.44-3.56 7.11-4.74 17.1-0.508 25.9 0.677-8.98 4.4-16.1 8.3-20 0.508-0.677 1.19-1.19 1.86-1.69 3.73-2.88 7.62-5.42 13.4-12 3.05-3.56 6.44-8.13 9.99-15.4 0.677 1.86 0.677 4.06 0.339 6.27-1.02 7.96-3.05 12.5-7.11 19.3-1.52 2.37-2.71 4.4-3.56 6.94-2.37 7.62-1.86 17.8 3.73 25.7-0.847-8.98 1.69-16.6 4.91-21.2 0.508-0.677 1.02-1.35 1.52-1.86 3.22-3.39 6.77-6.6 11.5-13.9 2.37-4.06 5.08-9.14 7.28-16.8 1.02 1.69 1.35 3.73 1.35 6.1 0.339 7.96-1.02 12.9-4.06 20.2-1.02 2.54-1.86 4.74-2.37 7.45-1.19 7.79 0.847 17.8 7.62 24.7-2.2-8.64-0.847-16.6 1.69-21.5 0.339-0.847 0.677-1.52 1.19-2.2 2.71-3.73 5.76-7.45 9.14-15.6 1.86-4.4 3.73-9.65 4.74-17.6 1.19 1.52 1.86 3.56 2.2 5.76 1.52 7.96 1.02 12.9-0.847 20.7-0.677 2.54-1.19 4.91-1.19 7.62 0 7.96 3.73 17.4 11.5 23.2-3.56-8.13-3.56-16.1-1.86-21.5 0.169-0.847 0.508-1.52 0.847-2.37 2.03-4.06 4.4-8.3 6.6-16.8 1.02-4.57 2.03-10.2 1.86-18.1 1.52 1.35 2.37 3.22 3.05 5.42 2.88 7.45 3.05 12.5 2.54 20.5-0.339 2.54-0.508 4.91 0 7.62 1.19 7.96 6.27 16.8 14.9 21.3-4.74-7.62-5.93-15.6-5.08-21 0-0.847 0.169-1.69 0.508-2.54 1.35-4.4 3.05-8.81 3.9-17.6 0.169-4.74 0.339-10.3-1.02-18.3 1.52 1.19 2.88 2.88 3.9 4.91 3.9 6.94 4.91 12 5.59 19.8 0.169 2.71 0.339 5.08 1.19 7.62 2.54 7.62 8.81 15.4 18.1 18.6-5.93-6.77-8.3-14.4-8.47-20 0-0.847 0-1.69 0.169-2.54 0.677-4.4 1.69-9.14 1.02-18-0.339-4.74-1.19-10.3-3.73-17.8 1.69 0.847 3.22 2.2 4.57 4.23 4.91 6.27 6.77 11 8.64 18.6 0.508 2.54 1.19 4.91 2.37 7.28 3.73 7.11 11.2 13.9 20.8 15.6-6.94-5.59-10.5-12.9-11.5-18.3-0.169-0.847-0.169-1.69-0.169-2.54 0-4.57 0.169-9.31-1.69-18-1.19-4.57-2.88-9.99-6.77-17.1 2.03 0.508 3.73 1.86 5.25 3.56 5.93 5.42 8.47 9.82 11.5 17.1 1.02 2.37 1.86 4.57 3.56 6.77 4.74 6.44 13.2 12 22.9 12.2-7.62-4.57-12.2-11.2-14.1-16.4-0.339-0.847-0.508-1.52-0.677-2.37-0.677-4.57-1.35-9.31-4.57-17.4-1.86-4.4-4.23-9.48-9.14-15.7 2.03 0.169 3.9 1.02 5.76 2.54 6.6 4.4 9.82 8.3 13.9 15.1 1.35 2.2 2.71 4.4 4.57 6.27 5.59 5.59 14.9 9.65 24.6 8.3-8.3-3.22-13.9-8.98-16.4-13.9-0.508-0.847-0.847-1.52-1.02-2.37-1.52-4.4-2.88-8.98-7.28-16.4-2.54-4.06-5.76-8.64-11.5-14.2 1.86 0 3.9 0.508 6.1 1.69 7.11 3.39 11 6.77 16.1 12.7 1.69 2.03 3.22 3.9 5.42 5.42 6.44 4.74 16.3 7.28 25.6 4.57-8.64-2.03-15.1-6.77-18.5-11.3-0.508-0.677-1.02-1.35-1.35-2.03-2.2-4.06-4.06-8.47-9.65-15.2-3.22-3.56-7.11-7.62-13.7-12.2 2.03-0.339 4.06 0 6.27 0.677 7.62 2.2 11.9 5.08 18 10.2 2.03 1.69 3.9 3.22 6.27 4.4 7.11 3.56 17.1 4.74 25.9 0.508-8.98-0.677-15.9-4.4-20-8.3-0.677-0.508-1.19-1.19-1.69-1.86-2.71-3.73-5.42-7.62-11.9-13.4-3.73-3.05-8.3-6.44-15.4-9.99 1.86-0.677 3.89-0.677 6.27-0.339 7.79 1.02 12.5 3.05 19.1 7.28 2.37 1.35 4.4 2.54 6.94 3.39 7.62 2.37 17.8 1.86 25.7-3.73-8.98 0.847-16.4-1.69-21-4.91-0.677-0.508-1.35-1.02-2.03-1.52-3.22-3.22-6.44-6.77-13.9-11.5-4.06-2.37-8.98-5.08-16.8-7.28 1.69-1.02 3.9-1.35 6.1-1.35 8.13-0.339 13 1.02 20.2 4.06 2.54 1.02 4.74 1.86 7.45 2.37 7.79 1.19 17.8-0.847 24.7-7.62-8.64 2.2-16.4 0.847-21.5-1.69-0.677-0.339-1.52-0.677-2.2-1.19-3.73-2.71-7.45-5.59-15.4-9.14-4.4-1.69-9.82-3.56-17.8-4.74 1.52-1.19 3.56-1.86 5.93-2.2 7.79-1.52 12.9-1.02 20.5 0.847 2.54 0.677 4.91 1.19 7.62 1.19 7.96 0 17.4-3.73 23.4-11.3-8.3 3.39-16.3 3.39-21.5 1.69-0.847-0.169-1.69-0.508-2.37-0.847-4.23-2.03-8.3-4.4-16.8-6.6-4.74-1.02-10.2-2.03-18.3-1.86 1.35-1.52 3.22-2.37 5.42-3.05 7.62-2.88 12.7-3.05 20.5-2.54 2.71 0.339 5.08 0.508 7.79 0 7.79-1.19 16.6-6.27 21.2-14.9-7.62 4.74-15.4 5.93-21 5.25-0.847-0.169-1.69-0.339-2.54-0.677-4.4-1.35-8.81-3.05-17.4-3.9-4.74-0.169-10.5-0.339-18.3 1.19 1.02-1.69 2.71-3.05 4.91-4.06 6.94-3.9 11.9-4.91 19.6-5.59 2.71-0.169 5.08-0.339 7.62-1.19 7.62-2.54 15.6-8.81 18.6-18.1-6.6 5.93-14.2 8.3-19.8 8.47-0.847 0-1.69 0-2.54-0.169-4.57-0.677-9.31-1.69-18-1.02-4.74 0.339-10.3 1.19-18 3.9 0.847-1.86 2.37-3.39 4.23-4.74 6.27-4.91 11-6.77 18.6-8.64 2.71-0.508 4.91-1.19 7.45-2.37 6.94-3.73 13.9-11.2 15.6-20.8-5.76 6.94-12.9 10.5-18.5 11.5-0.847 0.169-1.69 0.169-2.54 0.169-4.57 0-9.31-0.169-17.8 1.69-4.74 1.19-10.2 2.88-17.1 6.77 0.508-2.03 1.69-3.73 3.39-5.25 5.42-5.93 9.82-8.47 17.1-11.5 2.54-1.02 4.74-1.86 6.94-3.56 6.27-4.74 11.9-13.2 12-22.9-4.57 7.62-11 12.2-16.3 14.1-0.847 0.339-1.69 0.508-2.54 0.677-4.57 0.847-9.31 1.35-17.4 4.57-4.23 1.86-9.31 4.23-15.7 9.14 0.169-1.86 1.19-3.9 2.54-5.76 4.4-6.6 8.47-9.82 15.1-13.9 2.37-1.35 4.4-2.71 6.27-4.57 5.59-5.59 9.82-14.9 8.47-24.6-3.39 8.3-9.14 13.9-14.1 16.6-0.677 0.339-1.52 0.677-2.2 0.847-4.4 1.52-8.98 2.88-16.6 7.28-4.06 2.54-8.64 5.76-14.2 11.5 0-1.86 0.677-3.9 1.69-5.93 3.39-7.28 6.77-11 12.7-16.3 2.03-1.69 3.9-3.22 5.59-5.42 4.57-6.44 7.28-16.3 4.4-25.6-2.03 8.64-6.77 15.1-11.2 18.5-0.677 0.508-1.35 1.02-2.2 1.35-4.06 2.2-8.47 4.06-15.1 9.65-3.73 3.22-7.79 7.11-12.2 13.7-0.508-1.86-0.169-4.06 0.677-6.27 2.2-7.62 4.91-11.9 9.99-18 1.69-2.03 3.39-3.73 4.57-6.27 3.56-7.11 4.57-17.1 0.339-25.9-0.508 8.98-4.23 15.9-8.13 20-0.677 0.677-1.19 1.19-1.86 1.69-3.73 2.71-7.79 5.42-13.5 12z" fill="#ff0"/>
</svg>
