<?xml version="1.0" encoding="UTF-8"?>
<svg width="1e3" height="600" version="1.1" xmlns="http://www.w3.org/2000/svg" xmlns:xlink="http://www.w3.org/1999/xlink">
 <path d="m0 0h1e3v600h-1e3z" fill="#00afca" stroke-width="1.1"/>
 <g transform="matrix(.5 0 0 .5 540 260)" fill="#fec50c">
  <circle r="135"/>
  <g id="c">
   <g id="b">
    <path id="a" d="m0-153c8-0.1 11-5.1 11-11.1 0-8-11-46.1-11-46.1s-11 38.1-11 46.1c0 6 3 11.1 11 11.1z"/>
    <use transform="rotate(90)" width="100%" height="100%" xlink:href="#a"/>
    <use transform="scale(-1)" width="100%" height="100%" xlink:href="#a"/>
    <use transform="rotate(-90)" width="100%" height="100%" xlink:href="#a"/>
   </g>
   <use transform="rotate(22.5)" width="100%" height="100%" xlink:href="#b"/>
   <use transform="rotate(45)" width="100%" height="100%" xlink:href="#b"/>
   <use transform="rotate(67.5)" width="100%" height="100%" xlink:href="#b"/>
  </g>
  <use transform="rotate(11.2)" width="100%" height="100%" xlink:href="#c"/>
 </g>
 <g transform="matrix(.5 0 0 .5 0 50)" fill="#fec50c">
  <path d="m1056 711c-3.6 0.2-7.1 0.666-10.5 1.77-4.7 0.634-9.2 2.27-13.9 3.03l-1.87 0.3-3.13 0.3c0.2 0.866 0.333 1.73 0.333 2.6 0 0.9-0.1 1.77-0.333 2.5-0.2 0.7-0.834 1.57-1.33 2.1-0.666 0.733-1.37 1.37-2.2 1.77-0.8 0.4-1.7 0.567-2.6 0.634-0.9 0.033-1.83 0-2.7-0.334-0.9-0.3-1.73-0.866-2.5-1.53-0.933 0.233-1.9 0.4-2.8 0.5-0.933 0.1-1.8 0.1-2.63 0-0.933-0.267-1.9-0.567-2.8-0.933a16.1 16.1 0 0 1-2.6-1.37c-3.4 2-7.2 3.9-9.27 7.4-1.17 1.6-1.4 3.43-1.67 5.33-0.167 2.33 0.433 4.8 1.43 6.97 0.367 0.633 0.667-2.3 1.8-2.7 1.9-1.57 4.27-2.7 6.67-3.33 2.03-1.03 1.77 0.066 0.933 1.67-0.2 0.834-1.33 4 0.2 2.4 6.77-3 14.3-3.6 21.6-4.17 10.6-1.1 21.2-1.33 31.9-1.47 10 0.133 20 0.267 30 0.633 4.77 0.134 9.57 1.2 14.3 0.4 1.13-0.3 2.9-0.366 3.57-1.03-2.13-1.23-4.63-1.27-7-1.57h-19.1c-5.3-0.533-10.8-0.6-15.8-2.6-1.33-0.533-2.57-1.8-3.83-0.433-1.9 0.667-3.93 1.13-5.93 1.27-3.5 0.266-7-0.467-10.2-1.77 2.33-3.23 5.13-6.07 7.7-9.07-2.07-0.333-4.07-0.766-6.13-1.27 3.63-2.5 7-5.33 10.5-8z"/>
  <path d="m1212 746c-7.24 4.35-12.8-3.36-18.8-5.68-4.32 2.35-4.73 10.2-8.77 13.9-4.84 5.5-10.8-1.54-10.3-6.96-5.78 4.87-8.71 15.9-18.1 14.4-4.43-3.62-7.72-11.2-11.1-2.56-2.76 4.22-10.1 10.2-13.9 3.85-1.18-5.63-4-12.2-7.06-3.31-2.1 6.32-8.85 11-15.4 8.21-3.57-2.92 2.86-13.7-1.68-13-6.8 4.5-10.8 15.7-20.2 14.8-3.68-4.14 2.24-11.1-1.81-15.7-4.77 6.12-10.1 15.1-18.3 15.7-3.99-3.23 0.157-12.5-2.39-13.9-8.47 5.08-17.4 14.1-28 11.3 4.15-15.9 21.5-21.4 36.1-22.7 25.1-3.08 51.5 2.59 75.6-6.47 3.9-2.37 13.4-5.74 9.98-11.2-2.98-4.35 7.75-2.65 8.78-7.72-0.639-6.43 4.93-5.54 10.4-6.11 24.4-1.05 48.5 4.08 72.8 4.95 1.84 11.8-11.3 20.2-21.9 16.5-5.05 0.819-12.6-11.6-11.1-2.57-1.02 4.75-0.305 11-4.64 14.2m-207-24.2c5.64 5.16 9.6-0.973 14.9-3.22 17.7-6.08 33.1-16.7 48.3-27.3 9.22-7.63 17.2-17.5 29.6-20 24.2-7.3 49.8-6.42 74.1-13.2 18.5-25.3 49.8-34.3 76.1-48.8 5.9-1.83 8.18-6.69 10.1-12 10-15.8 23.7-29.9 39.8-39.4 7.64-4.18 16.8-6.58 25.4-4.67-0.62 10.3-6.53 19.4-13.7 26.6 5.84-0.128 10.9-3.82 16.8-3.61 2.02 10.6-9.4 16.1-15.5 22.7 3.38 0.787 16.4 1.77 9.29 5.16-9 6.25-19.3 10.5-27.6 17.8 7.67 1.38 8.54 3.01 0.745 5.78-4.22 2.86-12.3 3.86-13.1 9.44 5.79 3.56-2.67 7.1-5.93 8.26-6.24 1.45-12.8 4.16-4.51 8.91-3.14 4.74-9.86 5.75-15.4 5.28 1.67 5.37 4.08 11.4-2.89 13.7-15.6 11.8-34 20.4-53.6 22.4 24.5 1.89 49.8-2.67 70.8-16 2.77-3.27 17.3-6.79 9.16-9.54-3.82-1.59-12-3.36-12.6-6.27 11.4-7.01 25.7-4.51 37.9-8.68 0.316-3.96-9.29-2.86-12.9-3.76-8.54-0.7-8.04-2.88 0.195-3.69 10.4-2.76 22.2-3.3 31-10.1-7.14-3.31-16.1-0.396-23.7-3.1 12.9-5.65 28.1-6.22 39.7-14.7 5.28-5.87-6.76-4.04-10.3-3.89-7.15 1.24-10.5-2.18-2.33-5.15 13.9-10.2 31.4-16.9 41.2-31.7 2.31-3.32 5.43-13.3-1.93-9.72-9.68 3.22-18.2 14.1-29.2 10.7 21.7-16.8 42.4-36 57.3-59.3 0.768-6.72-9.78-7.45-12.5-2.17-14 13.5-26.6 29.3-44.5 37.8 17.1-16.5 31.3-36.1 43.6-56.4 2.65-6.03 9.76-13.3 5.9-20-6.22-5.15-14-0.436-17.2 5.73-10.9 14.2-19.1 30.7-33.1 42.2 12.2-23.3 24.9-48.1 25.2-75-0.038-5.54-1.15-13.7-8.67-12.7-5.96 1.07-4.55 9.99-7 14.5-5.41 18.4-7.95 38.3-19 54.4 2.5-14.9 6.87-30.5 3.51-45.6-1.57-6.74-12.4-3.84-11 2.83-13 65.9-57.2 123-115 157-26.5 15-56 24.6-86.1 29-8.09 1.77-16.8 0.732-24.6 3.49-18.7 14.4-30.1 38.4-53.8 45.9-10.6 5.28-24.5 6.36-32.1 16.2-0.658 1.26-0.8 2.73-0.774 4.13"/>
  <path d="m1076 655c-3.5 6.35-5.56 13.7-10.1 19.3-13.5-12.3-33.2-11.9-50.3-12.7-14.2-0.757-29.6-2.06-40.6-12.2-11.5-9.45-21-21.7-33.9-29.4-11.8-3.2-23.6-7.2-33.1-15.3-20.2-16.5-31.8-40.9-51.6-57.9-3.77-3.71-8.21-6.58-12.4-9.73-4.01 0.977-2.2 9.63-7.1 5.22-2.67-1.9-9.35-2.08-9.95 0.569 6.04 7.96 12.1 17 12.9 27.2-4.12 0.422-11.4-0.87-13.5 0.664 5.47 8.2 12.5 15.5 20.5 21.3-3.82 0.614-11.4 0.28-12.8 1.82 7.91 6.45 16.4 13 26.7 14.7 2.12 2.79-3.1 8.19 1.29 10.6 2.54 1.04 10.9 2.78 5.16 5.68-3.97 2.68-2.5 8.91 2.58 8.77 3.21 1.64 10.4 2.04 11 4.88-2.84 2.9-11.7 6.33-4.16 9.04 7.04 3.9 15.1 6.44 23.1 6.72-4.03 3.39-9 5.32-13.2 8.51 18.6 10.9 39.1 18 59.4 24.9 8.09 2.7 16.3 5.22 24.7 6.81-24.4-1.41-47.9-8.62-70.1-18.5-11.5-5.04-23.1-9.92-34.9-14.3 5.17-2.69 11.1-3.35 16.5-5.68-11.1-2.23-23.3-2.96-33.1-9.08 1.5-2.68 7.18-2.8 10.3-4.16 5.91-1.42 9.58-3.13 1.24-3.65-8.4-2.28-18-1.26-25.5-6.33 0.477-3.04 8.23-1.98 11.4-3.29 3.98-0.683 8.4-1.26 11.6-3.93-13-5.39-30-1.57-40.2-13-2.35-4.37 7.29-0.85 10-1.58 6.97 0 14.5 2.22 21.1-0.595-18.9-8.31-39.2-16.1-53.7-31.5-1.6-2.47-6.41-9.22-2.53-10.1 11.2 1.49 19.4 13.8 31.4 11.8 1.6-2.15-6.98-5.68-9.13-8.76-17.5-15-34.5-31.4-46.8-51.1-0.845-6.58 9.5-7.56 12.2-2.48 13.4 12.9 25.5 28 42.2 36.8 5.92 2.87-3.4-3.4-4.64-5.68-15.4-17.9-30.1-36.8-40.9-57.9-1.93-3.8-5.13-10.7 0.646-12.7 5.77-2.89 11.5 1.05 14.4 6.01 11.3 14.3 19.7 31.3 33.8 43.2-12-23.4-24.9-47.9-25.2-74.8 0.283-5.21 0.618-13.1 7.68-12.9 5.93-0.9 5 6.7 6.94 10.3 5.85 19.7 8.4 41.1 20.1 58.6-2.59-14.6-6.4-29.7-3.87-44.6 0.584-4.89 6.09-6.37 9.68-3.41 2.9 7.11 3.51 15.9 6.16 23.5 15.1 51.5 48.9 96.8 92.9 127 36.3 24.9 79.4 39.8 123 42.3 3.97 0.346 7.96 0.466 11.9 0.71"/>
  <circle cx="1020" cy="721" r="2.37"/>
  <circle cx="1020" cy="721" r=".965" stroke="#00afca" stroke-width=".381"/>
  <g id="f">
   <g id="e">
    <path d="m120 72.9s-9.61-8.08-12.9-4.02c-5.25 6.52 16.1 39 16.1 50.4 0 18.8-12.5 23.9-28 26.5-10.4 1.8-27.3-0.752-27.3-0.752 3.18-4.27 5.25-5.53 10.6-5.87-5.96-3.1-12-9.82-12-20.3 0-16.1 6.64-22.8 6.64-41 0-10.1-8.28-22.9-8.28-22.9 14.6 1.46 21.9 15 17.8 25.8 2.33 0.335 4.44-0.19 6.26-1.91 1.07 3-0.62 6.48-2.88 9.48 1.82 0.974 3.16 0.39 6.07-0.21-0.276 3.09-2.13 6.38-6.66 9.47 13.2-3.42 21.2 5.75 21.2 15.3 0 7.25-5.08 12.4-10 12.4-1.6 0-3.96-0.661-5.29-1.65-0.938 2-0.455 4.66 0.51 6.66-3.64-0.962-5.95-3.12-4.3-7.62-2.8-0.257-5.02-1.2-6.53-3 1.53-1.96 3.86-3.09 6.53-3-2.04-4.2 0.233-6.55 3.54-8.46 0 0-2.1 8.46 3.26 8.46 2.41 0 4.61-0.786 4.61-4.34 0-3.1-2.71-7.39-8.97-7.11-6.26 0.273-11.3 4.32-11.3 14.3 0 9.22 7.43 13.8 17.2 14.1 8.83 0.273 15.5-4.51 15.5-13.6 0-12.1-17.5-39.8-17.5-50.6 0-8.11 7.29-12.6 14.4-12.6 9.25 0 17.1 9.16 17.1 9.16l-5.44 6.82z"/>
    <path id="d" d="m122 292c0 20.3-18.2 30.7-32.5 30.7-19.3 0-29.5-11.5-29.5-26.6 0-8.55 1.57-13.9 5.51-22.1 0 0 31.8-66.1 44.2-91.7 1.54-3.19 2.04-6.82 2.04-12.1 0-8.22-7.97-14.9-16.3-15.1-7.62-0.19-15.9 7.1-15.9 15.4 0 10.1 5.24 14.6 10.6 14.6 6.62 0 9.25-2.72 9.25-7.36 0-3.24-1.56-4.64-3.81-4.64-5.67 0-4.08 7.64-4.08 7.64-2.82-0.617-5.13-3.5-3.81-7.09a10.2 10.2 0 0 1-5.51-3.27c1.52-1.48 3.27-2.61 5.51-3-1.33-4.39 0.447-6.53 4.29-7.43-0.775 1.69-0.801 3.24-0.544 4.7 6.04-1.72 15.3 1.02 15.3 11.5 0 10.4-7.19 19.1-20.7 16.9 3.21 1.53 4.84 4.67 5.17 8.18-2.45-0.954-5.17-1.09-5.17-1.09 1.58 2.78 3.77 5.18 3.67 10.6-2.5-1.14-4.82-3.24-8.03-1.91 5.03 9.9-1.15 23.5-16.9 26.7 5.75-6.74 8.57-14 8.57-21.3 0-23.5-6.53-27.4-6.53-43.8 0-6.84 3.51-14.2 10.5-19.2v0.273c-4.6-1.23-7.55-3.5-9.24-6.58 10.5-2.98 25.8-2.93 34 0.302 9.43 1.09 16 8.33 18 12 1.94 3.67 5.71 17 0 28.9-6.25 13.1-35.7 75.6-44.9 95.2-1.95 4.16-3.13 8.58-3.13 13.4 0 12 11 16.2 17.3 16.2 7.48 0 15.1-5.7 15.1-12.8 0-4.51-2.45-7.23-5.99-7.23-8.46 0-7.94 7.2-6.26 11.7-5.26-2.37-8.32-6.59-7.48-11-2.98-0.409-5.82-1.82-8.44-4.77 2.06-2.6 4.57-4.57 8.44-4.64-1.69-6.91 2.94-9.84 7.48-11.5-1.44 5.07-2.38 10.9 6.26 10.9 6.3 0 11.3 1.09 14.2 5.18 0.17-5.46 0.68-27 0.68-27 0.364-8.1-10.8-7.87-18-5.46 2.69-9.33 8.2-14.4 21-13.1-3.1-1.3-6.4-4.21-6.4-9.82 2e-3 -7.59 6.16-16 10.2-18.5l2.02 79.1z"/>
    <use transform="matrix(1 0 0 -1 0 645)" width="100%" height="100%" xlink:href="#d"/>
   </g>
   <use transform="matrix(-1,0,0,1,240,0)" width="100%" height="100%" xlink:href="#e"/>
  </g>
  <use transform="matrix(1 0 0 -1 0 1e3)" width="100%" height="100%" xlink:href="#f"/>
 </g>
</svg>
